<?xml version="1.0" standalone="no"?>
<!DOCTYPE svg PUBLIC "-//W3C//DTD SVG 1.1//EN" "http://www.w3.org/Graphics/SVG/1.1/DTD/svg11.dtd" >
<svg>
<metadata>
Created by FontForge 20090914 at Mon Feb 27 13:32:04 2017
 By www-data
Font data copyright Punchcut 2009
</metadata>
<defs>
<font id="Amble-Regular" horiz-adv-x="1185" >
  <font-face 
    font-family="Amble"
    font-weight="400"
    font-stretch="normal"
    units-per-em="2048"
    panose-1="0 0 0 0 0 0 0 0 0 0"
    ascent="1548"
    descent="-500"
    x-height="1000"
    cap-height="1360"
    bbox="-179 -559.999 1854 1860"
    underline-thickness="100"
    underline-position="-100"
    unicode-range="U+0020-U+FB02"
  />
<missing-glyph horiz-adv-x="478" 
 />
    <glyph glyph-name="fi" unicode="fi" horiz-adv-x="1248" 
d="M94 1000l134 0.000976562v34c0 69.333 10.167 129 30.5 179s49.5 91 87.5 123s84 55.667 138 71s114.667 23 182 23c54 0 107.5 -3 160.5 -9s99.5 -13 139.5 -21v-136c-18 2.66699 -38.333 5.16699 -61 7.5s-46.834 4.5 -72.501 6.5s-52 3.5 -79 4.5s-53.5 1.5 -79.5 1.5
c-44 0 -81.667 -4.66699 -113 -14s-57.166 -24 -77.499 -44s-35.333 -45.833 -45 -77.5s-14.5 -69.834 -14.5 -114.501v-34h295v-134h-295v-866h-196v866h-153zM855 1000h196v-1000h-196v1000z" />
    <glyph glyph-name="fl" unicode="fl" horiz-adv-x="1328" 
d="M1134 1400l-0.00195312 -1400h-196v1267c-35.333 4.66699 -76.666 8.66699 -123.999 12s-94 5 -140 5c-44 0 -81.667 -4.66699 -113 -14s-57.166 -24 -77.499 -44s-35.333 -45.833 -45 -77.5s-14.5 -69.834 -14.5 -114.501v-34h295v-134h-295v-866h-196v866h-153l19 134
h134v34c0 69.333 10.167 129 30.5 179s49.5 91 87.5 123s84 55.667 138 71s114.667 23 182 23c54 0 107.5 -3 160.5 -9s99.5 -13 139.5 -21h168z" />
    <glyph glyph-name=".notdef" horiz-adv-x="478" 
 />
    <glyph glyph-name="space" unicode=" " horiz-adv-x="498" 
 />
    <glyph glyph-name="space" unicode="&#xa0;" horiz-adv-x="498" 
 />
    <glyph glyph-name="exclam" unicode="!" horiz-adv-x="585" 
d="M196 1400h198v-998h-198v998zM196 156h198v-156h-198v156z" />
    <glyph glyph-name="quotedbl" unicode="&#x22;" horiz-adv-x="659" 
d="M88 1360h204l-75 -438l-129 10v428zM371 1360h203l-73 -438l-130 10v428z" />
    <glyph glyph-name="numbersign" unicode="#" horiz-adv-x="1399" 
d="M749 344h-214l-43 -344h-196l44 344h-232v150h251l45 354h-242v150h261l47 362h194l-46 -362h214l46 362h198l-47 -362h234v-150h-253l-45 -354h247v-150h-266l-44 -344h-197zM554 494h214l45 354h-214z" />
    <glyph glyph-name="dollar" unicode="$" 
d="M517 -18c-33.333 2 -66.667 5.16992 -100 9.50293s-65.166 9.66602 -95.499 15.999s-58.666 13.833 -84.999 22.5s-49.5 18 -69.5 28l49 144l85 -29c28.667 -9.33301 58.167 -17.5 88.5 -24.5s62.166 -12.5 95.499 -16.5s69 -6 107 -6c41.333 0 78.333 5.16699 111 15.5
s60.5 25.333 83.5 45s40.667 43.334 53 71.001s18.5 59.167 18.5 94.5c0 32.667 -7.33301 61.667 -22 87s-35.667 48.166 -63 68.499s-60.333 38.666 -99 54.999s-81.667 31.5 -129 45.5c-53.333 16 -103.333 36 -150 60s-87.167 52.333 -121.5 85s-61.333 69.5 -81 110.5
s-29.5 86.5 -29.5 136.5s8.16699 96 24.5 138s39.833 79 70.5 111s67.834 58.5 111.501 79.5s92.834 35.5 147.501 43.5v224h196v-221c63.333 -6.66699 120.666 -17.5 171.999 -32.5s92.333 -29.167 123 -42.5l-43 -150l-79 30c-25.333 10 -51.5 19 -78.5 27
s-55.5 14.5 -85.5 19.5s-63.333 7.5 -100 7.5c-43.333 0 -81.5 -5.5 -114.5 -16.5s-60.5 -26.5 -82.5 -46.5s-38.5 -43.667 -49.5 -71s-16.5 -57.333 -16.5 -90c0 -55.333 22 -103.5 66 -144.5s115.667 -76.833 215 -107.5c68.667 -22 129 -46 181 -72
s95.167 -55.167 129.5 -87.5s60.166 -68.333 77.499 -108s26 -83.834 26 -132.501s-7.83301 -93.5 -23.5 -134.5s-38.334 -77.333 -68.001 -109s-65.5 -58.167 -107.5 -79.5s-89.333 -36.333 -142 -45v-250h-196v242z" />
    <glyph glyph-name="percent" unicode="%" horiz-adv-x="1695" 
d="M137 1076c0 47.333 8.33301 89.833 25 127.5s39.5 69.5 68.5 95.5s63.167 46 102.5 60s81.666 21 126.999 21c46 0 88.833 -7 128.5 -21s74.167 -34 103.5 -60s52.333 -57.833 69 -95.5s25 -80.167 25 -127.5c0 -48 -8.33301 -90.833 -25 -128.5s-39.667 -69.5 -69 -95.5
s-63.833 -45.833 -103.5 -59.5s-82.5 -20.5 -128.5 -20.5c-45.333 0 -87.666 6.83301 -126.999 20.5s-73.5 33.5 -102.5 59.5s-51.833 57.833 -68.5 95.5s-25 80.5 -25 128.5zM311 1076c0 -26 3.66699 -49.3311 11 -69.998s17.666 -38.334 30.999 -53.001
s29.166 -25.834 47.499 -33.501s38.166 -11.5 59.499 -11.5c45.333 0 81.833 15 109.5 45s41.5 71 41.5 123s-13.833 92.667 -41.5 122s-64.167 44 -109.5 44c-21.333 0 -41.166 -3.83301 -59.499 -11.5s-34.166 -18.5 -47.499 -32.5s-23.666 -31.333 -30.999 -52
s-11 -44 -11 -70zM915 290.002c0 47.333 8.33301 89.833 25 127.5s39.334 69.5 68.001 95.5s62.5 46 101.5 60s81.167 21 126.5 21c46.667 0 89.834 -7 129.501 -21s74.167 -34 103.5 -60s52.333 -57.833 69 -95.5s25 -80.167 25 -127.5c0 -48 -8.33301 -90.833 -25 -128.5
s-39.667 -69.5 -69 -95.5s-63.833 -45.833 -103.5 -59.5s-82.834 -20.5 -129.501 -20.5c-45.333 0 -87.5 6.83301 -126.5 20.5s-72.833 33.5 -101.5 59.5s-51.334 57.833 -68.001 95.5s-25 80.5 -25 128.5zM1088 290.002c0 -26 3.66699 -49.3311 11 -69.998
s17.5 -38.334 30.5 -53.001s28.5 -25.834 46.5 -33.501s38 -11.5 60 -11.5c46 0 82.667 15 110 45s41 71 41 123s-13.667 92.667 -41 122s-64 44 -110 44c-22 0 -42 -3.83301 -60 -11.5s-33.5 -18.5 -46.5 -32.5s-23.167 -31.333 -30.5 -52s-11 -44 -11 -70zM1220 1360h157
l-916 -1360h-159z" />
    <glyph glyph-name="ampersand" unicode="&#x26;" horiz-adv-x="1277" 
d="M1235 62l-140.002 -96l-153 170c-58 -48 -120.667 -86 -188 -114s-139.333 -42 -216 -42c-66.667 0 -127.5 8.5 -182.5 25.5s-102.167 41.167 -141.5 72.5s-69.833 69 -91.5 113s-32.5 93 -32.5 147c0 46 7.33301 87.5 22 124.5s35.167 71.667 61.5 104s58 63.333 95 93
s78.167 60.167 123.5 91.5l-65 73c-43.333 46.667 -73.166 90.334 -89.499 131.001s-24.5 81 -24.5 121c0 46 8.83301 87.5 26.5 124.5s42.834 68.5 75.501 94.5s71.667 46 117 60s95.666 21 150.999 21c48 0 92.833 -6.66699 134.5 -20s77.834 -32.333 108.501 -57
s54.834 -54.334 72.501 -89.001s26.5 -73.334 26.5 -116.001c0 -34.667 -6.33301 -66 -19 -94s-30.167 -54.667 -52.5 -80s-48.5 -50 -78.5 -74l-96 -76l-46 -35l320 -358c22 30.667 43.833 62.834 65.5 96.501l64.5 104.5l121 -100
c-20.667 -40 -42.834 -78.5 -66.501 -115.5s-49.5 -72.167 -77.5 -105.5zM283.998 332c0 -32 6.00293 -60.5 18.0029 -85.5s29.167 -46 51.5 -63s49.166 -29.833 80.499 -38.5s66.666 -13 105.999 -13c62 0 117.167 10.5 165.5 31.5s93.166 49.833 134.499 86.5l-345 385
c-30 -22.667 -57.833 -45.167 -83.5 -67.5s-48 -45.833 -67 -70.5s-33.833 -50.5 -44.5 -77.5s-16 -56.167 -16 -87.5zM583.001 882c24.667 17.333 46.168 33.501 64.501 48.501s33.833 30.5 46.5 46.5s22.167 33.167 28.5 51.5s9.5 40.166 9.5 65.499
c0 20.667 -3.83301 39.334 -11.5 56.001s-18.5 31 -32.5 43s-30.5 21.167 -49.5 27.5s-39.5 9.5 -61.5 9.5c-18.667 0 -38.167 -3.33301 -58.5 -10s-38.833 -16.5 -55.5 -29.5s-30.334 -28.833 -41.001 -47.5s-16 -40.334 -16 -65.001c0 -18 2.16699 -35.333 6.5 -52
s10 -32.334 17 -47.001s15 -28.167 24 -40.5s17.833 -23.166 26.5 -32.499l53 -59z" />
    <glyph glyph-name="quotesingle" unicode="'" horiz-adv-x="373" 
d="M64 1360h204l-72 -418l-132 10v408z" />
    <glyph glyph-name="parenleft" unicode="(" horiz-adv-x="689" 
d="M301 560c0 -102 8.50293 -196.167 25.5029 -282.5s39 -165.333 66 -237s57.333 -136 91 -193s67.5 -106.833 101.5 -149.5l-125 -60c-50.667 62 -97.5 127.833 -140.5 197.5s-80.167 143 -111.5 220s-55.833 157.5 -73.5 241.5s-26.5 171.667 -26.5 263
c0 94.667 9.16699 187.667 27.5 279s43.666 178.333 75.999 261s70.666 159.167 114.999 229.5s92.166 131.833 143.499 184.5l127 -60c-36 -44 -71.667 -95.333 -107 -154s-67 -125 -95 -199s-50.667 -156 -68 -246s-26 -188.333 -26 -295z" />
    <glyph glyph-name="parenright" unicode=")" horiz-adv-x="689" 
d="M392 592c0 102 -8.50098 196.166 -25.501 282.499s-39 165.333 -66 237s-57.333 135.834 -91 192.501s-67.5 106.667 -101.5 150l125 60c110.667 -124 197 -263.167 259 -417.5s93 -322.5 93 -504.5c0 -94.667 -9.16699 -187.667 -27.5 -279
s-43.666 -178.333 -75.999 -261s-70.5 -159.167 -114.5 -229.5s-91.667 -131.833 -143 -184.5l-126 60c34.667 44 69.5 95.167 104.5 153.5s66.5 124.5 94.5 198.5s50.833 156 68.5 246s26.5 188.667 26.5 296z" />
    <glyph glyph-name="asterisk" unicode="*" horiz-adv-x="925" 
d="M555 1360l-29 -307l255 150l76 -150l-287 -117l214 -225l-132 -102l-172 261l-168 -274l-137 100l205 234l-294 104l72 154l258 -141l-28 313h167z" />
    <glyph glyph-name="plus" unicode="+" horiz-adv-x="1066" 
d="M454 586h-346v146h346v316h161v-316h345v-146h-345v-318h-161v318z" />
    <glyph glyph-name="comma" unicode="," horiz-adv-x="519" 
d="M196 176h225l-155 -468l-142 20z" />
    <glyph glyph-name="hyphen" unicode="-" horiz-adv-x="780" 
d="M108 606v166h566v-166h-566z" />
    <glyph glyph-name="period" unicode="." horiz-adv-x="527" 
d="M151 196h226v-196h-226v196z" />
    <glyph glyph-name="slash" unicode="/" horiz-adv-x="864" 
d="M607 1360h196l-564 -1500h-196z" />
    <glyph glyph-name="zero" unicode="0" 
d="M111 672c0 107.333 10.333 204.666 31 291.999s51.167 161.833 91.5 223.5s90.333 109.167 150 142.5s128.834 50 207.501 50c80 0 150.667 -16.667 212 -50s112.833 -80.833 154.5 -142.5s73.167 -136.167 94.5 -223.5s32 -184.666 32 -291.999
c0 -108 -10.667 -204.833 -32 -290.5s-52.833 -158.167 -94.5 -217.5s-93.167 -104.833 -154.5 -136.5s-132 -47.5 -212 -47.5c-78.667 0 -147.834 15.833 -207.501 47.5s-109.667 77.167 -150 136.5s-70.833 131.833 -91.5 217.5s-31 182.5 -31 290.5zM307 672
c0 -85.333 6 -161.666 18 -228.999s29.833 -124.5 53.5 -171.5s53.167 -83 88.5 -108s76.666 -37.5 123.999 -37.5c48 0 90.333 12.5 127 37.5s67.667 61 93 108s44.5 104.167 57.5 171.5s19.5 143.666 19.5 228.999c0 86 -6.5 163.667 -19.5 233s-32.167 128.333 -57.5 177
s-56.333 86.167 -93 112.5s-79 39.5 -127 39.5c-47.333 0 -88.666 -13.167 -123.999 -39.5s-64.833 -63.833 -88.5 -112.5s-41.5 -107.667 -53.5 -177s-18 -147 -18 -233z" />
    <glyph glyph-name="one" unicode="1" 
d="M245 0v146h313v1044l-325 -80v138l388 112h133v-1214h306v-146h-815z" />
    <glyph glyph-name="two" unicode="2" 
d="M1060 146l0.00488281 -146h-902v66c0 84 9 157.167 27 219.5s45.5 118.333 82.5 168s83.667 94.834 140 135.501s122.833 81.667 199.5 123c42 22.667 77.667 45.5 107 68.5s53.5 46.833 72.5 71.5s32.833 50 41.5 76s13 53.333 13 82c0 32.667 -6.5 62.667 -19.5 90
s-31.167 51 -54.5 71s-51.333 35.5 -84 46.5s-69 16.5 -109 16.5c-36.667 0 -71.334 -3.33301 -104.001 -10s-64 -15.5 -94 -26.5s-59 -23.333 -87 -37s-55.333 -27.834 -82 -42.501l-56 126c21.333 14.667 47.5 30 78.5 46s65.5 30.667 103.5 44s78.5 24.333 121.5 33
s87.5 13 133.5 13c67.333 0 128.666 -8.66699 183.999 -26s102.666 -42 141.999 -74s69.666 -71 90.999 -117s32 -97.667 32 -155c0 -52.667 -9.16699 -99.5 -27.5 -140.5s-43.333 -78.167 -75 -111.5s-68.334 -63.833 -110.001 -91.5s-85.5 -54.5 -131.5 -80.5
c-47.333 -28 -91.166 -56.167 -131.499 -84.5s-75.5 -59.5 -105.5 -93.5s-53.833 -72 -71.5 -114s-27.834 -90.667 -30.501 -146h706z" />
    <glyph glyph-name="three" unicode="3" 
d="M994 1004c0 -72.667 -19.4971 -135.335 -58.4971 -188.002s-94.833 -92.334 -167.5 -119.001c86.667 -26.667 153.5 -68.667 200.5 -126s70.5 -125.666 70.5 -204.999c0 -57.333 -11.833 -109.666 -35.5 -156.999s-57.667 -88 -102 -122s-98.5 -60.333 -162.5 -79
s-136 -28 -216 -28c-36.667 0 -74 2.16699 -112 6.5s-74.667 10.5 -110 18.5s-68.5 17.833 -99.5 29.5s-57.833 24.834 -80.5 39.501l61 122c46 -20 94.5 -36.667 145.5 -50s109.5 -20 175.5 -20c50.667 0 97.5 5 140.5 15s80 25.167 111 45.5s55.167 45.666 72.5 75.999
s26 66.166 26 107.499c0 44 -8.33301 81.833 -25 113.5s-39.834 57.834 -69.501 78.501s-64.834 35.834 -105.501 45.501s-84.667 14.5 -132 14.5h-182v146h182c40.667 0 78.5 4.66699 113.5 14s65.333 23.666 91 42.999s45.834 43.833 60.501 73.5s22 64.834 22 105.501
s-7.83301 75.667 -23.5 105s-37.334 53.166 -65.001 71.499s-60.334 31.833 -98.001 40.5s-78.5 13 -122.5 13c-30.667 0 -59.167 -1.83301 -85.5 -5.5s-51.333 -8.5 -75 -14.5s-46.5 -13.333 -68.5 -22s-44 -18 -66 -28l-65 118c21.333 14.667 46.833 28 76.5 40
s61.667 22.333 96 31s69.666 15.334 105.999 20.001s71.5 7 105.5 7c72.667 0 138.167 -8.83301 196.5 -26.5s107.833 -42.834 148.5 -75.501s71.834 -72.167 93.501 -118.5s32.5 -98.166 32.5 -155.499z" />
    <glyph glyph-name="four" unicode="4" 
d="M931 292v-292h-196v292h-671v110l631 958h236v-922h196v-146h-196zM735 438v703l-460 -703h460z" />
    <glyph glyph-name="five" unicode="5" 
d="M1068 426c0 -66.667 -11.167 -127.33 -33.5 -181.997s-55.333 -101.5 -99 -140.5s-98 -69.333 -163 -91s-139.833 -32.5 -224.5 -32.5c-39.333 0 -78.166 2.16699 -116.499 6.5s-75 10.166 -110 17.499s-67.333 16 -97 26s-54.834 20.667 -75.501 32l45 134
c21.333 -10.667 43.333 -20.334 66 -29.001s47.167 -16 73.5 -22s54.833 -10.667 85.5 -14s64.667 -5 102 -5c112.667 0 199.334 24.5 260.001 73.5s91 124.5 91 226.5c0 47.333 -8 88.333 -24 123s-38.167 63.167 -66.5 85.5s-61.833 38.833 -100.5 49.5
s-80.334 16 -125.001 16s-89 -3.5 -133 -10.5s-82 -18.167 -114 -33.5l-158 40l101 664h736v-146h-584l-68 -400c36 9.33301 76.667 17 122 23s97 9 155 9c70 0 133 -10 189 -30s103.833 -48.333 143.5 -85s70 -80.834 91 -132.501s31.5 -109.167 31.5 -172.5z" />
    <glyph glyph-name="six" unicode="6" 
d="M691 864c68.667 0 128.333 -10.5029 179 -31.5029s92.834 -50.667 126.501 -89s58.667 -84.5 75 -138.5s24.5 -114.333 24.5 -181c0 -57.333 -10.333 -112.666 -31 -165.999s-51 -100.5 -91 -141.5s-89.167 -74 -147.5 -99s-125.166 -37.5 -200.499 -37.5
c-83.333 0 -156.5 15.667 -219.5 47s-115.667 75.833 -158 133.5s-74.166 127.167 -95.499 208.5s-32 172.333 -32 273c0 111.333 13.167 212.5 39.5 303.5s64.166 168.667 113.499 233s109.666 114 180.999 149s152 52.5 242 52.5c38 0 71.667 -1.5 101 -4.5
s56 -7.16699 80 -12.5s45.667 -11.666 65 -18.999s37.666 -15.333 54.999 -24l-40 -130c-34 14 -70.167 24.833 -108.5 32.5s-80.5 11.5 -126.5 11.5c-58 0 -110.833 -10.167 -158.5 -30.5s-89 -51.833 -124 -94.5s-63.167 -97.167 -84.5 -163.5s-34 -145.166 -38 -236.499
c46 51.333 101 90 165 116s133.333 39 208 39zM663.999 717.997c-31.333 0 -62.502 -2.33301 -93.502 -7s-61.167 -12.5 -90.5 -23.5s-57.666 -26.167 -84.999 -45.5s-52.666 -43.333 -75.999 -72c6.66699 -153.333 37.667 -265.666 93 -336.999s133.333 -107 234 -107
c42 0 79 8 111 24s58.5 37.5 79.5 64.5s36.833 57.667 47.5 92s16 70.166 16 107.499c0 42.667 -4.33301 82.5 -13 119.5s-22.5 69.167 -41.5 96.5s-43.5 48.833 -73.5 64.5s-66 23.5 -108 23.5z" />
    <glyph glyph-name="seven" unicode="7" 
d="M1073 1360v-120l-541 -1240h-204l534 1214h-753v146h964z" />
    <glyph glyph-name="eight" unicode="8" 
d="M100 374c0 75.333 22.3369 140.998 67.0039 196.998s107 98.333 187 127c-66.667 27.333 -118.5 66.333 -155.5 117s-55.5 112.334 -55.5 185.001c0 59.333 10.667 112.5 32 159.5s51.5 86.833 90.5 119.5s85.833 57.667 140.5 75s115.667 26 183 26
c68 0 130.167 -8.66699 186.5 -26s104.666 -42.333 144.999 -75s71.666 -72.5 93.999 -119.5s33.5 -100.167 33.5 -159.5c0 -72.667 -19.333 -134.334 -58 -185.001s-92.334 -89.667 -161.001 -117c40.667 -14 77.167 -31.833 109.5 -53.5s59.833 -46.167 82.5 -73.5
s40 -57.666 52 -90.999s18 -68.666 18 -105.999c0 -63.333 -12.167 -119.333 -36.5 -168s-58.5 -89.834 -102.5 -123.501s-96.833 -59.167 -158.5 -76.5s-129.834 -26 -204.501 -26c-74 0 -141 8.66699 -201 26s-111.333 42.833 -154 76.5s-75.667 74.834 -99 123.501
s-35 104.667 -35 168zM296.004 373.998c0 -40 7.16699 -75.5 21.5 -106.5s34.5 -57 60.5 -78s57 -36.833 93 -47.5s75.333 -16 118 -16c44 0 84.667 5.33301 122 16s69.666 26.5 96.999 47.5s48.666 47 63.999 78s23 66.5 23 106.5c0 36.667 -7.66699 70.5 -23 101.5
s-36.666 57.667 -63.999 80s-59.666 39.666 -96.999 51.999s-78 18.5 -122 18.5c-42.667 0 -82 -6.16699 -118 -18.5s-67 -29.666 -93 -51.999s-46.167 -49 -60.5 -80s-21.5 -64.833 -21.5 -101.5zM339.004 999.998c0 -37.333 6.16699 -70.333 18.5 -99
s29.666 -52.834 51.999 -72.501s48.833 -34.667 79.5 -45s64 -15.5 100 -15.5c36.667 0 71.167 5.16699 103.5 15.5s60.166 25.333 83.499 45s41.833 43.834 55.5 72.501s20.5 61.667 20.5 99s-6.83301 70.5 -20.5 99.5s-32.167 53.5 -55.5 73.5
s-51.166 35.167 -83.499 45.5s-66.833 15.5 -103.5 15.5c-36 0 -69.333 -5.16699 -100 -15.5s-57.167 -25.5 -79.5 -45.5s-39.666 -44.5 -51.999 -73.5s-18.5 -62.167 -18.5 -99.5z" />
    <glyph glyph-name="nine" unicode="9" 
d="M513 504c-63.333 0 -120.17 10.832 -170.503 32.499s-93 51.667 -128 90s-61.833 83.833 -80.5 136.5s-28 109.667 -28 171c0 57.333 10.333 112.833 31 166.5s51 101.167 91 142.5s89.333 74.5 148 99.5s125.667 37.5 201 37.5c162.667 0 283.5 -56.833 362.5 -170.5
s118.5 -289.5 118.5 -527.5c0 -105.333 -12.167 -201.166 -36.5 -287.499s-59.166 -160.166 -104.499 -221.499s-100.5 -108.833 -165.5 -142.5s-138.167 -50.5 -219.5 -50.5c-40 0 -75.5 1.5 -106.5 4.5s-59 7.16699 -84 12.5s-47.667 11.666 -68 18.999
s-39.833 15.333 -58.5 24l34 136c36.667 -16 76.334 -28.333 119.001 -37s89 -13 139 -13c50.667 0 97.334 10 140.001 30s79.5 51 110.5 93s55.5 95.5 73.5 160.5s28 142.5 30 232.5c-44.667 -46 -97.167 -80.5 -157.5 -103.5s-123.833 -34.5 -190.5 -34.5z
M538.996 649.999c28 0 56.334 2.16406 85.001 6.49707s56.667 12 84 23s53.833 26 79.5 45s49.5 43.167 71.5 72.5c-5.33301 88 -16 160.333 -32 217s-37.333 101.334 -64 134.001s-57.834 55.167 -93.501 67.5s-75.5 18.5 -119.5 18.5
c-41.333 0 -77.5 -8.16699 -108.5 -24.5s-56.833 -38.5 -77.5 -66.5s-36.167 -60.167 -46.5 -96.5s-15.5 -74.5 -15.5 -114.5c0 -39.333 4.16699 -76.166 12.5 -110.499s21.833 -64.166 40.5 -89.499s43 -45.333 73 -60s67 -22 111 -22z" />
    <glyph glyph-name="colon" unicode=":" horiz-adv-x="630" 
d="M178 890h226v-196h-226v196zM178 198h226v-196h-226v196z" />
    <glyph glyph-name="semicolon" unicode=";" horiz-adv-x="575" 
d="M196 176h225l-155 -468l-142 20zM178 898h226v-196h-226v196z" />
    <glyph glyph-name="less" unicode="&#x3c;" horiz-adv-x="1066" 
d="M960 258v-184l-852 348v160l852 348v-184l-638 -244z" />
    <glyph glyph-name="equal" unicode="=" horiz-adv-x="1196" 
d="M132 686v146h936v-146h-936zM132 326v146h936v-146h-936z" />
    <glyph glyph-name="greater" unicode="&#x3e;" horiz-adv-x="1066" 
d="M108 746v184l852 -348v-160l-852 -348v184l637 244z" />
    <glyph glyph-name="question" unicode="?" horiz-adv-x="1021" 
d="M357 362c0 51.333 3.16602 96.499 9.49902 135.499s16.333 74 30 105s31.334 59.167 53.001 84.5s48.167 50.333 79.5 75c30.667 23.333 57.667 45.5 81 66.5s42.833 42 58.5 63s27.5 42.667 35.5 65s12 46.833 12 73.5c0 29.333 -5.83301 56.5 -17.5 81.5
s-28 46.5 -49 64.5s-46.5 32 -76.5 42s-63.333 15 -100 15c-34 0 -65.667 -3 -95 -9s-57.333 -14 -84 -24s-52.5 -21.5 -77.5 -34.5s-49.833 -26.833 -74.5 -41.5l-51 127c20.667 14.667 44.834 29.5 72.501 44.5s58.667 28.833 93 41.5s71.666 23 111.999 31
s83.5 12 129.5 12c64.667 0 122.667 -8.16699 174 -24.5s94.833 -39.666 130.5 -69.999s62.834 -67.166 81.501 -110.499s28 -92.333 28 -147c0 -47.333 -9.5 -89.666 -28.5 -126.999s-42.833 -71.333 -71.5 -102s-60.167 -59 -94.5 -85l-97.5 -76
c-16.667 -14.667 -30.334 -30.334 -41.001 -47.001s-19 -35.834 -25 -57.501s-10.167 -46.5 -12.5 -74.5s-3.5 -60.333 -3.5 -97h-181zM347.999 175.999h195v-176h-195v176z" />
    <glyph glyph-name="at" unicode="@" horiz-adv-x="1835" 
d="M1714 482c-2 -39.333 -6.99805 -79 -14.998 -119s-19.5 -78.667 -34.5 -116s-34 -72.166 -57 -104.499s-50.667 -60.5 -83 -84.5s-69.333 -43 -111 -57s-88.5 -21 -140.5 -21c-48 0 -88.833 14.333 -122.5 43s-57.834 69 -72.501 121c-70 -106.667 -174 -160 -312 -160
c-40 0 -76.167 8.16699 -108.5 24.5s-59.666 39.5 -81.999 69.5s-39.5 66.5 -51.5 109.5s-18 91.167 -18 144.5c0 22 1 44.667 3 68c8 80.667 24.167 153.834 48.5 219.501s55 121.667 92 168s79.333 82 127 107s99.167 37.5 154.5 37.5c44.667 0 84 -2.66699 118 -8
s64.5 -12.666 91.5 -21.999s51.833 -20.166 74.5 -32.499l69 -39.5l-4 -4h5l-52 -544c-0.666992 -7.33301 -1.16699 -14.166 -1.5 -20.499s-0.5 -12.5 -0.5 -18.5c0 -29.333 2.66699 -53.333 8 -72s12.166 -33.334 20.499 -44.001s17.833 -17.834 28.5 -21.501
s21.334 -5.5 32.001 -5.5c38.667 0 73.334 10 104.001 30s56.667 47.167 78 81.5s37.833 74.666 49.5 120.999s18.5 96.166 20.5 149.499c0.666992 10.667 1 21.167 1 31.5v31.5c0 110.667 -12.333 210.334 -37 299.001s-62.334 164.334 -113.001 227.001
s-114.834 110.834 -192.501 144.501s-169.167 50.5 -274.5 50.5c-102 0 -193.833 -19 -275.5 -57s-151.5 -92 -209.5 -162s-103.5 -154.667 -136.5 -254s-52.167 -210.333 -57.5 -333c-0.666992 -11.333 -1.16699 -22.5 -1.5 -33.5s-0.5 -21.833 -0.5 -32.5
c0 -110.667 13.667 -210.334 41 -299.001s67.166 -164.167 119.499 -226.5s116.333 -110.333 192 -144s161.834 -50.5 258.501 -50.5c33.333 0 67.166 2.16699 101.499 6.5s67.833 10.166 100.5 17.499s63.834 16 93.501 26s56.167 20.667 79.5 32l19 -106
c-25.333 -14.667 -54 -27.334 -86 -38.001s-65.667 -19.5 -101 -26.5s-71.166 -12.333 -107.499 -16s-71.5 -5.5 -105.5 -5.5c-120 0 -227.333 19.5 -322 58.5s-174.834 94.667 -240.501 167s-116 160.333 -151 264s-52.5 220.5 -52.5 350.5v28
c0 9.33301 0.333008 18.666 1 27.999c6 140 30 266.5 72 379.5s99.333 209.5 172 289.5s159.667 141.5 261 184.5s214.666 64.5 339.999 64.5c120 0 226.833 -19.333 320.5 -58s172.667 -94 237 -166s113.333 -159.333 147 -262s50.5 -217.667 50.5 -345v-32
c0 -10.667 -0.333008 -21.667 -1 -33zM701.002 400c-2 -22 -3 -42.667 -3 -62c0 -138.667 45.667 -208 137 -208c20.667 0 41.5 2 62.5 6s41.167 11.667 60.5 23s38 27 56 47s34.667 45.667 50 77l50 491c-19.333 8 -40.833 14.667 -64.5 20s-49.5 8 -77.5 8
c-42 0 -78.5 -8.5 -109.5 -25.5s-57.333 -42.5 -79 -76.5s-39.167 -76 -52.5 -126s-23.333 -108 -30 -174z" />
    <glyph glyph-name="A" unicode="A" horiz-adv-x="1335" 
d="M950 346h-562l-120 -346h-196l496 1360h200l499 -1360h-196zM439 492h460l-230 658z" />
    <glyph glyph-name="B" unicode="B" horiz-adv-x="1281" 
d="M183 1360l398.001 -0.00292969c76 0 143.667 -8.66699 203 -26s109.333 -42 150 -74s71.5 -70.333 92.5 -115s31.5 -94.334 31.5 -149.001c0 -37.333 -5.83301 -71.166 -17.5 -101.499s-26.334 -57.166 -44.001 -80.499s-37 -43.666 -58 -60.999s-40.833 -32 -59.5 -44
c90.667 -20 161.167 -57.833 211.5 -113.5s75.5 -126.167 75.5 -211.5c0 -57.333 -11.833 -109.666 -35.5 -156.999s-58 -87.833 -103 -121.5s-99.667 -59.667 -164 -78s-136.833 -27.5 -217.5 -27.5h-463v1360zM379.001 631.997l-0.000976562 -486.004h244
c51.333 0 98.333 4.83301 141 14.5s79.167 24.334 109.5 44.001s54 44.334 71 74.001s25.5 64.834 25.5 105.501s-6.5 76.334 -19.5 107.001s-31.667 56.5 -56 77.5s-53.666 36.833 -87.999 47.5s-72.833 16 -115.5 16h-312zM379 1213.99v-436.001h393l28.5 34
c10.333 12 20 26.333 29 43s16.667 36.334 23 59.001s9.5 50 9.5 82c0 74 -26.667 128.833 -80 164.5s-128 53.5 -224 53.5h-179z" />
    <glyph glyph-name="C" unicode="C" horiz-adv-x="1122" 
d="M121 682c0 105.333 14.5049 201.002 43.5049 287.002s70.5 159.5 124.5 220.5s119.5 108 196.5 141s163.833 49.5 260.5 49.5c34 0 64.833 -1.83301 92.5 -5.5s53 -8.5 76 -14.5s44.167 -13 63.5 -21s37.666 -16.333 54.999 -25l-55 -130
c-32.667 15.333 -67.834 27.5 -105.501 36.5s-79.834 13.5 -126.501 13.5c-64 0 -122.333 -10.667 -175 -32s-97.834 -54.5 -135.501 -99.5s-66.834 -102.167 -87.501 -171.5s-31 -152.333 -31 -249s10.833 -180 32.5 -250s52.167 -127.667 91.5 -173
s86.666 -78.833 141.999 -100.5s117 -32.5 185 -32.5c28.667 0 55.167 1.83301 79.5 5.5s46.833 8.5 67.5 14.5s39.667 12.5 57 19.5s33.333 13.833 48 20.5l42 -128c-35.333 -22 -78.166 -40.5 -128.499 -55.5s-112.833 -22.5 -187.5 -22.5
c-96.667 0 -183.5 16.833 -260.5 50.5s-142.5 81.167 -196.5 142.5s-95.5 135.166 -124.5 221.499s-43.5 182.166 -43.5 287.499z" />
    <glyph glyph-name="D" unicode="D" horiz-adv-x="1388" 
d="M183 1360l420 0.00292969c99.333 0 189.166 -16.167 269.499 -48.5s148.666 -78 204.999 -137s99.833 -130.167 130.5 -213.5s46 -176.333 46 -279s-15.333 -195.834 -46 -279.501s-74.167 -155.334 -130.5 -215.001s-124.666 -105.834 -204.999 -138.501
s-170.166 -49 -269.499 -49h-420v1360zM379 1214v-1068h202c70.667 0 135.334 10.5 194.001 31.5s109 53.333 151 97s74.5 99.167 97.5 166.5s34.5 147.666 34.5 240.999c0 92.667 -11.5 172.667 -34.5 240s-55.5 122.5 -97.5 165.5s-92.333 74.833 -151 95.5
s-123.334 31 -194.001 31h-202z" />
    <glyph glyph-name="E" unicode="E" horiz-adv-x="1074" 
d="M183 0v1360h801v-146h-605v-444h540v-146h-540v-478h605v-146h-801z" />
    <glyph glyph-name="F" unicode="F" horiz-adv-x="1001" 
d="M379 624v-624h-196v1360h758v-146h-562v-444h495v-146h-495z" />
    <glyph glyph-name="G" unicode="G" horiz-adv-x="1369" 
d="M723 690l492.006 -0.000976562v-622c-65.333 -27.333 -132.666 -48.833 -201.999 -64.5s-145 -23.5 -227 -23.5c-103.333 0 -195.5 18.667 -276.5 56s-149.667 88 -206 152s-99.333 138.333 -129 223s-44.5 174.334 -44.5 269.001c0 107.333 16.167 204.166 48.5 290.499
s78.666 159.833 138.999 220.5s134 107.334 221 140.001s185.167 49 294.5 49c34.667 0 66.667 -1.66699 96 -5s56.166 -7.66602 80.499 -12.999s46.166 -11.333 65.499 -18s36.666 -13.334 51.999 -20.001l-41 -138c-30.667 11.333 -67 22.166 -109 32.499
s-90 15.5 -144 15.5c-80 0 -151.333 -11.833 -214 -35.5s-115.834 -58.667 -159.501 -105s-76.834 -104.166 -99.501 -173.499s-34 -149.333 -34 -240c0 -71.333 10.167 -140.333 30.5 -207s50 -125.667 89 -177s87.167 -92.5 144.5 -123.5s122.666 -46.5 195.999 -46.5
c43.333 0 84 2.33301 122 7s75 13.667 111 27v384h-296v146z" />
    <glyph glyph-name="H" unicode="H" horiz-adv-x="1410" 
d="M182 1360h196v-608h659v608h196v-1360h-196v606h-659v-606h-196v1360z" />
    <glyph glyph-name="I" unicode="I" horiz-adv-x="840" 
d="M137 0v146h185v1068h-185v146h568v-146h-187v-1068h187v-146h-568z" />
    <glyph glyph-name="J" unicode="J" horiz-adv-x="954" 
d="M130 178c13.333 -6.66699 29.8359 -13 49.5029 -19s40 -11.5 61 -16.5s41.833 -9 62.5 -12s39 -4.5 55 -4.5c39.333 0 73.166 4.66699 101.499 14s51.5 24.5 69.5 45.5s31.167 47.833 39.5 80.5s12.5 72.667 12.5 120v974h196v-974c0 -78.667 -9.5 -144 -28.5 -196
s-45.833 -93.5 -80.5 -124.5s-76.334 -53 -125.001 -66s-102.667 -19.5 -162 -19.5c-64.667 0 -121.834 6.16699 -171.501 18.5s-91.167 26.833 -124.5 43.5z" />
    <glyph glyph-name="K" unicode="K" horiz-adv-x="1275" 
d="M581 602h-207v-602h-196v1360h196v-612h201l374 612h215l-418 -674h-2l492 -686h-225z" />
    <glyph glyph-name="L" unicode="L" horiz-adv-x="1036" 
d="M182 1360h196v-1214h614v-146h-810v1360z" />
    <glyph glyph-name="M" unicode="M" horiz-adv-x="1693" 
d="M852 669l413 691h253v-1360h-196v688l14 462l-405 -688h-161l-409 696l17 -458v-700h-196v1360h255z" />
    <glyph glyph-name="N" unicode="N" horiz-adv-x="1455" 
d="M182 1360h196v-1l1 1l701 -1056v1056h196v-1360h-196l-702 1058v-1058h-196v1360z" />
    <glyph glyph-name="O" unicode="O" horiz-adv-x="1408" 
d="M111 680c0 107.333 14.5 204.166 43.5 290.499s69.5 159.833 121.5 220.5s114.333 107.334 187 140.001s152.667 49 240 49c86.667 0 166.5 -16.333 239.5 -49s135.667 -79.334 188 -140.001s93.166 -134.167 122.499 -220.5s44 -183.166 44 -290.499
c0 -108 -14.667 -205.167 -44 -291.5s-70.166 -159.833 -122.499 -220.5s-115 -107.167 -188 -139.5s-152.833 -48.5 -239.5 -48.5c-87.333 0 -167.333 16.167 -240 48.5s-135 78.833 -187 139.5s-92.5 134.167 -121.5 220.5s-43.5 183.5 -43.5 291.5zM307 680
c0 -92.667 9.66699 -173.667 29 -243s46.5 -127 81.5 -173s76.833 -80.5 125.5 -103.5s102 -34.5 160 -34.5c58.667 0 112.5 11.5 161.5 34.5s91 57.5 126 103.5s62.167 103.667 81.5 173s29 150.333 29 243s-9.66699 173.667 -29 243s-46.5 127 -81.5 173
s-77 80.5 -126 103.5s-102.833 34.5 -161.5 34.5c-58 0 -111.333 -11.5 -160 -34.5s-90.5 -57.5 -125.5 -103.5s-62.167 -103.667 -81.5 -173s-29 -150.333 -29 -243z" />
    <glyph glyph-name="P" unicode="P" horiz-adv-x="1209" 
d="M182 1360h441c79.333 0 150 -9.83301 212 -29.5s114.5 -47.667 157.5 -84s75.833 -80.333 98.5 -132s34 -109.167 34 -172.5s-11.333 -121 -34 -173s-55.5 -96.5 -98.5 -133.5s-95.5 -65.5 -157.5 -85.5s-132.667 -30 -212 -30h-245v-520h-196v1360zM378 1214v-548h223
c51.333 0 97.333 5.5 138 16.5s75 27.833 103 50.5s49.5 51.334 64.5 86.001s22.5 75.667 22.5 123s-7.5 88.166 -22.5 122.499s-36.5 62.5 -64.5 84.5s-62.333 38.333 -103 49s-86.667 16 -138 16h-223z" />
    <glyph glyph-name="Q" unicode="Q" horiz-adv-x="1356" 
d="M88 680c0 107.333 14.502 204.167 43.502 290.5s69.5 159.833 121.5 220.5s114.333 107.334 187 140.001s152.667 49 240 49c86.667 0 166.5 -16.333 239.5 -49s135.667 -79.334 188 -140.001s93.166 -134.167 122.499 -220.5s44 -183.166 44 -290.499
c0 -122 -18.167 -229.333 -54.5 -322s-86.833 -169.334 -151.5 -230.001l280 -314h-214l-200 221c-76.667 -36.667 -161.334 -55 -254.001 -55c-87.333 0 -167.333 16.167 -240 48.5s-135 78.833 -187 139.5s-92.5 134.167 -121.5 220.5s-43.5 183.5 -43.5 291.5z
M284.002 680.001c0 -92.667 9.66699 -173.667 29 -243s46.5 -127 81.5 -173s76.833 -80.5 125.5 -103.5s102 -34.5 160 -34.5c58.667 0 112.5 11.5 161.5 34.5s91 57.5 126 103.5s62.167 103.667 81.5 173s29 150.333 29 243s-9.66699 173.667 -29 243s-46.5 127 -81.5 173
s-77 80.5 -126 103.5s-102.833 34.5 -161.5 34.5c-58 0 -111.333 -11.5 -160 -34.5s-90.5 -57.5 -125.5 -103.5s-62.167 -103.667 -81.5 -173s-29 -150.333 -29 -243z" />
    <glyph glyph-name="R" unicode="R" horiz-adv-x="1258" 
d="M183 1360l440 0.000976562c76.667 0 144.667 -8.83301 204 -26.5s109.5 -43 150.5 -76s72.167 -73.333 93.5 -121s32 -101.834 32 -162.501c0 -37.333 -6 -73 -18 -107s-28 -66 -48 -96s-43.333 -57.5 -70 -82.5s-54.667 -46.5 -84 -64.5l288 -624h-205l-266 584h-321
v-584h-196v1360zM379 1214l0.00195312 -484h407c14.667 12 29.167 25 43.5 39s27.166 30.5 38.499 49.5s20.666 41.167 27.999 66.5s11 55 11 89c0 44 -6.83301 81.167 -20.5 111.5s-33.5 55 -59.5 74s-57.833 32.833 -95.5 41.5s-80.5 13 -128.5 13h-224z" />
    <glyph glyph-name="S" unicode="S" horiz-adv-x="1105" 
d="M1002 358c0 -57.333 -10.8301 -109.167 -32.4971 -155.5s-52.5 -86 -92.5 -119s-88.333 -58.5 -145 -76.5s-120 -27 -190 -27c-39.333 0 -79.166 1.83301 -119.499 5.5s-79.333 8.83398 -117 15.501s-73 14.834 -106 24.501s-61.167 20.5 -84.5 32.5l49 144l85 -29
c28.667 -9.33301 58.167 -17.5 88.5 -24.5s62.166 -12.5 95.499 -16.5s69 -6 107 -6c41.333 0 78.333 5.16699 111 15.5s60.5 25.333 83.5 45s40.667 43.334 53 71.001s18.5 59.167 18.5 94.5c0 32.667 -7.33301 61.667 -22 87s-35.667 48.166 -63 68.499
s-60.333 38.666 -99 54.999s-81.667 31.5 -129 45.5c-53.333 16 -103.333 36 -150 60s-87.167 52.333 -121.5 85s-61.333 69.5 -81 110.5s-29.5 86.5 -29.5 136.5c0 57.333 10.833 109.5 32.5 156.5s52.167 87 91.5 120s87 58.5 143 76.5s118.667 27 188 27
c42 0 82.333 -2.66699 121 -8s74.667 -12 108 -20s63.666 -16.667 90.999 -26s50.666 -18 69.999 -26l-43 -150l-79 30c-25.333 10 -51.5 19 -78.5 27s-55.5 14.5 -85.5 19.5s-63.333 7.5 -100 7.5c-43.333 0 -81.5 -5.5 -114.5 -16.5s-60.5 -26.5 -82.5 -46.5
s-38.5 -43.667 -49.5 -71s-16.5 -57.333 -16.5 -90c0 -55.333 22 -103.5 66 -144.5s115.667 -76.833 215 -107.5c68.667 -22 129 -46 181 -72s95.167 -55.167 129.5 -87.5s60.166 -68.333 77.499 -108s26 -83.834 26 -132.501z" />
    <glyph glyph-name="T" unicode="T" horiz-adv-x="1188" 
d="M693 1214v-1214h-196v1214h-425v146h1048v-146h-427z" />
    <glyph glyph-name="U" unicode="U" horiz-adv-x="1421" 
d="M1047 1360h196.003v-948c0 -69.333 -12.833 -130.666 -38.5 -183.999s-61.834 -98.5 -108.501 -135.5s-102.667 -65 -168 -84s-137.666 -28.5 -216.999 -28.5c-78.667 0 -150.334 9.5 -215.001 28.5s-120.167 47 -166.5 84s-82.333 82.167 -108 135.5
s-38.5 114.666 -38.5 183.999v948h196v-948c0 -46 8.16699 -86.833 24.5 -122.5s39.166 -65.5 68.499 -89.5s64.333 -42.333 105 -55s85.334 -19 134.001 -19c50 0 95.667 6.33301 137 19s76.666 31 105.999 55s52.166 53.833 68.499 89.5s24.5 76.5 24.5 122.5v948z" />
    <glyph glyph-name="V" unicode="V" horiz-adv-x="1314" 
d="M537 610l122 -398l123 394l263 754h201l-490 -1360h-196l-488 1360h201z" />
    <glyph glyph-name="W" unicode="W" horiz-adv-x="1842" 
d="M1555 1360h197l-305 -1360h-209l-312 1046l-319 -1046h-206l-307 1360h202l218 -1115l319 1115h182l317 -1119z" />
    <glyph glyph-name="X" unicode="X" 
d="M593 824l311 536h218l-409 -671l409 -689h-220l-309 548l-305 -548h-224l407 689l-407 671h220z" />
    <glyph glyph-name="Y" unicode="Y" 
d="M593 674l322 686h201l-427 -875v-485h-196v491l-421 869h201z" />
    <glyph glyph-name="Z" unicode="Z" horiz-adv-x="1243" 
d="M143 1360h943v-110l-726 -1104h794l-43 -146h-974v126l703 1088h-697v146z" />
    <glyph glyph-name="bracketleft" unicode="[" horiz-adv-x="771" 
d="M260 1524h361v-146h-165v-1532h165v-146h-361v1824z" />
    <glyph glyph-name="backslash" unicode="\" horiz-adv-x="864" 
d="M43 1360h196l564 -1500h-196z" />
    <glyph glyph-name="bracketright" unicode="]" horiz-adv-x="771" 
d="M511 1524v-1824h-360v146h164v1532h-164v146h360z" />
    <glyph glyph-name="asciicircum" unicode="^" horiz-adv-x="932" 
d="M273 708h-192l296 652h183l298 -652h-196l-195 449z" />
    <glyph glyph-name="underscore" unicode="_" horiz-adv-x="908" 
d="M-1 -234v146h909v-146h-909z" />
    <glyph glyph-name="grave" unicode="`" horiz-adv-x="620" 
d="M516 1152l-142 -40l-286 248l213 60z" />
    <glyph glyph-name="a" unicode="a" horiz-adv-x="1105" 
d="M746 598l-0.000976562 24.001c0 46.667 -4.16699 85.5 -12.5 116.5s-21.333 55.667 -39 74s-40.334 31.166 -68.001 38.499s-61.167 11 -100.5 11c-26 0 -52.833 -1.66699 -80.5 -5s-54.334 -8 -80.001 -14s-50 -12.667 -73 -20s-42.833 -15 -59.5 -23l-43 136
c22 12.667 47.167 24.167 75.5 34.5s58 19.166 89 26.499s62.667 13 95 17s63.833 6 94.5 6c60.667 0 115.5 -6 164.5 -18s90.833 -33 125.5 -63s61.334 -70.667 80.001 -122s28 -116.333 28 -195v-622h-151l-27 108c-13.333 -11.333 -31 -24.166 -53 -38.499
s-47.5 -28 -76.5 -41s-61.5 -24 -97.5 -33s-75 -13.5 -117 -13.5c-52 0 -97.833 8 -137.5 24s-72.667 37.667 -99 65s-46.166 59 -59.499 95s-20 74 -20 114c0 42.667 10.667 83.167 32 121.5s50.833 72 88.5 101s82.334 52.167 134.001 69.5s108.167 26 169.5 26h218z
M471.999 128.001c35.333 0 68.002 3.99512 98.002 11.9951s56.667 17.5 80 28.5s43.166 22.167 59.499 33.5s28.5 20 36.5 26v246h-194c-51.333 -0.666992 -93.333 -8.66699 -126 -24s-58.334 -33.666 -77.001 -54.999s-31.5 -43.166 -38.5 -65.499
s-10.5 -40.833 -10.5 -55.5c0 -23.333 4.33301 -44.166 13 -62.499s20.667 -33.666 36 -45.999s33.5 -21.666 54.5 -27.999s43.833 -9.5 68.5 -9.5z" />
    <glyph glyph-name="b" unicode="b" horiz-adv-x="1211" 
d="M175 1402h196.001v-493c18.667 17.333 37.5 32.833 56.5 46.5s39.833 25.334 62.5 35.001s48.167 17 76.5 22s60.833 7.5 97.5 7.5c64 0 121.833 -12.333 173.5 -37s95.667 -59.5 132 -104.5s64.5 -99.333 84.5 -163s30 -134.834 30 -213.501s-10 -150 -30 -214
s-48.167 -118.833 -84.5 -164.5s-80.333 -81 -132 -106s-109.5 -37.5 -173.5 -37.5c-38 0 -71.833 3 -101.5 9s-56.5 14.833 -80.5 26.5s-46.333 25.667 -67 42s-41.334 34.5 -62.001 54.5l-27 -112h-151v1402zM888.001 502c0 120.667 -22.833 212.835 -68.5 276.502
s-118.5 95.5 -218.5 95.5c-45.333 0 -87 -7.33301 -125 -22s-73 -33.334 -105 -56.001v-589c32 -22.667 67 -41.834 105 -57.501s79.667 -23.5 125 -23.5c100 0 172.833 32.333 218.5 97s68.5 157.667 68.5 279z" />
    <glyph glyph-name="c" unicode="c" horiz-adv-x="962" 
d="M115 502c0 78.667 11.334 149.832 34.001 213.499s55.334 118 98.001 163s94.5 79.833 155.5 104.5s129.833 37 206.5 37c63.333 0 118.166 -4.66699 164.499 -14s85.166 -22.666 116.499 -39.999l-55 -136l-37.5 16c-13 5.33301 -27.5 10 -43.5 14
s-34.167 7.33301 -54.5 10s-43.5 4 -69.5 4c-48 0 -91.5 -7.16699 -130.5 -21.5s-72.5 -36.666 -100.5 -66.999s-49.667 -69 -65 -116s-23 -102.833 -23 -167.5c0 -65.333 7.66699 -121.5 23 -168.5s37 -86 65 -117s61.5 -53.833 100.5 -68.5s82.5 -22 130.5 -22
c56 0 103 4.66699 141 14s71.667 20.666 101 33.999l49 -128c-32 -20 -72.167 -36 -120.5 -48s-105.166 -18 -170.499 -18c-80 0 -151.667 12.5 -215 37.5s-117.333 60.333 -162 106s-78.834 100.5 -102.501 164.5s-35.5 135.333 -35.5 214z" />
    <glyph glyph-name="d" unicode="d" horiz-adv-x="1187" 
d="M827 87c-18 -17.333 -36.501 -32.501 -55.501 -45.501s-39.833 -24.167 -62.5 -33.5s-48 -16.333 -76 -21s-60 -7 -96 -7c-63.333 0 -120.5 12.5 -171.5 37.5s-94.333 60.333 -130 106s-63.167 100.5 -82.5 164.5s-29 135.333 -29 214s9.66699 149.834 29 213.501
s46.833 118 82.5 163s79 79.833 130 104.5s108.167 37 171.5 37c33.333 0 63.333 -2.33301 90 -7s51.334 -11.167 74.001 -19.5s43.5 -18.833 62.5 -31.5s37.5 -27 55.5 -43v481h196v-1400h-173zM319.999 501.999c0 -60.667 5.16699 -114.332 15.5 -160.999
s26.666 -86 48.999 -118s51.333 -56.167 87 -72.5s78.834 -24.5 129.501 -24.5c43.333 0 83 6.66699 119 20s69 30.666 99 51.999v604c-30 21.333 -63 38.666 -99 51.999s-75.667 20 -119 20c-50.667 0 -93.834 -8 -129.501 -24s-64.667 -39.667 -87 -71
s-38.666 -70.166 -48.999 -116.499s-15.5 -99.833 -15.5 -160.5z" />
    <glyph glyph-name="e" unicode="e" horiz-adv-x="1111" 
d="M309 476c2.66699 -111.333 30.833 -197.499 84.5 -258.499s131.167 -91.5 232.5 -91.5c34 0 65.167 1.83301 93.5 5.5s54.166 8.16699 77.499 13.5s44.333 11.333 63 18s35.667 13 51 19l47 -128c-41.333 -23.333 -90.666 -41.5 -147.999 -54.5
s-118.666 -19.5 -183.999 -19.5c-81.333 0 -153.833 11.5 -217.5 34.5s-117.334 56.333 -161.001 100s-77 97.167 -100 160.5s-34.5 135.666 -34.5 216.999c0 83.333 11.167 157.833 33.5 223.5s54 121 95 166s90.5 79.333 148.5 103s123 35.5 195 35.5
c58.667 0 113.667 -9 165 -27s96 -44 134 -78s68 -75.667 90 -125s33 -105.333 33 -168v-146h-698zM584.999 874.001c-36 0 -68.833 -4 -98.5 -12s-56 -21.833 -79 -41.5s-42.167 -45.667 -57.5 -78s-26.333 -72.5 -33 -120.5h494c0 46 -6.33301 85 -19 117
s-29.5 58 -50.5 78s-45 34.5 -72 43.5s-55.167 13.5 -84.5 13.5z" />
    <glyph glyph-name="f" unicode="f" horiz-adv-x="771" 
d="M100 1000l123.997 0.00195312v62c0 70.667 8.16699 129 24.5 175s39.833 82.5 70.5 109.5s67.834 46 111.501 57s92.5 16.5 146.5 16.5c17.333 0 35 -0.833008 53 -2.5s35.667 -3.83398 53 -6.50098s33.833 -5.83398 49.5 -9.50098s29.5 -7.5 41.5 -11.5l-6 -136
c-10 2 -21.833 4.16699 -35.5 6.5s-28 4.5 -43 6.5s-30.5 3.66699 -46.5 5s-31.333 2 -46 2c-31.333 0 -58.166 -3.66699 -80.499 -11s-40.666 -19.5 -54.999 -36.5s-24.833 -39 -31.5 -66s-10 -59.833 -10 -98.5v-62h295v-146h-295v-854h-196v854h-143z" />
    <glyph glyph-name="g" unicode="g" horiz-adv-x="1190" 
d="M141 656c0 59.333 10.835 111.668 32.502 157.001s52 83.333 91 114s85.667 53.834 140 69.501s114.5 23.5 180.5 23.5c60 0 115.667 -6.66699 167 -20h370l-15 -128h-146c22 -28.667 38.833 -60.834 50.5 -96.501s17.5 -75.5 17.5 -119.5
c0 -57.333 -10.833 -108.5 -32.5 -153.5s-52 -83 -91 -114s-85.667 -54.833 -140 -71.5s-114.5 -25 -180.5 -25c-63.333 0 -122 7.66699 -176 23c-11.333 -12 -20 -25.833 -26 -41.5s-9 -34.167 -9 -55.5c0 -6 1 -13.333 3 -22s4.66699 -17.334 8 -26.001
s7.16602 -17 11.499 -25s8.5 -14.333 12.5 -19h296c64 0 120.333 -7.5 169 -22.5s89.167 -35.667 121.5 -62s56.333 -57.333 72 -93s22.834 -73.834 21.501 -114.501c-4 -45.333 -19 -87.333 -45 -126s-61.167 -72 -105.5 -100s-97 -50 -158 -66s-128.833 -24 -203.5 -24
c-38 0 -76.5 1.83301 -115.5 5.5s-76.667 9.83398 -113 18.501s-70.5 20 -102.5 34s-59.833 31.5 -83.5 52.5s-42.334 45.5 -56.001 73.5s-20.5 60.667 -20.5 98c0 50.667 13.667 96.667 41 138s71.666 77.333 132.999 108c-16 17.333 -30 37.333 -42 60s-18 48 -18 76
c0 40 9 74.333 27 103s42.333 54.667 73 78c-50 31.333 -89 71.5 -117 120.5s-42 106.5 -42 172.5zM337.002 656.002c0 -68 20.667 -121.333 62 -160s103.333 -58 186 -58s144.667 19.333 186 58s62 92 62 160c0 36.667 -6.16699 68.667 -18.5 96s-29.5 50 -51.5 68
s-48.167 31.5 -78.5 40.5s-63.5 13.5 -99.5 13.5s-69.167 -4.5 -99.5 -13.5s-56.5 -22.5 -78.5 -40.5s-39.167 -40.667 -51.5 -68s-18.5 -59.333 -18.5 -96zM386.002 -19.998c-17.333 -11.333 -32.3311 -22.4961 -44.998 -33.4961s-23.5 -23.333 -32.5 -37
s-15.667 -29 -20 -46s-6.5 -36.833 -6.5 -59.5c0 -20 5.16699 -37.333 15.5 -52s24 -27.167 41 -37.5s36.167 -18.833 57.5 -25.5s43 -11.834 65 -15.501s43.5 -6.16699 64.5 -7.5s39.5 -2 55.5 -2c47.333 0 90.166 4.16699 128.499 12.5s71.166 20 98.499 35
s48.333 32.667 63 53s22 42.166 22 65.499c0 21.333 -3 41.166 -9 59.499s-17.167 34.166 -33.5 47.499s-39 23.833 -68 31.5s-66.5 11.5 -112.5 11.5h-284z" />
    <glyph glyph-name="h" unicode="h" horiz-adv-x="1205" 
d="M175 1400l195.998 0.00195312v-491c48 35.333 99.167 62.666 153.5 81.999s113.833 29 178.5 29c50 0 95.333 -6 136 -18s75.334 -32.167 104.001 -60.5s50.834 -66 66.501 -113s23.5 -105.833 23.5 -176.5v-652h-196v652c0 79.333 -14 136.166 -42 170.499
s-73.667 51.5 -137 51.5c-56.667 0 -108.5 -10.333 -155.5 -31s-90.833 -47.667 -131.5 -81v-762h-196v1400z" />
    <glyph glyph-name="i" unicode="i" horiz-adv-x="585" 
d="M196 1000h196v-1000h-196v1000zM186 1402h215v-176h-215v176z" />
    <glyph glyph-name="j" unicode="j" horiz-adv-x="612" 
d="M-70 -280c8.66699 -2 19.499 -4.00098 32.499 -6.00098s26.667 -4 41 -6s29 -3.5 44 -4.5s29.167 -1.5 42.5 -1.5c27.333 0 50.833 3.83301 70.5 11.5s35.667 20.334 48 38.001s21.5 41 27.5 70s9 65.167 9 108.5v1070h196v-1070c0 -74.667 -8 -136.167 -24 -184.5
s-38.5 -86.5 -67.5 -114.5s-64 -47.5 -105 -58.5s-86.5 -16.5 -136.5 -16.5c-16.667 0 -34.167 0.5 -52.5 1.5s-36.166 2.5 -53.499 4.5s-34 4.66699 -50 8s-30 7.33301 -42 12zM232.999 1402h217v-176h-217v176z" />
    <glyph glyph-name="k" unicode="k" horiz-adv-x="1074" 
d="M509 442h-138v-442h-196v1400h196v-812h135l280 412h219l-335 -474h-2l369 -526h-226z" />
    <glyph glyph-name="l" unicode="l" horiz-adv-x="586" 
d="M196 1400h196v-1400h-196v1400z" />
    <glyph glyph-name="m" unicode="m" horiz-adv-x="1836" 
d="M175 1000l172.999 -0.00195312l11 -83c49.333 32.667 102.333 58 159 76s118.334 27 185.001 27c64.667 0 121 -7.83301 169 -23.5s86 -43.834 114 -84.501c48.667 34 101.334 60.5 158.001 79.5s119.334 28.5 188.001 28.5c50 0 95.333 -5.66699 136 -17
s75.5 -30.5 104.5 -57.5s51.333 -62.667 67 -107s23.5 -99.833 23.5 -166.5v-672h-196v672c0 72 -14.333 123.667 -43 155s-74.334 47 -137.001 47c-50 0 -96.333 -8.16699 -139 -24.5s-82.334 -38.166 -119.001 -65.499c1.33301 -9.33301 2.33301 -19.166 3 -29.499
s1 -21.166 1 -32.499v-722h-196v722c0 56 -14.167 95.333 -42.5 118s-73.833 34 -136.5 34c-56.667 0 -108.5 -10.333 -155.5 -31s-90.833 -47.667 -131.5 -81v-762h-196v1000z" />
    <glyph glyph-name="n" unicode="n" horiz-adv-x="1205" 
d="M175 1000h172.997l16 -95c48.667 36 100.834 64.167 156.501 84.5s116.5 30.5 182.5 30.5c50 0 95.333 -5.5 136 -16.5s75.334 -30 104.001 -57s50.834 -63.5 66.501 -109.5s23.5 -104.333 23.5 -175v-662h-196v662c0 39.333 -3.5 72.5 -10.5 99.5
s-17.667 48.833 -32 65.5s-32.833 28.667 -55.5 36s-49.667 11 -81 11c-56.667 0 -108.5 -10.667 -155.5 -32s-90.833 -48 -131.5 -80v-762h-196v1000z" />
    <glyph glyph-name="o" unicode="o" horiz-adv-x="1190" 
d="M113 500c0 80.667 11.667 153 35 217s56.166 118.5 98.499 163.5s93.166 79.5 152.499 103.5s125.333 36 198 36c72 0 138 -12 198 -36s111.333 -58.5 154 -103.5s75.834 -99.5 99.501 -163.5s35.5 -136.333 35.5 -217c0 -81.333 -11.833 -154 -35.5 -218
s-56.834 -118.5 -99.501 -163.5s-94 -79.333 -154 -103s-126 -35.5 -198 -35.5c-72.667 0 -138.667 11.833 -198 35.5s-110.166 58 -152.499 103s-75.166 99.5 -98.499 163.5s-35 136.667 -35 218zM309 500c0 -65.333 7 -121.666 21 -168.999s33.667 -86.166 59 -116.499
s55.666 -52.666 90.999 -66.999s74.333 -21.5 117 -21.5s81.834 7.16699 117.501 21.5s66.334 36.666 92.001 66.999s45.667 69.166 60 116.499s21.5 103.666 21.5 168.999s-7.16699 121.666 -21.5 168.999s-34.333 86.166 -60 116.499s-56.334 52.666 -92.001 66.999
s-74.834 21.5 -117.501 21.5s-81.667 -7.16699 -117 -21.5s-65.666 -36.666 -90.999 -66.999s-45 -69.166 -59 -116.499s-21 -103.666 -21 -168.999z" />
    <glyph glyph-name="p" unicode="p" horiz-adv-x="1194" 
d="M175 1000h173.003l15 -98c19.333 18.667 38.666 35.334 57.999 50.001s40.666 27 63.999 37s49.5 17.667 78.5 23s62.5 8 100.5 8c64 0 121.833 -12.333 173.5 -37s95.667 -59.5 132 -104.5s64.5 -99.333 84.5 -163s30 -134.834 30 -213.501s-10 -150 -30 -214
s-48.167 -118.833 -84.5 -164.5s-80.333 -81 -132 -106s-109.5 -37.5 -173.5 -37.5c-35.333 0 -67 2.5 -95 7.5s-53.5 12.167 -76.5 21.5s-44.333 21 -64 35s-38.834 29.667 -57.501 47v-491h-196v1400zM888.003 502c0 120.667 -22.833 212.834 -68.5 276.501
s-118.5 95.5 -218.5 95.5c-45.333 0 -87 -7.33301 -125 -22s-73 -33.334 -105 -56.001v-593c32 -22 67 -40.333 105 -55s79.667 -22 125 -22c100 0 172.833 32.333 218.5 97s68.5 157.667 68.5 279z" />
    <glyph glyph-name="q" unicode="q" horiz-adv-x="1187" 
d="M819 80c-17.333 -16 -35.334 -30.1689 -54.001 -42.502s-39 -22.666 -61 -30.999s-46.667 -14.833 -74 -19.5s-58.333 -7 -93 -7c-63.333 0 -120.5 12.5 -171.5 37.5s-94.333 60.333 -130 106s-63.167 100.5 -82.5 164.5s-29 135.333 -29 214s9.66699 149.834 29 213.501
s46.833 118 82.5 163s79 79.833 130 104.5s108.167 37 171.5 37c36 0 68 -2.66699 96 -8s53.833 -12.833 77.5 -22.5s45.334 -21.667 65.001 -36s39.167 -30.5 58.5 -48.5l28 95h153v-1400h-196v480zM319.999 501.998c0 -60.667 5.16699 -114.332 15.5 -160.999
s26.666 -86 48.999 -118s51.333 -56.167 87 -72.5s78.834 -24.5 129.501 -24.5c43.333 0 83 6.66699 119 20s69 30.666 99 51.999v604c-30 21.333 -63 38.666 -99 51.999s-75.667 20 -119 20c-50.667 0 -93.834 -8 -129.501 -24s-64.667 -39.667 -87 -71
s-38.666 -70.166 -48.999 -116.499s-15.5 -99.833 -15.5 -160.5z" />
    <glyph glyph-name="r" unicode="r" horiz-adv-x="762" 
d="M175 1000h172.999l16 -140c40 58.667 82.667 100 128 124s94 36 146 36c13.333 0 27.5 -0.333008 42.5 -1s29.167 -1.66699 42.5 -3l-18 -170c-17.333 3.33301 -34.666 5.5 -51.999 6.5s-36.666 1.5 -57.999 1.5c-44.667 0 -85.334 -13.333 -122.001 -40
s-70.667 -61 -102 -103v-711h-196v1000z" />
    <glyph glyph-name="s" unicode="s" horiz-adv-x="972" 
d="M864 278c0 -45.333 -8.83887 -86.333 -26.5059 -123s-43 -68 -76 -94s-73.167 -46 -120.5 -60s-100.666 -21 -159.999 -21c-35.333 0 -70.666 1.83301 -105.999 5.5s-69.166 8.83398 -101.499 15.501s-62.666 14.834 -90.999 24.501s-53.166 20.5 -74.499 32.5l37 140
l76.5 -28c24.333 -8.66699 49.5 -16.334 75.5 -23.001s53.667 -11.834 83 -15.501s62.333 -5.5 99 -5.5c66.667 0 114.834 12.833 144.501 38.5s44.5 61.5 44.5 107.5c0 20.667 -5.33301 39.167 -16 55.5s-25.834 31.166 -45.501 44.499s-43.5 25.333 -71.5 36
s-59.333 20.667 -94 30c-46 12 -88.667 27 -128 45s-73.333 39 -102 63s-51.167 51.333 -67.5 82s-24.5 64.667 -24.5 102c0 45.333 8.83301 86 26.5 122s43.334 66.5 77.001 91.5s74.5 44 122.5 57s102 19.5 162 19.5c72.667 0 137 -6.66699 193 -20s100.333 -28 133 -44
l-36 -137l-67 21c-20.667 6.66699 -41.834 12.5 -63.501 17.5s-45 9 -70 12s-53.5 4.5 -85.5 4.5c-66.667 0 -116 -12 -148 -36s-48 -56.667 -48 -98c0 -20 3.5 -38 10.5 -54s18.333 -30.667 34 -44s36.334 -25.5 62.001 -36.5s57.5 -21.5 95.5 -31.5
c59.333 -15.333 110.833 -32.666 154.5 -51.999s79.667 -41 108 -65s49.5 -50.667 63.5 -80s21 -62.333 21 -99z" />
    <glyph glyph-name="t" unicode="t" horiz-adv-x="813" 
d="M81 1000l143.001 0.000976562v260l196 20v-280h295v-146h-295v-534c0 -33.333 2.66699 -61.666 8 -84.999s13.833 -42.166 25.5 -56.499s26.667 -24.666 45 -30.999s40.166 -9.5 65.499 -9.5c16 0 32.5 0.666992 49.5 2s33.667 3 50 5s31.666 4.16699 45.999 6.5
s26.5 4.5 36.5 6.5l6 -136c-12.667 -4 -27.167 -7.83301 -43.5 -11.5s-33.666 -6.83398 -51.999 -9.50098s-37.166 -4.83398 -56.499 -6.50098s-38 -2.5 -56 -2.5c-50 0 -94.667 4.66699 -134 14s-72.833 26.166 -100.5 50.499s-48.834 57.666 -63.501 99.999
s-22 96.833 -22 163.5v534h-167z" />
    <glyph glyph-name="u" unicode="u" horiz-adv-x="1205" 
d="M1033 0l-172.997 0.000976562l-17 127c-48 -46 -99.833 -82 -155.5 -108s-115.834 -39 -180.501 -39c-50.667 0 -96.334 6 -137.001 18s-75.5 33 -104.5 63s-51.333 70.667 -67 122s-23.5 116.333 -23.5 195v622h196v-622c0 -47.333 3.5 -87 10.5 -119
s17.833 -57.833 32.5 -77.5s33.167 -33.834 55.5 -42.501s49.166 -13 80.499 -13c56.667 0 108.667 10.5 156 31.5s91 48.167 131 81.5v761h196v-1000z" />
    <glyph glyph-name="v" unicode="v" horiz-adv-x="1017" 
d="M43 1000h202l187 -554l78 -264l83 266l184 552h199l-377 -1000h-176z" />
    <glyph glyph-name="w" unicode="w" horiz-adv-x="1523" 
d="M1269 1000h190l-273 -1000h-161l-261 721l-263 -721h-158l-275 1000h190l166 -776l275 776h132l271 -771z" />
    <glyph glyph-name="x" unicode="x" horiz-adv-x="1062" 
d="M292 0h-213l355 507l-350 493h212l237 -360l237 360h208l-348 -492l360 -508h-216l-242 368z" />
    <glyph glyph-name="y" unicode="y" horiz-adv-x="1052" 
d="M788 1000l201.997 0.000976562l-384 -1066c-22 -67.333 -44.167 -123.166 -66.5 -167.499s-46.833 -79.833 -73.5 -106.5s-56.167 -45.334 -88.5 -56.001s-69.5 -16 -111.5 -16c-22 0 -43.667 1.66699 -65 5s-40.666 7.66602 -57.999 12.999l19 136
c11.333 0 24.333 -1.33301 39 -4s30 -4 46 -4c22 0 41 3 57 9s30.833 16.833 44.5 32.5s27.334 37.167 41.001 64.5s28.834 62.333 45.501 105l-371 1055h202l256 -799z" />
    <glyph glyph-name="z" unicode="z" horiz-adv-x="1036" 
d="M117 1000h782v-120l-565 -734h619l-42 -146h-803v136l542 718h-533v146z" />
    <glyph glyph-name="braceleft" unicode="{" horiz-adv-x="724" 
d="M79 654c27.333 0 52.333 3.3291 75 9.99609s42.167 18.834 58.5 36.501s29 41.834 38 72.501s13.5 69.667 13.5 117v220c0 72.667 6 136 18 190s31.333 99 58 135s61.334 62.833 104.001 80.5s94.334 26.5 155.001 26.5l20 -100
c-57.333 0 -98.166 -27.167 -122.499 -81.5s-36.5 -137.833 -36.5 -250.5v-220c0 -45.333 -5 -84.833 -15 -118.5s-24 -62.5 -42 -86.5s-40 -43.5 -66 -58.5s-55 -26.5 -87 -34.5c32 -8 61 -19.5 87 -34.5s48 -34.5 66 -58.5s32 -52.833 42 -86.5s15 -73.167 15 -118.5v-260
c0 -113.333 12.167 -197 36.5 -251s65.166 -81 122.499 -81l-20 -100c-60.667 0 -112.334 8.83301 -155.001 26.5s-77.334 44.5 -104.001 80.5s-46 81 -58 135s-18 117.333 -18 190v260c0 47.333 -4.5 86.333 -13.5 117s-21.667 54.834 -38 72.501
s-35.833 29.834 -58.5 36.501s-47.667 10 -75 10v124z" />
    <glyph glyph-name="bar" unicode="|" horiz-adv-x="411" 
d="M108 1524h196v-1824h-196v1824z" />
    <glyph glyph-name="braceright" unicode="}" horiz-adv-x="724" 
d="M652 490c-28 0 -53.5 -3.3291 -76.5 -9.99609s-42.833 -18.834 -59.5 -36.501s-29.5 -41.834 -38.5 -72.501s-13.5 -69.667 -13.5 -117v-220c0 -72.667 -6.16699 -136 -18.5 -190s-31.666 -99 -57.999 -135s-60.5 -62.833 -102.5 -80.5s-93 -26.5 -153 -26.5l-24 100
c58 0 99.167 27 123.5 81s36.5 137.667 36.5 251v220c0 45.333 5 84.833 15 118.5s24.167 62.5 42.5 86.5s40.5 43.5 66.5 58.5s55 26.5 87 34.5c-32 8 -61 19.5 -87 34.5s-48.167 34.5 -66.5 58.5s-32.5 52.833 -42.5 86.5s-15 73.167 -15 118.5v260
c0 112.667 -12.167 196.167 -36.5 250.5s-65.5 81.5 -123.5 81.5l24 100c60 0 111 -8.83301 153 -26.5s76.167 -44.5 102.5 -80.5s45.666 -81 57.999 -135s18.5 -117.333 18.5 -190v-260c0 -47.333 4.5 -86.333 13.5 -117s21.833 -54.834 38.5 -72.501
s36.5 -29.834 59.5 -36.501s48.5 -10 76.5 -10v-124z" />
    <glyph glyph-name="asciitilde" unicode="~" horiz-adv-x="1408" 
d="M652 452c-36.667 28 -71.1729 50.832 -103.506 68.499s-66.5 27.5 -102.5 29.5c-15.333 0.666992 -31.5 -1.66602 -48.5 -6.99902s-34 -15 -51 -29s-33.167 -33.333 -48.5 -58s-28.666 -56 -39.999 -94l-151 77c12 52.667 30.5 97 55.5 133s53 65 84 87
s63.333 37.667 97 47s64.834 14 93.501 14c36.667 0 69.167 -3.16699 97.5 -9.5s54.833 -15 79.5 -26s48.334 -24.167 71.001 -39.5l72 -51c38 -27.333 73.333 -49.666 106 -66.999s66.334 -27 101.001 -29c16 -1.33301 32.833 0.5 50.5 5.5s34.834 14.5 51.501 28.5
s32.5 33.333 47.5 58s27.833 56 38.5 94l155 -77c-12 -52.667 -30.667 -96.834 -56 -132.501s-53.666 -64.5 -84.999 -86.5s-63.833 -37.833 -97.5 -47.5s-64.5 -14.5 -92.5 -14.5c-36.667 0 -69.334 3.16699 -98.001 9.5s-55.5 15 -80.5 26s-49.167 24.167 -72.5 39.5
s-47.666 32.333 -72.999 51z" />
    <glyph glyph-name="exclamdown" unicode="&#xa1;" horiz-adv-x="585" 
d="M401.012 -399.914h-197.987v997.938h197.987v-997.938zM401.012 844.01h-197.987v155.99h197.987v-155.99z" />
    <glyph glyph-name="cent" unicode="&#xa2;" 
d="M153 502c0 70.667 9.33301 135.668 28 195.001s45.667 111 81 155s78.5 79.833 129.5 107.5s108.5 45.834 172.5 54.501v172h148v-168c91.333 -6 163.333 -23.333 216 -52l-55 -136l-37.5 16c-13 5.33301 -27.5 10 -43.5 14s-34.167 7.33301 -54.5 10s-43.5 4 -69.5 4
c-48 0 -91.5 -7.16699 -130.5 -21.5s-72.5 -36.666 -100.5 -66.999s-49.667 -69 -65 -116s-23 -102.833 -23 -167.5c0 -65.333 7.66699 -121.5 23 -168.5s37 -86 65 -117s61.5 -53.833 100.5 -68.5s82.5 -22 130.5 -22c56 0 103 4.66699 141 14s71.667 20.666 101 33.999
l49 -128c-28 -18 -62.667 -32.667 -104 -44s-89 -18.333 -143 -21v-201h-148v208c-64 10 -121.5 29.5 -172.5 58.5s-94.167 65.667 -129.5 110s-62.333 95.666 -81 153.999s-28 122.166 -28 191.499z" />
    <glyph glyph-name="sterling" unicode="&#xa3;" horiz-adv-x="1146" 
d="M137 752l171.999 0.00195312v242c0 70 9 129.5 27 178.5s45 88.833 81 119.5s81 53 135 67s117 21 189 21c21.333 0 43.5 -0.833008 66.5 -2.5s45.667 -3.83398 68 -6.50098s43.666 -5.83398 63.999 -9.50098s38.833 -7.5 55.5 -11.5l-2 -138
c-14 2.66699 -30.667 5.33398 -50 8.00098s-39.5 5 -60.5 7s-42.667 3.66699 -65 5s-43.5 2 -63.5 2c-45.333 0 -83.666 -4.66699 -114.999 -14s-57 -24 -77 -44s-34.5 -46.167 -43.5 -78.5s-13.5 -71.5 -13.5 -117.5v-228h365v-146h-365v-200
c0 -61.333 -10.5 -112.333 -31.5 -153s-51.833 -76.334 -92.5 -107.001h693v-146h-970v146h6l-4 2c34.667 0 64.834 7.33301 90.501 22s47 34.5 64 59.5s29.5 54 37.5 87s11.667 68.167 11 105.5v184h-203z" />
    <glyph glyph-name="currency" unicode="&#xa4;" horiz-adv-x="1398" 
d="M364 969c45.333 29.333 95.3369 51.833 150.004 67.5s113.667 23.5 177 23.5s122.333 -7.83301 177 -23.5s104.667 -38.167 150 -67.5l160 145l124 -108l-162 -147c36 -46 63.833 -97.5 83.5 -154.5s29.5 -118.5 29.5 -184.5c0 -68 -10.333 -131.167 -31 -189.5
s-50 -110.5 -88 -156.5l166 -150l-122 -106l-165 149c-44.667 -28 -93.834 -49.5 -147.501 -64.5s-111.834 -22.5 -174.501 -22.5s-120.834 7.66699 -174.501 23s-102.834 37 -147.501 65l-164 -150l-121 106l165 149c-38 46 -67.333 98.333 -88 157s-31 122 -31 190
c0 66.667 9.83301 128.667 29.5 186s48.167 109 85.5 155l-161 145l121 108zM691.004 126c57.333 0 109.5 8.83301 156.5 26.5s87.167 43.5 120.5 77.5s59.166 75.333 77.499 124s27.5 104 27.5 166c0 61.333 -9.16699 116.333 -27.5 165s-44.166 90 -77.499 124
s-73.5 60 -120.5 78s-99.167 27 -156.5 27s-109.333 -9 -156 -27s-86.834 -44 -120.501 -78s-59.667 -75.333 -78 -124s-27.5 -103.667 -27.5 -165c0 -62 9.16699 -117.333 27.5 -166s44.333 -90 78 -124s73.834 -59.833 120.501 -77.5s98.667 -26.5 156 -26.5z" />
    <glyph glyph-name="yen" unicode="&#xa5;" 
d="M605 674l322 686h201l-339 -694h247v-146h-318l-17 -35v-95h335v-146h-335v-244h-196v244h-320v146h320v101l-14 29h-306v146h235l-336 694h201z" />
    <glyph glyph-name="brokenbar" unicode="&#xa6;" horiz-adv-x="411" 
d="M108 524h197v-824h-197v824zM305 758h-197v766h197v-766z" />
    <glyph glyph-name="section" unicode="&#xa7;" horiz-adv-x="1190" 
d="M1026 -100c0 -56.667 -10.3291 -107.503 -30.9961 -152.503s-49.834 -83.167 -87.501 -114.5s-83.167 -55.333 -136.5 -72s-113 -25 -179 -25c-40 0 -78.833 2.66699 -116.5 8s-73.667 12 -108 20s-66.333 17 -96 27s-56.5 19.667 -80.5 29l21 138l87 -29
c28.667 -9.33301 58 -17.5 88 -24.5s61.333 -12.5 94 -16.5s67.667 -6 105 -6c36 0 69 4.5 99 13.5s55.833 22.333 77.5 40s38.334 39.667 50.001 66s17.5 57.166 17.5 92.499c0 32 -9 60.167 -27 84.5s-43 46.5 -75 66.5s-70 38.167 -114 54.5s-92 32.5 -144 48.5
c-67.333 20.667 -124.833 43.334 -172.5 68.001s-86.834 52.334 -117.501 83.001s-53.167 64.5 -67.5 101.5s-21.5 78.167 -21.5 123.5c0 64.667 14.5 120.334 43.5 167.001s69.5 85.667 121.5 117c-30 28 -53.167 59.167 -69.5 93.5s-24.5 72.5 -24.5 114.5
c0 57.333 10.333 108.833 31 154.5s50.5 84.334 89.5 116.001s86.5 55.834 142.5 72.501s119.667 25 191 25c40.667 0 80 -2.66699 118 -8s73.333 -12 106 -20s62.167 -16.833 88.5 -26.5s48.166 -18.834 65.499 -27.501l-34 -142l-78 28
c-25.333 9.33301 -51.5 17.666 -78.5 24.999s-55.333 13.333 -85 18s-62.5 7 -98.5 7c-87.333 0 -152.833 -18.667 -196.5 -56s-65.5 -89.333 -65.5 -156c0 -26.667 5.66699 -51.5 17 -74.5s29.5 -44.833 54.5 -65.5s57.667 -40.5 98 -59.5s89.833 -37.833 148.5 -56.5
c73.333 -23.333 136.166 -48.333 188.499 -75s95.166 -56.167 128.499 -88.5s57.833 -68.166 73.5 -107.499s23.5 -83 23.5 -131c0 -60.667 -12.667 -113.834 -38 -159.501s-60.333 -84.5 -105 -116.5c26 -27.333 45.667 -56.666 59 -87.999s20 -66 20 -104z
M584.004 633.997c-37.333 12.667 -73 25.833 -107 39.5s-66.333 28.834 -97 45.501c-32.667 -19.333 -58 -44 -76 -74s-27 -65.667 -27 -107c0 -25.333 4.83301 -49.833 14.5 -73.5s25.334 -46.334 47.001 -68.001s49.5 -41.667 83.5 -60s75.667 -34.5 125 -48.5
c54.667 -15.333 104.667 -31.5 150 -48.5s86.666 -35.5 123.999 -55.5c26 19.333 46.5 43 61.5 71s22.5 61 22.5 99c0 32.667 -5 61.667 -15 87s-27.333 49 -52 71s-57.5 42.667 -98.5 62s-92.833 39.333 -155.5 60z" />
    <glyph glyph-name="dieresis" unicode="&#xa8;" horiz-adv-x="966" 
d="M132 1402h216v-176h-216v176zM619 1402h218v-176h-218v176z" />
    <glyph glyph-name="copyright" unicode="&#xa9;" horiz-adv-x="1755" 
d="M497 670c0 60.667 8.50195 115.334 25.502 164.001s41.667 90.167 74 124.5s72.166 60.833 119.499 79.5s101.333 28 162 28c58.667 0 107.5 -5.83301 146.5 -17.5s72.5 -26.5 100.5 -44.5l-32 -110c-12 6 -24.333 11.667 -37 17s-26.834 10.166 -42.501 14.499
s-33.834 7.83301 -54.501 10.5s-45 4 -73 4c-36 0 -68.5 -5.16699 -97.5 -15.5s-53.833 -26.5 -74.5 -48.5s-36.5 -50 -47.5 -84s-16.5 -74.667 -16.5 -122s5.66699 -88.333 17 -123s27.5 -63.167 48.5 -85.5s46.333 -38.833 76 -49.5s62.5 -16 98.5 -16
c29.333 0 55.5 1.33301 78.5 4s43.833 6.5 62.5 11.5s35.834 10.5 51.501 16.5s31.167 12.667 46.5 20l34 -104c-30 -20 -65.167 -37.333 -105.5 -52s-90.5 -22 -150.5 -22c-65.333 0 -123.333 9.5 -174 28.5s-93.5 46 -128.5 81s-61.667 77 -80 126
s-27.5 103.833 -27.5 164.5zM878.002 1380c102 0 196.833 -16.333 284.5 -49s163.667 -79.334 228 -140.001s114.666 -134.167 150.999 -220.5s54.5 -183.166 54.5 -290.499s-18.167 -204.166 -54.5 -290.499s-86.666 -159.833 -150.999 -220.5
s-140.333 -107.334 -228 -140.001s-182.5 -49 -284.5 -49s-196.833 16.333 -284.5 49s-163.667 79.334 -228 140.001s-114.833 134.167 -151.5 220.5s-55 183.166 -55 290.499s18.333 204.166 55 290.499s87.167 159.833 151.5 220.5s140.333 107.334 228 140.001
s182.5 49 284.5 49zM878.002 86c81.333 0 158 12 230 36s134.833 60.5 188.5 109.5s96 110.667 127 185s46.5 162.166 46.5 263.499c0 100.667 -15.5 188.5 -46.5 263.5s-73.333 137 -127 186s-116.5 85.667 -188.5 110s-148.667 36.5 -230 36.5
c-82 0 -158.667 -12.167 -230 -36.5s-133.666 -61 -186.999 -110s-95.333 -111 -126 -186s-46 -162.833 -46 -263.5c0 -101.333 15.333 -189.166 46 -263.499s72.667 -136 126 -185s115.666 -85.5 186.999 -109.5s148 -36 230 -36z" />
    <glyph glyph-name="ordfeminine" unicode="&#xaa;" horiz-adv-x="856" 
d="M544 1080l-0.000976562 20c0 29.333 -3 54 -9 74s-15 36 -27 48s-26.833 20.667 -44.5 26s-37.834 8 -60.501 8c-20 0 -40.833 -1.33301 -62.5 -4s-42.834 -6 -63.501 -10s-40.5 -8.83301 -59.5 -14.5s-36.167 -11.5 -51.5 -17.5l-36 108
c18.667 8.66699 39.334 16.834 62.001 24.501s46.667 14.334 72 20.001s51.166 10 77.499 13s52.5 4.5 78.5 4.5c43.333 0 82.833 -4.33301 118.5 -13s66.334 -23.5 92.001 -44.5s45.5 -49.667 59.5 -86s21 -81.833 21 -136.5v-432h-143l-14 75
c-12.667 -10 -27 -20.333 -43 -31s-33.667 -20.167 -53 -28.5s-40.166 -15.333 -62.499 -21s-45.5 -8.5 -69.5 -8.5c-42 0 -78.5 5.66699 -109.5 17s-56.667 26.5 -77 45.5s-35.5 41.167 -45.5 66.5s-15 52.333 -15 81c0 30 7.83301 58.167 23.5 84.5
s37.834 49.166 66.501 68.499s63 34.666 103 45.999s84.333 17 133 17h139zM368.999 774c16 0 32.167 2.16699 48.5 6.5s32 9.83301 47 16.5s29.333 14 43 22s25.834 15.667 36.501 23v130h-123c-36.667 0 -66.334 -4.16699 -89.001 -12.5s-40.5 -18.333 -53.5 -30
s-21.833 -24 -26.5 -37s-7 -23.833 -7 -32.5c0 -28 12 -49.333 36 -64s53.333 -22 88 -22z" />
    <glyph glyph-name="guillemotleft" unicode="&#xab;" horiz-adv-x="1101" 
d="M566 152l-110 -110l-348 386v84l348 406l110 -110l-249 -336zM1012 152l-110 -110l-348 386v84l348 406l110 -110l-249 -336z" />
    <glyph glyph-name="logicalnot" unicode="&#xac;" horiz-adv-x="1214" 
d="M108 594v146h982v-390h-179v244h-803z" />
    <glyph glyph-name="uni00AD" unicode="&#xad;" horiz-adv-x="1105" 
d="M55 586v146h981v-146h-981z" />
    <glyph glyph-name="registered" unicode="&#xae;" horiz-adv-x="1755" 
d="M878 1380c102 0 196.833 -16.333 284.5 -49s163.667 -79.334 228 -140.001s114.666 -134.167 150.999 -220.5s54.5 -183.166 54.5 -290.499s-18.167 -204.166 -54.5 -290.499s-86.666 -159.833 -150.999 -220.5s-140.333 -107.334 -228 -140.001s-182.5 -49 -284.5 -49
s-196.833 16.333 -284.5 49s-163.667 79.334 -228 140.001s-114.833 134.167 -151.5 220.5s-55 183.166 -55 290.499s18.333 204.166 55 290.499s87.167 159.833 151.5 220.5s140.333 107.334 228 140.001s182.5 49 284.5 49zM878 86c81.333 0 158 12 230 36
s134.833 60.5 188.5 109.5s96 110.667 127 185s46.5 162.166 46.5 263.499c0 100.667 -15.5 188.5 -46.5 263.5s-73.333 137 -127 186s-116.5 85.667 -188.5 110s-148.667 36.5 -230 36.5c-82 0 -158.667 -12.167 -230 -36.5s-133.666 -61 -186.999 -110
s-95.333 -111 -126 -186s-46 -162.833 -46 -263.5c0 -101.333 15.333 -189.166 46 -263.499s72.667 -136 126 -185s115.666 -85.5 186.999 -109.5s148 -36 230 -36zM607 1054h293c41.333 0 79.5 -4.5 114.5 -13.5s65 -22.833 90 -41.5s44.5 -42.5 58.5 -71.5
s21 -63.5 21 -103.5c0 -44 -13.5 -81.667 -40.5 -113s-61.167 -56 -102.5 -74l164 -305h-149l-143 276h-167v-276h-139v722zM746 938v-221.999h189c11.333 2 23.166 5.33301 35.499 10s23.833 11 34.5 19s19.334 18.167 26.001 30.5s10 27.166 10 44.499
c0 43.333 -13.667 73.833 -41 91.5s-66 26.5 -116 26.5h-138z" />
    <glyph glyph-name="macron" unicode="&#xaf;" horiz-adv-x="987" 
d="M108 1402h772v-146h-772v146z" />
    <glyph glyph-name="degree" unicode="&#xb0;" horiz-adv-x="706" 
d="M352 1376c34.667 0 67 -6 97 -18s56.333 -28.167 79 -48.5s40.5 -44.333 53.5 -72s19.5 -56.834 19.5 -87.501c0 -31.333 -6.5 -60.5 -19.5 -87.5s-30.833 -50.667 -53.5 -71s-49 -36.333 -79 -48s-62.333 -17.5 -97 -17.5c-34 0 -65.833 5.83301 -95.5 17.5
s-55.5 27.667 -77.5 48s-39.333 44 -52 71s-19 56.167 -19 87.5c0 30.667 6.33301 59.834 19 87.501s30 51.667 52 72s47.833 36.5 77.5 48.5s61.5 18 95.5 18zM352 1032c18.667 0 36 3.16699 52 9.5s29.833 14.833 41.5 25.5s20.834 23.167 27.501 37.5s10 29.5 10 45.5
c0 16.667 -3.33301 32.167 -10 46.5s-15.834 26.833 -27.501 37.5s-25.5 19 -41.5 25s-33.333 9 -52 9c-17.333 0 -33.666 -3 -48.999 -9s-28.833 -14.333 -40.5 -25s-21 -23.167 -28 -37.5s-10.5 -29.833 -10.5 -46.5c0 -16 3.5 -31.167 10.5 -45.5
s16.333 -26.833 28 -37.5s25.167 -19.167 40.5 -25.5s31.666 -9.5 48.999 -9.5z" />
    <glyph glyph-name="plusminus" unicode="&#xb1;" horiz-adv-x="1066" 
d="M454 634h-346v146h346v316h161v-316h345v-146h-345v-318h-161v318zM96 -1v143h852v-143h-852z" />
    <glyph glyph-name="twosuperior" unicode="&#xb2;" horiz-adv-x="773" 
d="M664 774l0.00195312 -106.001h-553v46c0 40.667 5 76.667 15 108s25.667 59.5 47 84.5s49.166 48 83.499 69s75.833 41.833 124.5 62.5c26 10.667 47.5 21.5 64.5 32.5s30.5 22 40.5 33s17 22.5 21 34.5s6 24.667 6 38c0 30 -12 53.167 -36 69.5s-59.333 24.5 -106 24.5
c-22 0 -42.833 -1.66699 -62.5 -5s-38.5 -7.83301 -56.5 -13.5s-36 -12.167 -54 -19.5s-36.333 -15.333 -55 -24l-37 94c14.667 8 31.667 16.5 51 25.5s40.5 17.5 63.5 25.5s47.833 14.5 74.5 19.5s54.667 7.5 84 7.5c87.333 0 154.333 -17.5 201 -52.5
s70 -84.833 70 -149.5c0 -27.333 -5.66699 -52.166 -17 -74.499s-26.5 -42.5 -45.5 -60.5s-41.333 -34.5 -67 -49.5s-52.834 -28.833 -81.501 -41.5c-26.667 -12.667 -50.667 -25.167 -72 -37.5s-40 -25.5 -56 -39.5s-29 -29.167 -39 -45.5s-16.667 -34.833 -20 -55.5h412z
" />
    <glyph glyph-name="threesuperior" unicode="&#xb3;" horiz-adv-x="704" 
d="M595 1178c0 -75.333 -39.332 -127.331 -117.999 -155.998c45.333 -14 79.666 -35 102.999 -63s35 -62.333 35 -103c0 -62 -25 -111.833 -75 -149.5s-125.667 -56.5 -227 -56.5c-43.333 0 -87 4.16699 -131 12.5s-83.333 21.5 -118 39.5l32 90
c34 -11.333 66.833 -20.833 98.5 -28.5s67.167 -11.5 106.5 -11.5c54 0 97.5 8.66699 130.5 26s49.5 44.666 49.5 81.999c0 38 -14.833 65.833 -44.5 83.5s-70.834 26.5 -123.501 26.5h-145v104h145c45.333 0 80.5 7.83301 105.5 23.5s37.5 41.167 37.5 76.5
c0 37.333 -13.833 63.666 -41.5 78.999s-65.5 23 -113.5 23c-37.333 0 -70.666 -3.66699 -99.999 -11s-60.333 -17 -93 -29l-33 88c14.667 8.66699 32.167 16.5 52.5 23.5s41.333 13 63 18s43 8.66699 64 11s39.833 3.5 56.5 3.5c94.667 0 165.667 -18 213 -54
s71 -85.333 71 -148z" />
    <glyph glyph-name="acute" unicode="&#xb4;" horiz-adv-x="620" 
d="M345 1420l213 -60l-285 -248l-141 40z" />
    <glyph glyph-name="mu" unicode="&#xb5;" horiz-adv-x="1209" 
d="M379 298c0.666992 -32 5.33398 -59 14.001 -81s21.5 -39.667 38.5 -53s38.5 -23 64.5 -29s56.667 -9 92 -9c48.667 0 94 9.33301 136 28s82 43.667 120 75v771h196v-1000h-176l-13 108c-42 -40 -87.167 -71.333 -135.5 -94s-99.5 -34 -153.5 -34
c-36 0 -69.333 2.66699 -100 8s-58.334 14 -83.001 26v-414h-196v1400h196v-702z" />
    <glyph glyph-name="mu" unicode="&#x3bc;" horiz-adv-x="1209" 
d="M379 298c0.666992 -32 5.33398 -59 14.001 -81s21.5 -39.667 38.5 -53s38.5 -23 64.5 -29s56.667 -9 92 -9c48.667 0 94 9.33301 136 28s82 43.667 120 75v771h196v-1000h-176l-13 108c-42 -40 -87.167 -71.333 -135.5 -94s-99.5 -34 -153.5 -34
c-36 0 -69.333 2.66699 -100 8s-58.334 14 -83.001 26v-414h-196v1400h196v-702z" />
    <glyph glyph-name="paragraph" unicode="&#xb6;" horiz-adv-x="1043" 
d="M879 0h-196v520h-53c-82.667 0 -156.334 10 -221.001 30s-119.334 48.5 -164.001 85.5s-78.667 81.5 -102 133.5s-35 109.667 -35 173s11.667 120.833 35 172.5s57.333 95.667 102 132s99.334 64.333 164.001 84s138.334 29.5 221.001 29.5h249v-1360z" />
    <glyph glyph-name="periodcentered" unicode="&#xb7;" horiz-adv-x="438" 
d="M108 196h225v-196h-225v196z" />
    <glyph glyph-name="cedilla" unicode="&#xb8;" horiz-adv-x="612" 
d="M499 20c23.333 -44 35.001 -89.333 35.001 -136c0 -35.333 -7.33301 -69 -22 -101s-36.5 -60 -65.5 -84s-65.167 -43.167 -108.5 -57.5s-94 -21.5 -152 -21.5l-35 110c71.333 7.33301 124.166 25 158.499 53s51.5 63 51.5 105c0 39.333 -14.667 83.333 -44 132h182z" />
    <glyph glyph-name="onesuperior" unicode="&#xb9;" horiz-adv-x="502" 
d="M83 668v96h119v486l-130 -36v100l179 62h86v-612h113v-96h-367z" />
    <glyph glyph-name="ordmasculine" unicode="&#xba;" horiz-adv-x="848" 
d="M84 1018c0 56 7.83301 106.333 23.5 151s38.167 82.667 67.5 114s64.833 55.333 106.5 72s88.167 25 139.5 25c52.667 0 100.5 -8.33301 143.5 -25s79.667 -40.667 110 -72s53.833 -69.333 70.5 -114s25 -95 25 -151c0 -56.667 -8.33301 -107.334 -25 -152.001
s-40.167 -82.5 -70.5 -113.5s-67 -54.833 -110 -71.5s-90.833 -25 -143.5 -25c-51.333 0 -97.833 8.33301 -139.5 25s-77.167 40.5 -106.5 71.5s-51.833 68.833 -67.5 113.5s-23.5 95.334 -23.5 152.001zM249 1018c0 -41.333 4.33301 -77 13 -107s20.667 -54.667 36 -74
s33.5 -33.666 54.5 -42.999s43.833 -14 68.5 -14c27.333 0 52.333 4.66699 75 14s42 23.666 58 42.999s28.5 44 37.5 74s13.5 65.667 13.5 107c0 42 -4.5 78.167 -13.5 108.5s-21.5 55.166 -37.5 74.499s-35.333 33.666 -58 42.999s-47.667 14 -75 14
c-24.667 0 -47.5 -4.66699 -68.5 -14s-39.167 -23.666 -54.5 -42.999s-27.333 -44.166 -36 -74.499s-13 -66.5 -13 -108.5z" />
    <glyph glyph-name="guillemotright" unicode="&#xbb;" horiz-adv-x="1103" 
d="M88 808l108 110l348 -386v-84l-348 -406l-108 110l248 336zM536 808l108 110l348 -386v-84l-348 -406l-108 110l248 336z" />
    <glyph glyph-name="onequarter" unicode="&#xbc;" horiz-adv-x="1431" 
d="M121 672v96h119v486l-130 -36v100l179 62h86v-612h113v-96h-367zM1111 1360h157l-916 -1360h-159zM1285 149v-146h-133v146h-405v76l396 486h142v-464h95v-98h-95zM1152 247v318l-258 -318h258z" />
    <glyph glyph-name="onehalf" unicode="&#xbd;" horiz-adv-x="1555" 
d="M1441 105l0.00195312 -106.001h-553v46c0 40.667 5 76.667 15 108s25.667 59.5 47 84.5s49.166 48 83.499 69s75.833 41.833 124.5 62.5c26 10.667 47.5 21.5 64.5 32.5s30.5 22 40.5 33s17 22.5 21 34.5s6 24.667 6 38c0 30 -12 53.167 -36 69.5s-59.333 24.5 -106 24.5
c-22 0 -42.833 -1.66699 -62.5 -5s-38.5 -7.83301 -56.5 -13.5s-36 -12.167 -54 -19.5s-36.333 -15.333 -55 -24l-37 94c14.667 8 31.667 16.5 51 25.5s40.5 17.5 63.5 25.5s47.833 14.5 74.5 19.5s54.667 7.5 84 7.5c87.333 0 154.333 -17.5 201 -52.5
s70 -84.833 70 -149.5c0 -27.333 -5.66699 -52.166 -17 -74.499s-26.5 -42.5 -45.5 -60.5s-41.333 -34.5 -67 -49.5s-52.834 -28.833 -81.501 -41.5c-26.667 -12.667 -50.667 -25.167 -72 -37.5s-40 -25.5 -56 -39.5s-29 -29.167 -39 -45.5s-16.667 -34.833 -20 -55.5h412z
M121.002 667.999v96h119v486l-130 -36v100l179 62h86v-612h113v-96h-367zM1132 1360h157l-916 -1360h-159z" />
    <glyph glyph-name="threequarters" unicode="&#xbe;" horiz-adv-x="1433" 
d="M595 1178c0 -75.333 -39.332 -127.331 -117.999 -155.998c45.333 -14 79.666 -35 102.999 -63s35 -62.333 35 -103c0 -62 -25 -111.833 -75 -149.5s-125.667 -56.5 -227 -56.5c-43.333 0 -87 4.16699 -131 12.5s-83.333 21.5 -118 39.5l32 90
c34 -11.333 66.833 -20.833 98.5 -28.5s67.167 -11.5 106.5 -11.5c54 0 97.5 8.66699 130.5 26s49.5 44.666 49.5 81.999c0 38 -14.833 65.833 -44.5 83.5s-70.834 26.5 -123.501 26.5h-145v104h145c45.333 0 80.5 7.83301 105.5 23.5s37.5 41.167 37.5 76.5
c0 37.333 -13.833 63.666 -41.5 78.999s-65.5 23 -113.5 23c-37.333 0 -70.666 -3.66699 -99.999 -11s-60.333 -17 -93 -29l-33 88c14.667 8.66699 32.167 16.5 52.5 23.5s41.333 13 63 18s43 8.66699 64 11s39.833 3.5 56.5 3.5c94.667 0 165.667 -18 213 -54
s71 -85.333 71 -148zM1163 1360h157l-916 -1360h-159zM1290 149.002v-146h-133v146h-405v76l396 486h142v-464h95v-98h-95zM1157 247.002v318l-258 -318h258z" />
    <glyph glyph-name="questiondown" unicode="&#xbf;" horiz-adv-x="983" 
d="M655.021 638.022c0 -51.3311 -3.16699 -96.4951 -9.5 -135.492s-16.332 -73.9951 -29.998 -104.993s-31.332 -59.1631 -52.9971 -84.4951s-48.1631 -50.3301 -79.4941 -74.9951c-30.665 -23.332 -57.6631 -45.4971 -80.9951 -66.4961s-42.8311 -41.998 -58.4961 -62.9971
c-15.666 -20.999 -27.499 -42.6641 -35.498 -64.9961s-11.999 -46.8311 -11.999 -73.4961c0 -29.3311 5.83301 -56.4961 17.499 -81.4941c11.666 -24.999 27.998 -46.498 48.9971 -64.4971s46.4971 -31.998 76.4951 -41.9971s63.3291 -14.999 99.9941 -14.999
c33.9971 0 65.6621 3 94.9941 8.99902c29.3311 6 57.3291 14 83.9941 23.999s52.4971 21.498 77.4961 34.4971c24.998 12.999 49.8301 26.8311 74.4951 41.4961l50.9971 -126.992c-20.665 -14.665 -44.8301 -29.4971 -72.4951 -44.4961s-58.6631 -28.8311 -92.9941 -41.4961
c-34.3311 -12.666 -71.6621 -22.999 -111.993 -30.998c-40.3311 -8 -83.4951 -12 -129.492 -12c-64.6631 0 -122.659 8.16602 -173.989 24.499c-51.3301 16.332 -94.8271 39.6641 -130.492 69.9951c-35.6641 30.332 -62.8291 67.1631 -81.4951 110.494
c-18.665 43.3301 -27.998 92.3271 -27.998 146.99c0 47.3311 9.49902 89.6621 28.498 126.993s42.8311 71.3291 71.4961 101.994s60.1631 58.9971 94.4941 84.9961l97.4941 75.9951c16.665 14.665 30.3311 30.3311 40.9971 46.9971
c10.666 16.665 18.999 35.8301 24.999 57.4951c5.99902 21.665 10.165 46.4971 12.498 74.4961c2.33301 27.998 3.5 60.3291 3.5 96.9941h180.988zM664.021 824.011h-194.988v175.989h194.988v-175.989z" />
    <glyph glyph-name="Agrave" unicode="&#xc0;" horiz-adv-x="1335" 
d="M950 346h-562l-120 -346h-196l496 1360h200l499 -1360h-196zM439 492h460l-230 658zM764 1512l-142 -40l-286 248l213 60z" />
    <glyph glyph-name="Aacute" unicode="&#xc1;" horiz-adv-x="1335" 
d="M950 346h-562l-120 -346h-196l496 1360h200l499 -1360h-196zM439 492h460l-230 658zM797 1782l213 -60l-285 -248l-141 40z" />
    <glyph glyph-name="Acircumflex" unicode="&#xc2;" horiz-adv-x="1335" 
d="M950 346h-562l-120 -346h-196l496 1360h200l499 -1360h-196zM439 492h460l-230 658zM543 1472h-208l298 232h123l295 -232h-205l-152 117z" />
    <glyph glyph-name="Atilde" unicode="&#xc3;" horiz-adv-x="1335" 
d="M950 346h-562l-120 -346h-196l496 1360h200l499 -1360h-196zM439 492h460l-230 658zM818 1618c9.33301 0 19.665 1.83301 30.998 5.5s22.5 9.5 33.5 17.5s21.5 18 31.5 30s18.667 26.333 26 43l104 -80c-10.667 -24 -23.667 -45.333 -39 -64s-31.666 -34.667 -48.999 -48
s-35.5 -24 -54.5 -32s-37.5 -13.333 -55.5 -16c-7.33301 -1.33301 -14.5 -2.33301 -21.5 -3s-13.833 -1 -20.5 -1c-36 0 -68.5 7.66699 -97.5 23s-56.167 32.333 -81.5 51c-21.333 15.333 -41.166 26.833 -59.499 34.5s-33.166 10.834 -44.499 9.50098
c-10 -0.666992 -19.667 -2.16699 -29 -4.5s-18.833 -6.83301 -28.5 -13.5s-19.834 -16 -30.501 -28s-22 -27.333 -34 -46l-105 74c10 23.333 22.833 44.333 38.5 63s32.5 34.667 50.5 48s36.5 24.333 55.5 33s37.167 14.667 54.5 18c12 2 23.333 3 34 3
c37.333 0 71.166 -7.83301 101.499 -23.5s58.833 -32.834 85.5 -51.501c19.333 -16 38.333 -27 57 -33s34.334 -9 47.001 -9z" />
    <glyph glyph-name="Adieresis" unicode="&#xc4;" horiz-adv-x="1335" 
d="M950 346h-562l-120 -346h-196l496 1360h200l499 -1360h-196zM439 492h460l-230 658zM344 1648h216v-176h-216v176zM831 1648h218v-176h-218v176z" />
    <glyph glyph-name="Aring" unicode="&#xc5;" horiz-adv-x="1335" 
d="M950 346h-562l-120 -346h-196l496 1360h200l499 -1360h-196zM439 492h460l-230 658zM668 1860c29.333 0 56.833 -5.16699 82.5 -15.5s48.167 -24.333 67.5 -42s34.5 -38.167 45.5 -61.5s16.5 -48.333 16.5 -75c0 -27.333 -5.5 -52.666 -16.5 -75.999
s-26.167 -43.833 -45.5 -61.5s-41.833 -31.5 -67.5 -41.5s-53.167 -15 -82.5 -15s-56.833 5 -82.5 15s-48 23.833 -67 41.5s-34.167 38.167 -45.5 61.5s-17 48.666 -17 75.999c0 26.667 5.66699 51.667 17 75s26.5 43.833 45.5 61.5s41.333 31.667 67 42
s53.167 15.5 82.5 15.5zM668 1588c24.667 0 45 7.66699 61 23s24 33.666 24 54.999c0 22 -8 40.5 -24 55.5s-36.333 22.5 -61 22.5c-22.667 0 -42.5 -7.5 -59.5 -22.5s-25.5 -33.5 -25.5 -55.5c0 -21.333 8.5 -39.666 25.5 -54.999s36.833 -23 59.5 -23z" />
    <glyph glyph-name="AE" unicode="&#xc6;" horiz-adv-x="1951" 
d="M1041 346h-493l-222 -346h-218l882 1360h852v-146h-605v-444h540v-146h-540v-478h605v-146h-801v346zM1041 492v622l-400 -622h400z" />
    <glyph glyph-name="Ccedilla" unicode="&#xc7;" horiz-adv-x="1122" 
d="M121 682c0 105.333 14.5049 201.002 43.5049 287.002s70.5 159.5 124.5 220.5s119.5 108 196.5 141s163.833 49.5 260.5 49.5c34 0 64.833 -1.83301 92.5 -5.5s53 -8.5 76 -14.5s44.167 -13 63.5 -21s37.666 -16.333 54.999 -25l-55 -130
c-32.667 15.333 -67.834 27.5 -105.501 36.5s-79.834 13.5 -126.501 13.5c-64 0 -122.333 -10.667 -175 -32s-97.834 -54.5 -135.501 -99.5s-66.834 -102.167 -87.501 -171.5s-31 -152.333 -31 -249s10.833 -180 32.5 -250s52.167 -127.667 91.5 -173
s86.666 -78.833 141.999 -100.5s117 -32.5 185 -32.5c28.667 0 55.167 1.83301 79.5 5.5s46.833 8.5 67.5 14.5s39.667 12.5 57 19.5s33.333 13.833 48 20.5l42 -128c-35.333 -22 -78.166 -40.5 -128.499 -55.5s-112.833 -22.5 -187.5 -22.5
c-96.667 0 -183.5 16.833 -260.5 50.5s-142.5 81.167 -196.5 142.5s-95.5 135.166 -124.5 221.499s-43.5 182.166 -43.5 287.499zM814.005 20.002c23.333 -44 35.001 -89.333 35.001 -136c0 -35.333 -7.33301 -69 -22 -101s-36.5 -60 -65.5 -84
s-65.167 -43.167 -108.5 -57.5s-94 -21.5 -152 -21.5l-35 110c71.333 7.33301 124.166 25 158.499 53s51.5 63 51.5 105c0 39.333 -14.667 83.333 -44 132h182z" />
    <glyph glyph-name="Egrave" unicode="&#xc8;" horiz-adv-x="1074" 
d="M183 0v1360h801v-146h-605v-444h540v-146h-540v-478h605v-146h-801zM676 1510l-142 -40l-286 248l213 60z" />
    <glyph glyph-name="Eacute" unicode="&#xc9;" horiz-adv-x="1074" 
d="M183 0v1360h801v-146h-605v-444h540v-146h-540v-478h605v-146h-801zM709 1780l213 -60l-285 -248l-141 40z" />
    <glyph glyph-name="Ecircumflex" unicode="&#xca;" horiz-adv-x="1074" 
d="M183 0v1360h801v-146h-605v-444h540v-146h-540v-478h605v-146h-801zM455 1470h-208l298 232h123l295 -232h-205l-152 117z" />
    <glyph glyph-name="Edieresis" unicode="&#xcb;" horiz-adv-x="1074" 
d="M183 0v1360h801v-146h-605v-444h540v-146h-540v-478h605v-146h-801zM256 1646h216v-176h-216v176zM743 1646h218v-176h-218v176z" />
    <glyph glyph-name="Igrave" unicode="&#xcc;" horiz-adv-x="840" 
d="M137 0v146h185v1068h-185v146h568v-146h-187v-1068h187v-146h-568zM516 1510l-142 -40l-286 248l213 60z" />
    <glyph glyph-name="Iacute" unicode="&#xcd;" horiz-adv-x="840" 
d="M137 0v146h185v1068h-185v146h568v-146h-187v-1068h187v-146h-568zM549 1780l213 -60l-285 -248l-141 40z" />
    <glyph glyph-name="Icircumflex" unicode="&#xce;" horiz-adv-x="840" 
d="M137 0v146h185v1068h-185v146h568v-146h-187v-1068h187v-146h-568zM296 1470h-208l298 232h123l295 -232h-205l-152 117z" />
    <glyph glyph-name="Idieresis" unicode="&#xcf;" horiz-adv-x="840" 
d="M137 0v146h185v1068h-185v146h568v-146h-187v-1068h187v-146h-568zM97 1646h216v-176h-216v176zM584 1646h218v-176h-218v176z" />
    <glyph glyph-name="Eth" unicode="&#xd0;" horiz-adv-x="1421" 
d="M242 630l-134 0.00292969v146h134v584h420c99.333 0 189.166 -16.167 269.499 -48.5s148.666 -78 204.999 -137s99.833 -130.167 130.5 -213.5s46 -176.333 46 -279s-15.333 -195.834 -46 -279.501s-74.167 -155.334 -130.5 -215.001
s-124.666 -105.834 -204.999 -138.501s-170.166 -49 -269.499 -49h-420v630zM438 630.003v-483.999h202c70.667 0 135.334 10.5 194.001 31.5s109 53.333 151 97s74.5 99.167 97.5 166.5s34.5 147.666 34.5 240.999c0 92.667 -11.5 172.667 -34.5 240
s-55.5 122.5 -97.5 165.5s-92.333 74.833 -151 95.5s-123.334 31 -194.001 31h-202v-438h281v-146h-281z" />
    <glyph glyph-name="Ntilde" unicode="&#xd1;" horiz-adv-x="1455" 
d="M182 1360h196v-1l1 1l701 -1056v1056h196v-1360h-196l-702 1058v-1058h-196v1360zM865 1616c9.33301 0 19.665 1.83301 30.998 5.5s22.5 9.5 33.5 17.5s21.5 18 31.5 30s18.667 26.333 26 43l104 -80c-10.667 -24 -23.667 -45.333 -39 -64s-31.666 -34.667 -48.999 -48
s-35.5 -24 -54.5 -32s-37.5 -13.333 -55.5 -16c-7.33301 -1.33301 -14.5 -2.33301 -21.5 -3s-13.833 -1 -20.5 -1c-36 0 -68.5 7.66699 -97.5 23s-56.167 32.333 -81.5 51c-21.333 15.333 -41.166 26.833 -59.499 34.5s-33.166 10.834 -44.499 9.50098
c-10 -0.666992 -19.667 -2.16699 -29 -4.5s-18.833 -6.83301 -28.5 -13.5s-19.834 -16 -30.501 -28s-22 -27.333 -34 -46l-105 74c10 23.333 22.833 44.333 38.5 63s32.5 34.667 50.5 48s36.5 24.333 55.5 33s37.167 14.667 54.5 18c12 2 23.333 3 34 3
c37.333 0 71.166 -7.83301 101.499 -23.5s58.833 -32.834 85.5 -51.501c19.333 -16 38.333 -27 57 -33s34.334 -9 47.001 -9z" />
    <glyph glyph-name="Ograve" unicode="&#xd2;" horiz-adv-x="1408" 
d="M111 680c0 107.333 14.5 204.166 43.5 290.499s69.5 159.833 121.5 220.5s114.333 107.334 187 140.001s152.667 49 240 49c86.667 0 166.5 -16.333 239.5 -49s135.667 -79.334 188 -140.001s93.166 -134.167 122.499 -220.5s44 -183.166 44 -290.499
c0 -108 -14.667 -205.167 -44 -291.5s-70.166 -159.833 -122.499 -220.5s-115 -107.167 -188 -139.5s-152.833 -48.5 -239.5 -48.5c-87.333 0 -167.333 16.167 -240 48.5s-135 78.833 -187 139.5s-92.5 134.167 -121.5 220.5s-43.5 183.5 -43.5 291.5zM307 680
c0 -92.667 9.66699 -173.667 29 -243s46.5 -127 81.5 -173s76.833 -80.5 125.5 -103.5s102 -34.5 160 -34.5c58.667 0 112.5 11.5 161.5 34.5s91 57.5 126 103.5s62.167 103.667 81.5 173s29 150.333 29 243s-9.66699 173.667 -29 243s-46.5 127 -81.5 173
s-77 80.5 -126 103.5s-102.833 34.5 -161.5 34.5c-58 0 -111.333 -11.5 -160 -34.5s-90.5 -57.5 -125.5 -103.5s-62.167 -103.667 -81.5 -173s-29 -150.333 -29 -243zM794 1528l-142 -40l-286 248l213 60z" />
    <glyph glyph-name="Oacute" unicode="&#xd3;" horiz-adv-x="1408" 
d="M111 680c0 107.333 14.5 204.166 43.5 290.499s69.5 159.833 121.5 220.5s114.333 107.334 187 140.001s152.667 49 240 49c86.667 0 166.5 -16.333 239.5 -49s135.667 -79.334 188 -140.001s93.166 -134.167 122.499 -220.5s44 -183.166 44 -290.499
c0 -108 -14.667 -205.167 -44 -291.5s-70.166 -159.833 -122.499 -220.5s-115 -107.167 -188 -139.5s-152.833 -48.5 -239.5 -48.5c-87.333 0 -167.333 16.167 -240 48.5s-135 78.833 -187 139.5s-92.5 134.167 -121.5 220.5s-43.5 183.5 -43.5 291.5zM307 680
c0 -92.667 9.66699 -173.667 29 -243s46.5 -127 81.5 -173s76.833 -80.5 125.5 -103.5s102 -34.5 160 -34.5c58.667 0 112.5 11.5 161.5 34.5s91 57.5 126 103.5s62.167 103.667 81.5 173s29 150.333 29 243s-9.66699 173.667 -29 243s-46.5 127 -81.5 173
s-77 80.5 -126 103.5s-102.833 34.5 -161.5 34.5c-58 0 -111.333 -11.5 -160 -34.5s-90.5 -57.5 -125.5 -103.5s-62.167 -103.667 -81.5 -173s-29 -150.333 -29 -243zM827 1798l213 -60l-285 -248l-141 40z" />
    <glyph glyph-name="Ocircumflex" unicode="&#xd4;" horiz-adv-x="1408" 
d="M111 680c0 107.333 14.5 204.166 43.5 290.499s69.5 159.833 121.5 220.5s114.333 107.334 187 140.001s152.667 49 240 49c86.667 0 166.5 -16.333 239.5 -49s135.667 -79.334 188 -140.001s93.166 -134.167 122.499 -220.5s44 -183.166 44 -290.499
c0 -108 -14.667 -205.167 -44 -291.5s-70.166 -159.833 -122.499 -220.5s-115 -107.167 -188 -139.5s-152.833 -48.5 -239.5 -48.5c-87.333 0 -167.333 16.167 -240 48.5s-135 78.833 -187 139.5s-92.5 134.167 -121.5 220.5s-43.5 183.5 -43.5 291.5zM307 680
c0 -92.667 9.66699 -173.667 29 -243s46.5 -127 81.5 -173s76.833 -80.5 125.5 -103.5s102 -34.5 160 -34.5c58.667 0 112.5 11.5 161.5 34.5s91 57.5 126 103.5s62.167 103.667 81.5 173s29 150.333 29 243s-9.66699 173.667 -29 243s-46.5 127 -81.5 173
s-77 80.5 -126 103.5s-102.833 34.5 -161.5 34.5c-58 0 -111.333 -11.5 -160 -34.5s-90.5 -57.5 -125.5 -103.5s-62.167 -103.667 -81.5 -173s-29 -150.333 -29 -243zM573 1488h-208l298 232h123l295 -232h-205l-152 117z" />
    <glyph glyph-name="Otilde" unicode="&#xd5;" horiz-adv-x="1408" 
d="M111 680c0 107.333 14.5 204.166 43.5 290.499s69.5 159.833 121.5 220.5s114.333 107.334 187 140.001s152.667 49 240 49c86.667 0 166.5 -16.333 239.5 -49s135.667 -79.334 188 -140.001s93.166 -134.167 122.499 -220.5s44 -183.166 44 -290.499
c0 -108 -14.667 -205.167 -44 -291.5s-70.166 -159.833 -122.499 -220.5s-115 -107.167 -188 -139.5s-152.833 -48.5 -239.5 -48.5c-87.333 0 -167.333 16.167 -240 48.5s-135 78.833 -187 139.5s-92.5 134.167 -121.5 220.5s-43.5 183.5 -43.5 291.5zM307 680
c0 -92.667 9.66699 -173.667 29 -243s46.5 -127 81.5 -173s76.833 -80.5 125.5 -103.5s102 -34.5 160 -34.5c58.667 0 112.5 11.5 161.5 34.5s91 57.5 126 103.5s62.167 103.667 81.5 173s29 150.333 29 243s-9.66699 173.667 -29 243s-46.5 127 -81.5 173
s-77 80.5 -126 103.5s-102.833 34.5 -161.5 34.5c-58 0 -111.333 -11.5 -160 -34.5s-90.5 -57.5 -125.5 -103.5s-62.167 -103.667 -81.5 -173s-29 -150.333 -29 -243zM848 1634c9.33301 0 19.665 1.83301 30.998 5.5s22.5 9.5 33.5 17.5s21.5 18 31.5 30
s18.667 26.333 26 43l104 -80c-10.667 -24 -23.667 -45.333 -39 -64s-31.666 -34.667 -48.999 -48s-35.5 -24 -54.5 -32s-37.5 -13.333 -55.5 -16c-7.33301 -1.33301 -14.5 -2.33301 -21.5 -3s-13.833 -1 -20.5 -1c-36 0 -68.5 7.66699 -97.5 23s-56.167 32.333 -81.5 51
c-21.333 15.333 -41.166 26.833 -59.499 34.5s-33.166 10.834 -44.499 9.50098c-10 -0.666992 -19.667 -2.16699 -29 -4.5s-18.833 -6.83301 -28.5 -13.5s-19.834 -16 -30.501 -28s-22 -27.333 -34 -46l-105 74c10 23.333 22.833 44.333 38.5 63s32.5 34.667 50.5 48
s36.5 24.333 55.5 33s37.167 14.667 54.5 18c12 2 23.333 3 34 3c37.333 0 71.166 -7.83301 101.499 -23.5s58.833 -32.834 85.5 -51.501c19.333 -16 38.333 -27 57 -33s34.334 -9 47.001 -9z" />
    <glyph glyph-name="Odieresis" unicode="&#xd6;" horiz-adv-x="1408" 
d="M111 680c0 107.333 14.5 204.166 43.5 290.499s69.5 159.833 121.5 220.5s114.333 107.334 187 140.001s152.667 49 240 49c86.667 0 166.5 -16.333 239.5 -49s135.667 -79.334 188 -140.001s93.166 -134.167 122.499 -220.5s44 -183.166 44 -290.499
c0 -108 -14.667 -205.167 -44 -291.5s-70.166 -159.833 -122.499 -220.5s-115 -107.167 -188 -139.5s-152.833 -48.5 -239.5 -48.5c-87.333 0 -167.333 16.167 -240 48.5s-135 78.833 -187 139.5s-92.5 134.167 -121.5 220.5s-43.5 183.5 -43.5 291.5zM307 680
c0 -92.667 9.66699 -173.667 29 -243s46.5 -127 81.5 -173s76.833 -80.5 125.5 -103.5s102 -34.5 160 -34.5c58.667 0 112.5 11.5 161.5 34.5s91 57.5 126 103.5s62.167 103.667 81.5 173s29 150.333 29 243s-9.66699 173.667 -29 243s-46.5 127 -81.5 173
s-77 80.5 -126 103.5s-102.833 34.5 -161.5 34.5c-58 0 -111.333 -11.5 -160 -34.5s-90.5 -57.5 -125.5 -103.5s-62.167 -103.667 -81.5 -173s-29 -150.333 -29 -243zM374 1664h216v-176h-216v176zM861 1664h218v-176h-218v176z" />
    <glyph glyph-name="multiply" unicode="&#xd7;" horiz-adv-x="1054" 
d="M222 1042l307 -281l306 281l113 -104l-306 -280l306 -280l-113 -104l-306 280l-307 -280l-114 102l308 282l-308 282z" />
    <glyph glyph-name="Oslash" unicode="&#xd8;" horiz-adv-x="1380" 
d="M98 680c0 107.333 14.499 204.166 43.499 290.499s69.5 159.833 121.5 220.5s114.333 107.334 187 140.001s152.667 49 240 49c64.667 0 125.334 -9 182.001 -27s108.667 -44.333 156 -79l60 86h166l-126 -182c49.333 -60.667 87.666 -132.834 114.999 -216.501
s41 -177.5 41 -281.5c0 -108 -14.667 -205.167 -44 -291.5s-70.166 -159.833 -122.499 -220.5s-115 -107.167 -188 -139.5s-152.833 -48.5 -239.5 -48.5c-62.667 0 -121.5 8.33301 -176.5 25s-105.5 41 -151.5 73l-55 -79h-164l118 171
c-52 60.667 -92.167 133.834 -120.5 219.501s-42.5 182.5 -42.5 290.5zM293.999 680c0 -74.667 6.33203 -141.666 18.999 -200.999s30.667 -111.333 54 -156l569 818c-33.333 31.333 -70.666 54.666 -111.999 69.999s-86 23 -134 23c-58 0 -111.333 -11.5 -160 -34.5
s-90.5 -57.5 -125.5 -103.5s-62.167 -103.667 -81.5 -173s-29 -150.333 -29 -243zM1088 680.001c0 71.333 -5.83301 135.667 -17.5 193s-28.167 108 -49.5 152l-567 -815c32 -28 67.833 -49 107.5 -63s82.5 -21 128.5 -21c58.667 0 112.5 11.5 161.5 34.5s91 57.5 126 103.5
s62.167 103.667 81.5 173s29 150.333 29 243z" />
    <glyph glyph-name="Ugrave" unicode="&#xd9;" horiz-adv-x="1421" 
d="M1047 1360h196.003v-948c0 -69.333 -12.833 -130.666 -38.5 -183.999s-61.834 -98.5 -108.501 -135.5s-102.667 -65 -168 -84s-137.666 -28.5 -216.999 -28.5c-78.667 0 -150.334 9.5 -215.001 28.5s-120.167 47 -166.5 84s-82.333 82.167 -108 135.5
s-38.5 114.666 -38.5 183.999v948h196v-948c0 -46 8.16699 -86.833 24.5 -122.5s39.166 -65.5 68.499 -89.5s64.333 -42.333 105 -55s85.334 -19 134.001 -19c50 0 95.667 6.33301 137 19s76.666 31 105.999 55s52.166 53.833 68.499 89.5s24.5 76.5 24.5 122.5v948z
M805.003 1510l-142 -40l-286 248l213 60z" />
    <glyph glyph-name="Uacute" unicode="&#xda;" horiz-adv-x="1421" 
d="M1047 1360h196.003v-948c0 -69.333 -12.833 -130.666 -38.5 -183.999s-61.834 -98.5 -108.501 -135.5s-102.667 -65 -168 -84s-137.666 -28.5 -216.999 -28.5c-78.667 0 -150.334 9.5 -215.001 28.5s-120.167 47 -166.5 84s-82.333 82.167 -108 135.5
s-38.5 114.666 -38.5 183.999v948h196v-948c0 -46 8.16699 -86.833 24.5 -122.5s39.166 -65.5 68.499 -89.5s64.333 -42.333 105 -55s85.334 -19 134.001 -19c50 0 95.667 6.33301 137 19s76.666 31 105.999 55s52.166 53.833 68.499 89.5s24.5 76.5 24.5 122.5v948z
M838.003 1780l213 -60l-285 -248l-141 40z" />
    <glyph glyph-name="Ucircumflex" unicode="&#xdb;" horiz-adv-x="1421" 
d="M1047 1360h196.003v-948c0 -69.333 -12.833 -130.666 -38.5 -183.999s-61.834 -98.5 -108.501 -135.5s-102.667 -65 -168 -84s-137.666 -28.5 -216.999 -28.5c-78.667 0 -150.334 9.5 -215.001 28.5s-120.167 47 -166.5 84s-82.333 82.167 -108 135.5
s-38.5 114.666 -38.5 183.999v948h196v-948c0 -46 8.16699 -86.833 24.5 -122.5s39.166 -65.5 68.499 -89.5s64.333 -42.333 105 -55s85.334 -19 134.001 -19c50 0 95.667 6.33301 137 19s76.666 31 105.999 55s52.166 53.833 68.499 89.5s24.5 76.5 24.5 122.5v948z
M584.003 1470h-208l298 232h123l295 -232h-205l-152 117z" />
    <glyph glyph-name="Udieresis" unicode="&#xdc;" horiz-adv-x="1421" 
d="M1047 1360h196.003v-948c0 -69.333 -12.833 -130.666 -38.5 -183.999s-61.834 -98.5 -108.501 -135.5s-102.667 -65 -168 -84s-137.666 -28.5 -216.999 -28.5c-78.667 0 -150.334 9.5 -215.001 28.5s-120.167 47 -166.5 84s-82.333 82.167 -108 135.5
s-38.5 114.666 -38.5 183.999v948h196v-948c0 -46 8.16699 -86.833 24.5 -122.5s39.166 -65.5 68.499 -89.5s64.333 -42.333 105 -55s85.334 -19 134.001 -19c50 0 95.667 6.33301 137 19s76.666 31 105.999 55s52.166 53.833 68.499 89.5s24.5 76.5 24.5 122.5v948z
M385.003 1646h216v-176h-216v176zM872.003 1646h218v-176h-218v176z" />
    <glyph glyph-name="Yacute" unicode="&#xdd;" 
d="M593 674l322 686h201l-427 -875v-485h-196v491l-421 869h201zM719 1780l213 -60l-285 -248l-141 40z" />
    <glyph glyph-name="Thorn" unicode="&#xde;" horiz-adv-x="1181" 
d="M175 1360l196 -0.000976562v-300h269c76.667 0 144.667 -8.83301 204 -26.5s109.333 -43 150 -76s71.5 -72.833 92.5 -119.5s31.5 -98.667 31.5 -156s-10.5 -109.5 -31.5 -156.5s-51.833 -87.167 -92.5 -120.5s-90.667 -59.166 -150 -77.499s-127.333 -27.5 -204 -27.5
h-269v-300h-196v1360zM371 913.999v-468h246c94.667 0 168 19 220 57s78 97.667 78 179c0 80.667 -26 139.5 -78 176.5s-125.333 55.5 -220 55.5h-246z" />
    <glyph glyph-name="germandbls" unicode="&#xdf;" horiz-adv-x="1296" 
d="M164 -192l0.000976562 1170c0 59.333 10.833 114.833 32.5 166.5s52.667 96.5 93 134.5s89.166 68 146.499 90s121.333 33 192 33c68 0 127.167 -6.66699 177.5 -20s92 -32.333 125 -57s57.667 -54.5 74 -89.5s24.5 -74.167 24.5 -117.5
c0 -22.667 -2.16699 -42.834 -6.5 -60.501s-10 -33.834 -17 -48.501s-15 -28.167 -24 -40.5s-18.5 -23.833 -28.5 -34.5l-27.5 -39.5c-8.33301 -12.333 -15.5 -25 -21.5 -38s-10.667 -26.5 -14 -40.5s-5 -29.333 -5 -46c0 -17.333 3.5 -33.666 10.5 -48.999
s16.5 -29.833 28.5 -43.5s25.667 -26.834 41 -39.501l48 -38c22 -16.667 43.5 -34 64.5 -52s39.667 -38 56 -60s29.666 -46.667 39.999 -74s15.5 -58.666 15.5 -93.999c0 -61.333 -12.667 -114.166 -38 -158.499s-59.166 -80.666 -101.499 -108.999
s-90.833 -49.166 -145.5 -62.499s-111 -20 -169 -20c-54 0 -102 3.5 -144 10.5s-75 13.5 -99 19.5l27 146c21.333 -6 50.333 -12.5 87 -19.5s80.334 -10.5 131.001 -10.5c34 0 66.5 4 97.5 12s58.333 20.5 82 37.5s42.334 38.5 56.001 64.5s20.5 56.667 20.5 92
c0 19.333 -4 37.5 -12 54.5s-18.333 32.833 -31 47.5s-26.334 28.167 -41.001 40.5l-43 35.5c-23.333 18 -45.5 36.167 -66.5 54.5s-39.833 38 -56.5 59s-29.834 44.167 -39.501 69.5s-14.5 54.333 -14.5 87c0 45.333 8 87.166 24 125.499s39 76.5 69 114.5
c10.667 13.333 21.834 29.833 33.501 49.5s17.5 39.167 17.5 58.5c0 40 -16.833 73 -50.5 99s-86.834 39 -159.501 39c-39.333 0 -75 -7.33301 -107 -22s-59.667 -34.5 -83 -59.5s-41.333 -54.333 -54 -88s-19 -69.834 -19 -108.501v-1170h-196z" />
    <glyph glyph-name="agrave" unicode="&#xe0;" horiz-adv-x="1105" 
d="M746 598l-0.000976562 24.001c0 46.667 -4.16699 85.5 -12.5 116.5s-21.333 55.667 -39 74s-40.334 31.166 -68.001 38.499s-61.167 11 -100.5 11c-26 0 -52.833 -1.66699 -80.5 -5s-54.334 -8 -80.001 -14s-50 -12.667 -73 -20s-42.833 -15 -59.5 -23l-43 136
c22 12.667 47.167 24.167 75.5 34.5s58 19.166 89 26.499s62.667 13 95 17s63.833 6 94.5 6c60.667 0 115.5 -6 164.5 -18s90.833 -33 125.5 -63s61.334 -70.667 80.001 -122s28 -116.333 28 -195v-622h-151l-27 108c-13.333 -11.333 -31 -24.166 -53 -38.499
s-47.5 -28 -76.5 -41s-61.5 -24 -97.5 -33s-75 -13.5 -117 -13.5c-52 0 -97.833 8 -137.5 24s-72.667 37.667 -99 65s-46.166 59 -59.499 95s-20 74 -20 114c0 42.667 10.667 83.167 32 121.5s50.833 72 88.5 101s82.334 52.167 134.001 69.5s108.167 26 169.5 26h218z
M471.999 128.001c35.333 0 68.002 3.99512 98.002 11.9951s56.667 17.5 80 28.5s43.166 22.167 59.499 33.5s28.5 20 36.5 26v246h-194c-51.333 -0.666992 -93.333 -8.66699 -126 -24s-58.334 -33.666 -77.001 -54.999s-31.5 -43.166 -38.5 -65.499
s-10.5 -40.833 -10.5 -55.5c0 -23.333 4.33301 -44.166 13 -62.499s20.667 -33.666 36 -45.999s33.5 -21.666 54.5 -27.999s43.833 -9.5 68.5 -9.5zM659.001 1190l-142 -40l-286 248l213 60z" />
    <glyph glyph-name="aacute" unicode="&#xe1;" horiz-adv-x="1105" 
d="M746 598l-0.000976562 24.001c0 46.667 -4.16699 85.5 -12.5 116.5s-21.333 55.667 -39 74s-40.334 31.166 -68.001 38.499s-61.167 11 -100.5 11c-26 0 -52.833 -1.66699 -80.5 -5s-54.334 -8 -80.001 -14s-50 -12.667 -73 -20s-42.833 -15 -59.5 -23l-43 136
c22 12.667 47.167 24.167 75.5 34.5s58 19.166 89 26.499s62.667 13 95 17s63.833 6 94.5 6c60.667 0 115.5 -6 164.5 -18s90.833 -33 125.5 -63s61.334 -70.667 80.001 -122s28 -116.333 28 -195v-622h-151l-27 108c-13.333 -11.333 -31 -24.166 -53 -38.499
s-47.5 -28 -76.5 -41s-61.5 -24 -97.5 -33s-75 -13.5 -117 -13.5c-52 0 -97.833 8 -137.5 24s-72.667 37.667 -99 65s-46.166 59 -59.499 95s-20 74 -20 114c0 42.667 10.667 83.167 32 121.5s50.833 72 88.5 101s82.334 52.167 134.001 69.5s108.167 26 169.5 26h218z
M471.999 128.001c35.333 0 68.002 3.99512 98.002 11.9951s56.667 17.5 80 28.5s43.166 22.167 59.499 33.5s28.5 20 36.5 26v246h-194c-51.333 -0.666992 -93.333 -8.66699 -126 -24s-58.334 -33.666 -77.001 -54.999s-31.5 -43.166 -38.5 -65.499
s-10.5 -40.833 -10.5 -55.5c0 -23.333 4.33301 -44.166 13 -62.499s20.667 -33.666 36 -45.999s33.5 -21.666 54.5 -27.999s43.833 -9.5 68.5 -9.5zM692.001 1460l213 -60l-285 -248l-141 40z" />
    <glyph glyph-name="acircumflex" unicode="&#xe2;" horiz-adv-x="1105" 
d="M746 598l-0.000976562 24.001c0 46.667 -4.16699 85.5 -12.5 116.5s-21.333 55.667 -39 74s-40.334 31.166 -68.001 38.499s-61.167 11 -100.5 11c-26 0 -52.833 -1.66699 -80.5 -5s-54.334 -8 -80.001 -14s-50 -12.667 -73 -20s-42.833 -15 -59.5 -23l-43 136
c22 12.667 47.167 24.167 75.5 34.5s58 19.166 89 26.499s62.667 13 95 17s63.833 6 94.5 6c60.667 0 115.5 -6 164.5 -18s90.833 -33 125.5 -63s61.334 -70.667 80.001 -122s28 -116.333 28 -195v-622h-151l-27 108c-13.333 -11.333 -31 -24.166 -53 -38.499
s-47.5 -28 -76.5 -41s-61.5 -24 -97.5 -33s-75 -13.5 -117 -13.5c-52 0 -97.833 8 -137.5 24s-72.667 37.667 -99 65s-46.166 59 -59.499 95s-20 74 -20 114c0 42.667 10.667 83.167 32 121.5s50.833 72 88.5 101s82.334 52.167 134.001 69.5s108.167 26 169.5 26h218z
M471.999 128.001c35.333 0 68.002 3.99512 98.002 11.9951s56.667 17.5 80 28.5s43.166 22.167 59.499 33.5s28.5 20 36.5 26v246h-194c-51.333 -0.666992 -93.333 -8.66699 -126 -24s-58.334 -33.666 -77.001 -54.999s-31.5 -43.166 -38.5 -65.499
s-10.5 -40.833 -10.5 -55.5c0 -23.333 4.33301 -44.166 13 -62.499s20.667 -33.666 36 -45.999s33.5 -21.666 54.5 -27.999s43.833 -9.5 68.5 -9.5zM438.001 1150h-208l298 232h123l295 -232h-205l-152 117z" />
    <glyph glyph-name="atilde" unicode="&#xe3;" horiz-adv-x="1105" 
d="M746 598l-0.000976562 24.001c0 46.667 -4.16699 85.5 -12.5 116.5s-21.333 55.667 -39 74s-40.334 31.166 -68.001 38.499s-61.167 11 -100.5 11c-26 0 -52.833 -1.66699 -80.5 -5s-54.334 -8 -80.001 -14s-50 -12.667 -73 -20s-42.833 -15 -59.5 -23l-43 136
c22 12.667 47.167 24.167 75.5 34.5s58 19.166 89 26.499s62.667 13 95 17s63.833 6 94.5 6c60.667 0 115.5 -6 164.5 -18s90.833 -33 125.5 -63s61.334 -70.667 80.001 -122s28 -116.333 28 -195v-622h-151l-27 108c-13.333 -11.333 -31 -24.166 -53 -38.499
s-47.5 -28 -76.5 -41s-61.5 -24 -97.5 -33s-75 -13.5 -117 -13.5c-52 0 -97.833 8 -137.5 24s-72.667 37.667 -99 65s-46.166 59 -59.499 95s-20 74 -20 114c0 42.667 10.667 83.167 32 121.5s50.833 72 88.5 101s82.334 52.167 134.001 69.5s108.167 26 169.5 26h218z
M471.999 128.001c35.333 0 68.002 3.99512 98.002 11.9951s56.667 17.5 80 28.5s43.166 22.167 59.499 33.5s28.5 20 36.5 26v246h-194c-51.333 -0.666992 -93.333 -8.66699 -126 -24s-58.334 -33.666 -77.001 -54.999s-31.5 -43.166 -38.5 -65.499
s-10.5 -40.833 -10.5 -55.5c0 -23.333 4.33301 -44.166 13 -62.499s20.667 -33.666 36 -45.999s33.5 -21.666 54.5 -27.999s43.833 -9.5 68.5 -9.5zM713.001 1296c9.33301 0 19.665 1.83301 30.998 5.5s22.5 9.5 33.5 17.5s21.5 18 31.5 30s18.667 26.333 26 43l104 -80
c-10.667 -24 -23.667 -45.333 -39 -64s-31.666 -34.667 -48.999 -48s-35.5 -24 -54.5 -32s-37.5 -13.333 -55.5 -16c-7.33301 -1.33301 -14.5 -2.33301 -21.5 -3s-13.833 -1 -20.5 -1c-36 0 -68.5 7.66699 -97.5 23s-56.167 32.333 -81.5 51
c-21.333 15.333 -41.166 26.833 -59.499 34.5s-33.166 10.834 -44.499 9.50098c-10 -0.666992 -19.667 -2.16699 -29 -4.5s-18.833 -6.83301 -28.5 -13.5s-19.834 -16 -30.501 -28s-22 -27.333 -34 -46l-105 74c10 23.333 22.833 44.333 38.5 63s32.5 34.667 50.5 48
s36.5 24.333 55.5 33s37.167 14.667 54.5 18c12 2 23.333 3 34 3c37.333 0 71.166 -7.83301 101.499 -23.5s58.833 -32.834 85.5 -51.501c19.333 -16 38.333 -27 57 -33s34.334 -9 47.001 -9z" />
    <glyph glyph-name="adieresis" unicode="&#xe4;" horiz-adv-x="1105" 
d="M746 598l-0.000976562 24.001c0 46.667 -4.16699 85.5 -12.5 116.5s-21.333 55.667 -39 74s-40.334 31.166 -68.001 38.499s-61.167 11 -100.5 11c-26 0 -52.833 -1.66699 -80.5 -5s-54.334 -8 -80.001 -14s-50 -12.667 -73 -20s-42.833 -15 -59.5 -23l-43 136
c22 12.667 47.167 24.167 75.5 34.5s58 19.166 89 26.499s62.667 13 95 17s63.833 6 94.5 6c60.667 0 115.5 -6 164.5 -18s90.833 -33 125.5 -63s61.334 -70.667 80.001 -122s28 -116.333 28 -195v-622h-151l-27 108c-13.333 -11.333 -31 -24.166 -53 -38.499
s-47.5 -28 -76.5 -41s-61.5 -24 -97.5 -33s-75 -13.5 -117 -13.5c-52 0 -97.833 8 -137.5 24s-72.667 37.667 -99 65s-46.166 59 -59.499 95s-20 74 -20 114c0 42.667 10.667 83.167 32 121.5s50.833 72 88.5 101s82.334 52.167 134.001 69.5s108.167 26 169.5 26h218z
M471.999 128.001c35.333 0 68.002 3.99512 98.002 11.9951s56.667 17.5 80 28.5s43.166 22.167 59.499 33.5s28.5 20 36.5 26v246h-194c-51.333 -0.666992 -93.333 -8.66699 -126 -24s-58.334 -33.666 -77.001 -54.999s-31.5 -43.166 -38.5 -65.499
s-10.5 -40.833 -10.5 -55.5c0 -23.333 4.33301 -44.166 13 -62.499s20.667 -33.666 36 -45.999s33.5 -21.666 54.5 -27.999s43.833 -9.5 68.5 -9.5zM239.001 1327h216v-176h-216v176zM726.001 1327h218v-176h-218v176z" />
    <glyph glyph-name="aring" unicode="&#xe5;" horiz-adv-x="1105" 
d="M746 598l-0.000976562 24.001c0 46.667 -4.16699 85.5 -12.5 116.5s-21.333 55.667 -39 74s-40.334 31.166 -68.001 38.499s-61.167 11 -100.5 11c-26 0 -52.833 -1.66699 -80.5 -5s-54.334 -8 -80.001 -14s-50 -12.667 -73 -20s-42.833 -15 -59.5 -23l-43 136
c22 12.667 47.167 24.167 75.5 34.5s58 19.166 89 26.499s62.667 13 95 17s63.833 6 94.5 6c60.667 0 115.5 -6 164.5 -18s90.833 -33 125.5 -63s61.334 -70.667 80.001 -122s28 -116.333 28 -195v-622h-151l-27 108c-13.333 -11.333 -31 -24.166 -53 -38.499
s-47.5 -28 -76.5 -41s-61.5 -24 -97.5 -33s-75 -13.5 -117 -13.5c-52 0 -97.833 8 -137.5 24s-72.667 37.667 -99 65s-46.166 59 -59.499 95s-20 74 -20 114c0 42.667 10.667 83.167 32 121.5s50.833 72 88.5 101s82.334 52.167 134.001 69.5s108.167 26 169.5 26h218z
M471.999 128.001c35.333 0 68.002 3.99512 98.002 11.9951s56.667 17.5 80 28.5s43.166 22.167 59.499 33.5s28.5 20 36.5 26v246h-194c-51.333 -0.666992 -93.333 -8.66699 -126 -24s-58.334 -33.666 -77.001 -54.999s-31.5 -43.166 -38.5 -65.499
s-10.5 -40.833 -10.5 -55.5c0 -23.333 4.33301 -44.166 13 -62.499s20.667 -33.666 36 -45.999s33.5 -21.666 54.5 -27.999s43.833 -9.5 68.5 -9.5zM563.001 1539c29.333 0 56.833 -5.16699 82.5 -15.5s48.167 -24.333 67.5 -42s34.5 -38.167 45.5 -61.5
s16.5 -48.333 16.5 -75c0 -27.333 -5.5 -52.666 -16.5 -75.999s-26.167 -43.833 -45.5 -61.5s-41.833 -31.5 -67.5 -41.5s-53.167 -15 -82.5 -15s-56.833 5 -82.5 15s-48 23.833 -67 41.5s-34.167 38.167 -45.5 61.5s-17 48.666 -17 75.999c0 26.667 5.66699 51.667 17 75
s26.5 43.833 45.5 61.5s41.333 31.667 67 42s53.167 15.5 82.5 15.5zM563.001 1267c24.667 0 45 7.66699 61 23s24 33.666 24 54.999c0 22 -8 40.5 -24 55.5s-36.333 22.5 -61 22.5c-22.667 0 -42.5 -7.5 -59.5 -22.5s-25.5 -33.5 -25.5 -55.5
c0 -21.333 8.5 -39.666 25.5 -54.999s36.833 -23 59.5 -23z" />
    <glyph glyph-name="ae" unicode="&#xe6;" horiz-adv-x="1759" 
d="M757 562l0.000976562 60c0 46.667 -4 85.5 -12 116.5s-20.833 55.667 -38.5 74s-40.334 31.166 -68.001 38.499s-60.834 11 -99.501 11c-26 0 -53.333 -2 -82 -6s-56.5 -9.33301 -83.5 -16s-52.667 -14 -77 -22s-44.833 -16 -61.5 -24l-49 136
c24 12 50.833 23.5 80.5 34.5s60.667 20.5 93 28.5s65.333 14.5 99 19.5s66.834 7.5 99.501 7.5c75.333 0 141.333 -9.66699 198 -29s101.667 -54.333 135 -105c41.333 44 90.666 77.333 147.999 100s121.333 34 192 34c58.667 0 113.667 -9 165 -27s96 -44 134 -78
s68 -75.667 90 -125s33 -105.333 33 -168v-146h-698c2.66699 -111.333 30.834 -197.5 84.501 -258.5s131.167 -91.5 232.5 -91.5c34 0 65.167 1.83301 93.5 5.5s54.166 8.16699 77.499 13.5s44.333 11.333 63 18s35.667 13 51 19l47 -128
c-41.333 -23.333 -90.666 -41.5 -147.999 -54.5s-118.666 -19.5 -183.999 -19.5c-80.667 0 -152.167 11 -214.5 33s-115.5 54 -159.5 96c-20.667 -13.333 -45.834 -27.166 -75.501 -41.499s-63.667 -27.5 -102 -39.5s-81.5 -22 -129.5 -30s-101 -12 -159 -12
c-52 0 -97.833 7 -137.5 21s-73 33.5 -100 58.5s-47.333 54.667 -61 89s-20.5 71.5 -20.5 111.5c0 42.667 10.333 82 31 118s49.334 67.167 86.001 93.5s79.667 47 129 62s102.666 22.5 159.999 22.5h238zM486.001 132c63.333 0 118.333 4.66602 165 13.999
s82 18.666 106 27.999v264h-215c-44.667 0 -82 -4.66699 -112 -14s-54 -22.166 -72 -38.499s-30.667 -35.333 -38 -57s-11 -44.5 -11 -68.5c0 -23.333 4.66699 -43.166 14 -59.499s22 -29.5 38 -39.5s34.667 -17.333 56 -22s44.333 -7 69 -7zM1231 873.999
c-36 0 -68.833 -4 -98.5 -12s-56 -21.833 -79 -41.5s-42.167 -45.667 -57.5 -78s-26.333 -72.5 -33 -120.5h494c0 46 -6.33301 85 -19 117s-29.5 58 -50.5 78s-45 34.5 -72 43.5s-55.167 13.5 -84.5 13.5z" />
    <glyph glyph-name="ccedilla" unicode="&#xe7;" horiz-adv-x="962" 
d="M115 502c0 78.667 11.334 149.832 34.001 213.499s55.334 118 98.001 163s94.5 79.833 155.5 104.5s129.833 37 206.5 37c63.333 0 118.166 -4.66699 164.499 -14s85.166 -22.666 116.499 -39.999l-55 -136l-37.5 16c-13 5.33301 -27.5 10 -43.5 14
s-34.167 7.33301 -54.5 10s-43.5 4 -69.5 4c-48 0 -91.5 -7.16699 -130.5 -21.5s-72.5 -36.666 -100.5 -66.999s-49.667 -69 -65 -116s-23 -102.833 -23 -167.5c0 -65.333 7.66699 -121.5 23 -168.5s37 -86 65 -117s61.5 -53.833 100.5 -68.5s82.5 -22 130.5 -22
c56 0 103 4.66699 141 14s71.667 20.666 101 33.999l49 -128c-32 -20 -72.167 -36 -120.5 -48s-105.166 -18 -170.499 -18c-80 0 -151.667 12.5 -215 37.5s-117.333 60.333 -162 106s-78.834 100.5 -102.501 164.5s-35.5 135.333 -35.5 214zM695.001 19.998
c23.333 -44 35.001 -89.333 35.001 -136c0 -35.333 -7.33301 -69 -22 -101s-36.5 -60 -65.5 -84s-65.167 -43.167 -108.5 -57.5s-94 -21.5 -152 -21.5l-35 110c71.333 7.33301 124.166 25 158.499 53s51.5 63 51.5 105c0 39.333 -14.667 83.333 -44 132h182z" />
    <glyph glyph-name="egrave" unicode="&#xe8;" horiz-adv-x="1111" 
d="M309 476c2.66699 -111.333 30.833 -197.499 84.5 -258.499s131.167 -91.5 232.5 -91.5c34 0 65.167 1.83301 93.5 5.5s54.166 8.16699 77.499 13.5s44.333 11.333 63 18s35.667 13 51 19l47 -128c-41.333 -23.333 -90.666 -41.5 -147.999 -54.5
s-118.666 -19.5 -183.999 -19.5c-81.333 0 -153.833 11.5 -217.5 34.5s-117.334 56.333 -161.001 100s-77 97.167 -100 160.5s-34.5 135.666 -34.5 216.999c0 83.333 11.167 157.833 33.5 223.5s54 121 95 166s90.5 79.333 148.5 103s123 35.5 195 35.5
c58.667 0 113.667 -9 165 -27s96 -44 134 -78s68 -75.667 90 -125s33 -105.333 33 -168v-146h-698zM584.999 874.001c-36 0 -68.833 -4 -98.5 -12s-56 -21.833 -79 -41.5s-42.167 -45.667 -57.5 -78s-26.333 -72.5 -33 -120.5h494c0 46 -6.33301 85 -19 117
s-29.5 58 -50.5 78s-45 34.5 -72 43.5s-55.167 13.5 -84.5 13.5zM649.999 1190l-142 -40l-286 248l213 60z" />
    <glyph glyph-name="eacute" unicode="&#xe9;" horiz-adv-x="1111" 
d="M309 476c2.66699 -111.333 30.833 -197.499 84.5 -258.499s131.167 -91.5 232.5 -91.5c34 0 65.167 1.83301 93.5 5.5s54.166 8.16699 77.499 13.5s44.333 11.333 63 18s35.667 13 51 19l47 -128c-41.333 -23.333 -90.666 -41.5 -147.999 -54.5
s-118.666 -19.5 -183.999 -19.5c-81.333 0 -153.833 11.5 -217.5 34.5s-117.334 56.333 -161.001 100s-77 97.167 -100 160.5s-34.5 135.666 -34.5 216.999c0 83.333 11.167 157.833 33.5 223.5s54 121 95 166s90.5 79.333 148.5 103s123 35.5 195 35.5
c58.667 0 113.667 -9 165 -27s96 -44 134 -78s68 -75.667 90 -125s33 -105.333 33 -168v-146h-698zM584.999 874.001c-36 0 -68.833 -4 -98.5 -12s-56 -21.833 -79 -41.5s-42.167 -45.667 -57.5 -78s-26.333 -72.5 -33 -120.5h494c0 46 -6.33301 85 -19 117
s-29.5 58 -50.5 78s-45 34.5 -72 43.5s-55.167 13.5 -84.5 13.5zM682.999 1460l213 -60l-285 -248l-141 40z" />
    <glyph glyph-name="ecircumflex" unicode="&#xea;" horiz-adv-x="1111" 
d="M309 476c2.66699 -111.333 30.833 -197.499 84.5 -258.499s131.167 -91.5 232.5 -91.5c34 0 65.167 1.83301 93.5 5.5s54.166 8.16699 77.499 13.5s44.333 11.333 63 18s35.667 13 51 19l47 -128c-41.333 -23.333 -90.666 -41.5 -147.999 -54.5
s-118.666 -19.5 -183.999 -19.5c-81.333 0 -153.833 11.5 -217.5 34.5s-117.334 56.333 -161.001 100s-77 97.167 -100 160.5s-34.5 135.666 -34.5 216.999c0 83.333 11.167 157.833 33.5 223.5s54 121 95 166s90.5 79.333 148.5 103s123 35.5 195 35.5
c58.667 0 113.667 -9 165 -27s96 -44 134 -78s68 -75.667 90 -125s33 -105.333 33 -168v-146h-698zM584.999 874.001c-36 0 -68.833 -4 -98.5 -12s-56 -21.833 -79 -41.5s-42.167 -45.667 -57.5 -78s-26.333 -72.5 -33 -120.5h494c0 46 -6.33301 85 -19 117
s-29.5 58 -50.5 78s-45 34.5 -72 43.5s-55.167 13.5 -84.5 13.5zM428.999 1150h-208l298 232h123l295 -232h-205l-152 117z" />
    <glyph glyph-name="edieresis" unicode="&#xeb;" horiz-adv-x="1111" 
d="M309 476c2.66699 -111.333 30.833 -197.499 84.5 -258.499s131.167 -91.5 232.5 -91.5c34 0 65.167 1.83301 93.5 5.5s54.166 8.16699 77.499 13.5s44.333 11.333 63 18s35.667 13 51 19l47 -128c-41.333 -23.333 -90.666 -41.5 -147.999 -54.5
s-118.666 -19.5 -183.999 -19.5c-81.333 0 -153.833 11.5 -217.5 34.5s-117.334 56.333 -161.001 100s-77 97.167 -100 160.5s-34.5 135.666 -34.5 216.999c0 83.333 11.167 157.833 33.5 223.5s54 121 95 166s90.5 79.333 148.5 103s123 35.5 195 35.5
c58.667 0 113.667 -9 165 -27s96 -44 134 -78s68 -75.667 90 -125s33 -105.333 33 -168v-146h-698zM584.999 874.001c-36 0 -68.833 -4 -98.5 -12s-56 -21.833 -79 -41.5s-42.167 -45.667 -57.5 -78s-26.333 -72.5 -33 -120.5h494c0 46 -6.33301 85 -19 117
s-29.5 58 -50.5 78s-45 34.5 -72 43.5s-55.167 13.5 -84.5 13.5zM229.999 1327h216v-176h-216v176zM716.999 1327h218v-176h-218v176z" />
    <glyph glyph-name="igrave" unicode="&#xec;" horiz-adv-x="411" 
d="M108 1000h196v-1000h-196v1000zM305 1185l-142 -40l-286 248l213 60z" />
    <glyph glyph-name="iacute" unicode="&#xed;" horiz-adv-x="411" 
d="M108 1000h196v-1000h-196v1000zM338 1455l213 -60l-285 -248l-141 40z" />
    <glyph glyph-name="icircumflex" unicode="&#xee;" horiz-adv-x="411" 
d="M108 1000h196v-1000h-196v1000zM84 1146h-208l298 232h123l295 -232h-205l-152 117z" />
    <glyph glyph-name="idieresis" unicode="&#xef;" horiz-adv-x="411" 
d="M108 1000h196v-1000h-196v1000zM-115 1322h216v-176h-216v176zM372 1322h218v-176h-218v176z" />
    <glyph glyph-name="eth" unicode="&#xf0;" horiz-adv-x="1190" 
d="M490 1066l197.999 93c-72 50 -158.667 75 -260 75l20 146c81.333 0 155.833 -12.333 223.5 -37s128.167 -60 181.5 -106l207 97l67 -108l-185 -84c50 -67.333 88.5 -146.5 115.5 -237.5s40.5 -191.833 40.5 -302.5c0 -93.333 -10.833 -178 -32.5 -254
s-53.5 -141 -95.5 -195s-93.833 -95.667 -155.5 -125s-132.167 -44 -211.5 -44c-75.333 0 -142.166 11.667 -200.499 35s-108 54.5 -149 93.5s-73.167 83.667 -96.5 134s-37.333 102.166 -42 155.499c-0.666992 8.66699 -1.16699 17.167 -1.5 25.5s-0.5 16.5 -0.5 24.5
c0 62 9.83301 118.667 29.5 170s48 95.333 85 132s82 65.167 135 85.5s112.833 30.5 179.5 30.5c71.333 0 137.5 -14.333 198.5 -43s111.5 -73.667 151.5 -135c-5.33301 82.667 -17.5 154.834 -36.5 216.501s-44.5 114.5 -76.5 158.5l-227 -103zM580.999 130
c48 0 90.6689 7.83203 128.002 23.499s69 40 95 73s46.5 74.833 61.5 125.5s24.167 111.334 27.5 182.001c-22 36 -46 65.833 -72 89.5s-53.167 42.5 -81.5 56.5s-57.666 23.833 -87.999 29.5s-60.833 8.5 -91.5 8.5c-43.333 0 -79.833 -7.83301 -109.5 -23.5
s-54 -37.167 -73 -64.5s-32.667 -59.5 -41 -96.5s-12.5 -76.833 -12.5 -119.5c0 -37.333 5.16699 -73 15.5 -107s26.166 -64.167 47.499 -90.5s48.166 -47.333 80.499 -63s70.166 -23.5 113.499 -23.5z" />
    <glyph glyph-name="ntilde" unicode="&#xf1;" horiz-adv-x="1205" 
d="M175 1000h172.997l16 -95c48.667 36 100.834 64.167 156.501 84.5s116.5 30.5 182.5 30.5c50 0 95.333 -5.5 136 -16.5s75.334 -30 104.001 -57s50.834 -63.5 66.501 -109.5s23.5 -104.333 23.5 -175v-662h-196v662c0 39.333 -3.5 72.5 -10.5 99.5
s-17.667 48.833 -32 65.5s-32.833 28.667 -55.5 36s-49.667 11 -81 11c-56.667 0 -108.5 -10.667 -155.5 -32s-90.833 -48 -131.5 -80v-762h-196v1000zM750.997 1296c9.33301 0 19.665 1.83301 30.998 5.5s22.5 9.5 33.5 17.5s21.5 18 31.5 30s18.667 26.333 26 43l104 -80
c-10.667 -24 -23.667 -45.333 -39 -64s-31.666 -34.667 -48.999 -48s-35.5 -24 -54.5 -32s-37.5 -13.333 -55.5 -16c-7.33301 -1.33301 -14.5 -2.33301 -21.5 -3s-13.833 -1 -20.5 -1c-36 0 -68.5 7.66699 -97.5 23s-56.167 32.333 -81.5 51
c-21.333 15.333 -41.166 26.833 -59.499 34.5s-33.166 10.834 -44.499 9.50098c-10 -0.666992 -19.667 -2.16699 -29 -4.5s-18.833 -6.83301 -28.5 -13.5s-19.834 -16 -30.501 -28s-22 -27.333 -34 -46l-105 74c10 23.333 22.833 44.333 38.5 63s32.5 34.667 50.5 48
s36.5 24.333 55.5 33s37.167 14.667 54.5 18c12 2 23.333 3 34 3c37.333 0 71.166 -7.83301 101.499 -23.5s58.833 -32.834 85.5 -51.501c19.333 -16 38.333 -27 57 -33s34.334 -9 47.001 -9z" />
    <glyph glyph-name="ograve" unicode="&#xf2;" horiz-adv-x="1190" 
d="M113 500c0 80.667 11.667 153 35 217s56.166 118.5 98.499 163.5s93.166 79.5 152.499 103.5s125.333 36 198 36c72 0 138 -12 198 -36s111.333 -58.5 154 -103.5s75.834 -99.5 99.501 -163.5s35.5 -136.333 35.5 -217c0 -81.333 -11.833 -154 -35.5 -218
s-56.834 -118.5 -99.501 -163.5s-94 -79.333 -154 -103s-126 -35.5 -198 -35.5c-72.667 0 -138.667 11.833 -198 35.5s-110.166 58 -152.499 103s-75.166 99.5 -98.499 163.5s-35 136.667 -35 218zM309 500c0 -65.333 7 -121.666 21 -168.999s33.667 -86.166 59 -116.499
s55.666 -52.666 90.999 -66.999s74.333 -21.5 117 -21.5s81.834 7.16699 117.501 21.5s66.334 36.666 92.001 66.999s45.667 69.166 60 116.499s21.5 103.666 21.5 168.999s-7.16699 121.666 -21.5 168.999s-34.333 86.166 -60 116.499s-56.334 52.666 -92.001 66.999
s-74.834 21.5 -117.501 21.5s-81.667 -7.16699 -117 -21.5s-65.666 -36.666 -90.999 -66.999s-45 -69.166 -59 -116.499s-21 -103.666 -21 -168.999zM688 1188l-142 -40l-286 248l213 60z" />
    <glyph glyph-name="oacute" unicode="&#xf3;" horiz-adv-x="1190" 
d="M113 500c0 80.667 11.667 153 35 217s56.166 118.5 98.499 163.5s93.166 79.5 152.499 103.5s125.333 36 198 36c72 0 138 -12 198 -36s111.333 -58.5 154 -103.5s75.834 -99.5 99.501 -163.5s35.5 -136.333 35.5 -217c0 -81.333 -11.833 -154 -35.5 -218
s-56.834 -118.5 -99.501 -163.5s-94 -79.333 -154 -103s-126 -35.5 -198 -35.5c-72.667 0 -138.667 11.833 -198 35.5s-110.166 58 -152.499 103s-75.166 99.5 -98.499 163.5s-35 136.667 -35 218zM309 500c0 -65.333 7 -121.666 21 -168.999s33.667 -86.166 59 -116.499
s55.666 -52.666 90.999 -66.999s74.333 -21.5 117 -21.5s81.834 7.16699 117.501 21.5s66.334 36.666 92.001 66.999s45.667 69.166 60 116.499s21.5 103.666 21.5 168.999s-7.16699 121.666 -21.5 168.999s-34.333 86.166 -60 116.499s-56.334 52.666 -92.001 66.999
s-74.834 21.5 -117.501 21.5s-81.667 -7.16699 -117 -21.5s-65.666 -36.666 -90.999 -66.999s-45 -69.166 -59 -116.499s-21 -103.666 -21 -168.999zM721 1458l213 -60l-285 -248l-141 40z" />
    <glyph glyph-name="ocircumflex" unicode="&#xf4;" horiz-adv-x="1190" 
d="M113 500c0 80.667 11.667 153 35 217s56.166 118.5 98.499 163.5s93.166 79.5 152.499 103.5s125.333 36 198 36c72 0 138 -12 198 -36s111.333 -58.5 154 -103.5s75.834 -99.5 99.501 -163.5s35.5 -136.333 35.5 -217c0 -81.333 -11.833 -154 -35.5 -218
s-56.834 -118.5 -99.501 -163.5s-94 -79.333 -154 -103s-126 -35.5 -198 -35.5c-72.667 0 -138.667 11.833 -198 35.5s-110.166 58 -152.499 103s-75.166 99.5 -98.499 163.5s-35 136.667 -35 218zM309 500c0 -65.333 7 -121.666 21 -168.999s33.667 -86.166 59 -116.499
s55.666 -52.666 90.999 -66.999s74.333 -21.5 117 -21.5s81.834 7.16699 117.501 21.5s66.334 36.666 92.001 66.999s45.667 69.166 60 116.499s21.5 103.666 21.5 168.999s-7.16699 121.666 -21.5 168.999s-34.333 86.166 -60 116.499s-56.334 52.666 -92.001 66.999
s-74.834 21.5 -117.501 21.5s-81.667 -7.16699 -117 -21.5s-65.666 -36.666 -90.999 -66.999s-45 -69.166 -59 -116.499s-21 -103.666 -21 -168.999zM467 1148h-208l298 232h123l295 -232h-205l-152 117z" />
    <glyph glyph-name="otilde" unicode="&#xf5;" horiz-adv-x="1190" 
d="M113 500c0 80.667 11.667 153 35 217s56.166 118.5 98.499 163.5s93.166 79.5 152.499 103.5s125.333 36 198 36c72 0 138 -12 198 -36s111.333 -58.5 154 -103.5s75.834 -99.5 99.501 -163.5s35.5 -136.333 35.5 -217c0 -81.333 -11.833 -154 -35.5 -218
s-56.834 -118.5 -99.501 -163.5s-94 -79.333 -154 -103s-126 -35.5 -198 -35.5c-72.667 0 -138.667 11.833 -198 35.5s-110.166 58 -152.499 103s-75.166 99.5 -98.499 163.5s-35 136.667 -35 218zM309 500c0 -65.333 7 -121.666 21 -168.999s33.667 -86.166 59 -116.499
s55.666 -52.666 90.999 -66.999s74.333 -21.5 117 -21.5s81.834 7.16699 117.501 21.5s66.334 36.666 92.001 66.999s45.667 69.166 60 116.499s21.5 103.666 21.5 168.999s-7.16699 121.666 -21.5 168.999s-34.333 86.166 -60 116.499s-56.334 52.666 -92.001 66.999
s-74.834 21.5 -117.501 21.5s-81.667 -7.16699 -117 -21.5s-65.666 -36.666 -90.999 -66.999s-45 -69.166 -59 -116.499s-21 -103.666 -21 -168.999zM742 1294c9.33301 0 19.665 1.83301 30.998 5.5s22.5 9.5 33.5 17.5s21.5 18 31.5 30s18.667 26.333 26 43l104 -80
c-10.667 -24 -23.667 -45.333 -39 -64s-31.666 -34.667 -48.999 -48s-35.5 -24 -54.5 -32s-37.5 -13.333 -55.5 -16c-7.33301 -1.33301 -14.5 -2.33301 -21.5 -3s-13.833 -1 -20.5 -1c-36 0 -68.5 7.66699 -97.5 23s-56.167 32.333 -81.5 51
c-21.333 15.333 -41.166 26.833 -59.499 34.5s-33.166 10.834 -44.499 9.50098c-10 -0.666992 -19.667 -2.16699 -29 -4.5s-18.833 -6.83301 -28.5 -13.5s-19.834 -16 -30.501 -28s-22 -27.333 -34 -46l-105 74c10 23.333 22.833 44.333 38.5 63s32.5 34.667 50.5 48
s36.5 24.333 55.5 33s37.167 14.667 54.5 18c12 2 23.333 3 34 3c37.333 0 71.166 -7.83301 101.499 -23.5s58.833 -32.834 85.5 -51.501c19.333 -16 38.333 -27 57 -33s34.334 -9 47.001 -9z" />
    <glyph glyph-name="odieresis" unicode="&#xf6;" horiz-adv-x="1190" 
d="M113 500c0 80.667 11.667 153 35 217s56.166 118.5 98.499 163.5s93.166 79.5 152.499 103.5s125.333 36 198 36c72 0 138 -12 198 -36s111.333 -58.5 154 -103.5s75.834 -99.5 99.501 -163.5s35.5 -136.333 35.5 -217c0 -81.333 -11.833 -154 -35.5 -218
s-56.834 -118.5 -99.501 -163.5s-94 -79.333 -154 -103s-126 -35.5 -198 -35.5c-72.667 0 -138.667 11.833 -198 35.5s-110.166 58 -152.499 103s-75.166 99.5 -98.499 163.5s-35 136.667 -35 218zM309 500c0 -65.333 7 -121.666 21 -168.999s33.667 -86.166 59 -116.499
s55.666 -52.666 90.999 -66.999s74.333 -21.5 117 -21.5s81.834 7.16699 117.501 21.5s66.334 36.666 92.001 66.999s45.667 69.166 60 116.499s21.5 103.666 21.5 168.999s-7.16699 121.666 -21.5 168.999s-34.333 86.166 -60 116.499s-56.334 52.666 -92.001 66.999
s-74.834 21.5 -117.501 21.5s-81.667 -7.16699 -117 -21.5s-65.666 -36.666 -90.999 -66.999s-45 -69.166 -59 -116.499s-21 -103.666 -21 -168.999zM268 1325h216v-176h-216v176zM755 1325h218v-176h-218v176z" />
    <glyph glyph-name="divide" unicode="&#xf7;" horiz-adv-x="1066" 
d="M108 526v146h852v-146h-852zM432 978h196v-178h-196v178zM432 378h196v-178h-196v178z" />
    <glyph glyph-name="oslash" unicode="&#xf8;" horiz-adv-x="1216" 
d="M113 500c0 80.667 11.6699 153.002 35.0029 217.002s56.166 118.5 98.499 163.5s93.166 79.5 152.499 103.5s125.333 36 198 36c58 0 111.667 -7.66699 161 -23s94 -37.666 134 -66.999l59 70h171l-138 -162c32 -43.333 56.667 -93.333 74 -150s26 -119.334 26 -188.001
c0 -81.333 -11.833 -154 -35.5 -218s-56.834 -118.5 -99.501 -163.5s-94 -79.333 -154 -103s-126 -35.5 -198 -35.5c-54 0 -104.5 6.66699 -151.5 20s-89.833 32.666 -128.5 57.999l-49 -58h-170l124 146c-35.333 44 -62.333 95.667 -81 155s-28 125.666 -28 198.999z
M309.003 500.002c0 -84.667 11.666 -155.003 34.999 -211.003l442 517c-25.333 23.333 -53.833 40.5 -85.5 51.5s-66.167 16.5 -103.5 16.5c-42.667 0 -81.667 -7.16699 -117 -21.5s-65.666 -36.666 -90.999 -66.999s-45 -69.166 -59 -116.499s-21 -103.666 -21 -168.999z
M888.002 499.999c0 38 -2.50098 73.0029 -7.50098 105.003s-12.167 61 -21.5 87l-436 -511c23.333 -19.333 49.666 -33.333 78.999 -42s61 -13 95 -13c42.667 0 81.834 7.16699 117.501 21.5s66.334 36.666 92.001 66.999s45.667 69.166 60 116.499
s21.5 103.666 21.5 168.999z" />
    <glyph glyph-name="ugrave" unicode="&#xf9;" horiz-adv-x="1205" 
d="M1033 0l-172.997 0.000976562l-17 127c-48 -46 -99.833 -82 -155.5 -108s-115.834 -39 -180.501 -39c-50.667 0 -96.334 6 -137.001 18s-75.5 33 -104.5 63s-51.333 70.667 -67 122s-23.5 116.333 -23.5 195v622h196v-622c0 -47.333 3.5 -87 10.5 -119
s17.833 -57.833 32.5 -77.5s33.167 -33.834 55.5 -42.501s49.166 -13 80.499 -13c56.667 0 108.667 10.5 156 31.5s91 48.167 131 81.5v761h196v-1000zM697.003 1170l-142 -40l-286 248l213 60z" />
    <glyph glyph-name="uacute" unicode="&#xfa;" horiz-adv-x="1205" 
d="M1033 0l-172.997 0.000976562l-17 127c-48 -46 -99.833 -82 -155.5 -108s-115.834 -39 -180.501 -39c-50.667 0 -96.334 6 -137.001 18s-75.5 33 -104.5 63s-51.333 70.667 -67 122s-23.5 116.333 -23.5 195v622h196v-622c0 -47.333 3.5 -87 10.5 -119
s17.833 -57.833 32.5 -77.5s33.167 -33.834 55.5 -42.501s49.166 -13 80.499 -13c56.667 0 108.667 10.5 156 31.5s91 48.167 131 81.5v761h196v-1000zM730.003 1440l213 -60l-285 -248l-141 40z" />
    <glyph glyph-name="ucircumflex" unicode="&#xfb;" horiz-adv-x="1205" 
d="M1033 0l-172.997 0.000976562l-17 127c-48 -46 -99.833 -82 -155.5 -108s-115.834 -39 -180.501 -39c-50.667 0 -96.334 6 -137.001 18s-75.5 33 -104.5 63s-51.333 70.667 -67 122s-23.5 116.333 -23.5 195v622h196v-622c0 -47.333 3.5 -87 10.5 -119
s17.833 -57.833 32.5 -77.5s33.167 -33.834 55.5 -42.501s49.166 -13 80.499 -13c56.667 0 108.667 10.5 156 31.5s91 48.167 131 81.5v761h196v-1000zM476.003 1131h-208l298 232h123l295 -232h-205l-152 117z" />
    <glyph glyph-name="udieresis" unicode="&#xfc;" horiz-adv-x="1205" 
d="M1033 0l-172.997 0.000976562l-17 127c-48 -46 -99.833 -82 -155.5 -108s-115.834 -39 -180.501 -39c-50.667 0 -96.334 6 -137.001 18s-75.5 33 -104.5 63s-51.333 70.667 -67 122s-23.5 116.333 -23.5 195v622h196v-622c0 -47.333 3.5 -87 10.5 -119
s17.833 -57.833 32.5 -77.5s33.167 -33.834 55.5 -42.501s49.166 -13 80.499 -13c56.667 0 108.667 10.5 156 31.5s91 48.167 131 81.5v761h196v-1000zM277.003 1307h216v-176h-216v176zM764.003 1307h218v-176h-218v176z" />
    <glyph glyph-name="yacute" unicode="&#xfd;" horiz-adv-x="1052" 
d="M788 1000l201.997 0.000976562l-384 -1066c-22 -67.333 -44.167 -123.166 -66.5 -167.499s-46.833 -79.833 -73.5 -106.5s-56.167 -45.334 -88.5 -56.001s-69.5 -16 -111.5 -16c-22 0 -43.667 1.66699 -65 5s-40.666 7.66602 -57.999 12.999l19 136
c11.333 0 24.333 -1.33301 39 -4s30 -4 46 -4c22 0 41 3 57 9s30.833 16.833 44.5 32.5s27.334 37.167 41.001 64.5s28.834 62.333 45.501 105l-371 1055h202l256 -799zM653.997 1440l213 -60l-285 -248l-141 40z" />
    <glyph glyph-name="thorn" unicode="&#xfe;" horiz-adv-x="1123" 
d="M108 1400l196.999 0.000976562v-490c18.667 17.333 37.667 32.833 57 46.5s40.5 25.167 63.5 34.5s48.667 16.5 77 21.5s61.166 7.5 98.499 7.5c62.667 0 119.834 -12.333 171.501 -37s95.667 -59.5 132 -104.5s64.5 -99.333 84.5 -163s30 -134.834 30 -213.501
s-10 -150 -30 -214s-48.167 -118.833 -84.5 -164.5s-80.333 -81 -132 -106s-108.834 -37.5 -171.501 -37.5c-35.333 0 -67.166 2.5 -95.499 7.5s-54.166 12.167 -77.499 21.5s-45 20.833 -65 34.5s-39.333 29.167 -58 46.5v-490h-197v1800zM816.999 502.001
c0 60.667 -5.33301 114.167 -16 160.5s-27.334 85.166 -50.001 116.499s-52 55 -88 71s-79 24 -129 24c-46 0 -88.167 -7.5 -126.5 -22.5s-72.5 -34.167 -102.5 -57.5v-588c30 -23.333 64.167 -42.5 102.5 -57.5s80.5 -22.5 126.5 -22.5c50 0 93 8.16699 129 24.5
s65.333 40.5 88 72.5s39.334 71.333 50.001 118s16 100.334 16 161.001z" />
    <glyph glyph-name="ydieresis" unicode="&#xff;" horiz-adv-x="1052" 
d="M788 1000l201.997 0.000976562l-384 -1066c-22 -67.333 -44.167 -123.166 -66.5 -167.499s-46.833 -79.833 -73.5 -106.5s-56.167 -45.334 -88.5 -56.001s-69.5 -16 -111.5 -16c-22 0 -43.667 1.66699 -65 5s-40.666 7.66602 -57.999 12.999l19 136
c11.333 0 24.333 -1.33301 39 -4s30 -4 46 -4c22 0 41 3 57 9s30.833 16.833 44.5 32.5s27.334 37.167 41.001 64.5s28.834 62.333 45.501 105l-371 1055h202l256 -799zM200.997 1307h216v-176h-216v176zM687.997 1307h218v-176h-218v176z" />
    <glyph glyph-name="Amacron" unicode="&#x100;" horiz-adv-x="1335" 
d="M950 346h-562l-120 -346h-196l496 1360h200l499 -1360h-196zM439 492h460l-230 658zM280 1618h772v-146h-772v146z" />
    <glyph glyph-name="amacron" unicode="&#x101;" horiz-adv-x="1105" 
d="M746 598l-0.000976562 24.001c0 46.667 -4.16699 85.5 -12.5 116.5s-21.333 55.667 -39 74s-40.334 31.166 -68.001 38.499s-61.167 11 -100.5 11c-26 0 -52.833 -1.66699 -80.5 -5s-54.334 -8 -80.001 -14s-50 -12.667 -73 -20s-42.833 -15 -59.5 -23l-43 136
c22 12.667 47.167 24.167 75.5 34.5s58 19.166 89 26.499s62.667 13 95 17s63.833 6 94.5 6c60.667 0 115.5 -6 164.5 -18s90.833 -33 125.5 -63s61.334 -70.667 80.001 -122s28 -116.333 28 -195v-622h-151l-27 108c-13.333 -11.333 -31 -24.166 -53 -38.499
s-47.5 -28 -76.5 -41s-61.5 -24 -97.5 -33s-75 -13.5 -117 -13.5c-52 0 -97.833 8 -137.5 24s-72.667 37.667 -99 65s-46.166 59 -59.499 95s-20 74 -20 114c0 42.667 10.667 83.167 32 121.5s50.833 72 88.5 101s82.334 52.167 134.001 69.5s108.167 26 169.5 26h218z
M471.999 128.001c35.333 0 68.002 3.99512 98.002 11.9951s56.667 17.5 80 28.5s43.166 22.167 59.499 33.5s28.5 20 36.5 26v246h-194c-51.333 -0.666992 -93.333 -8.66699 -126 -24s-58.334 -33.666 -77.001 -54.999s-31.5 -43.166 -38.5 -65.499
s-10.5 -40.833 -10.5 -55.5c0 -23.333 4.33301 -44.166 13 -62.499s20.667 -33.666 36 -45.999s33.5 -21.666 54.5 -27.999s43.833 -9.5 68.5 -9.5zM175.001 1297h772v-146h-772v146z" />
    <glyph glyph-name="Abreve" unicode="&#x102;" horiz-adv-x="1335" 
d="M950 346h-562l-120 -346h-196l496 1360h200l499 -1360h-196zM439 492h460l-230 658zM669 1468c-50.667 -0.666992 -97 4.16602 -139 14.499s-78.167 25.666 -108.5 45.999s-53.833 45.666 -70.5 75.999s-25 65.5 -25 105.5h154c0 -41.333 16 -74.333 48 -99
s79 -37 141 -37c64.667 0 112.834 12.333 144.501 37s47.5 57.667 47.5 99h153c0 -40 -8.33301 -75.167 -25 -105.5s-40.334 -55.666 -71.001 -75.999s-67.167 -35.666 -109.5 -45.999s-88.833 -15.166 -139.5 -14.499z" />
    <glyph glyph-name="abreve" unicode="&#x103;" horiz-adv-x="1105" 
d="M746 598l-0.000976562 24.001c0 46.667 -4.16699 85.5 -12.5 116.5s-21.333 55.667 -39 74s-40.334 31.166 -68.001 38.499s-61.167 11 -100.5 11c-26 0 -52.833 -1.66699 -80.5 -5s-54.334 -8 -80.001 -14s-50 -12.667 -73 -20s-42.833 -15 -59.5 -23l-43 136
c22 12.667 47.167 24.167 75.5 34.5s58 19.166 89 26.499s62.667 13 95 17s63.833 6 94.5 6c60.667 0 115.5 -6 164.5 -18s90.833 -33 125.5 -63s61.334 -70.667 80.001 -122s28 -116.333 28 -195v-622h-151l-27 108c-13.333 -11.333 -31 -24.166 -53 -38.499
s-47.5 -28 -76.5 -41s-61.5 -24 -97.5 -33s-75 -13.5 -117 -13.5c-52 0 -97.833 8 -137.5 24s-72.667 37.667 -99 65s-46.166 59 -59.499 95s-20 74 -20 114c0 42.667 10.667 83.167 32 121.5s50.833 72 88.5 101s82.334 52.167 134.001 69.5s108.167 26 169.5 26h218z
M471.999 128.001c35.333 0 68.002 3.99512 98.002 11.9951s56.667 17.5 80 28.5s43.166 22.167 59.499 33.5s28.5 20 36.5 26v246h-194c-51.333 -0.666992 -93.333 -8.66699 -126 -24s-58.334 -33.666 -77.001 -54.999s-31.5 -43.166 -38.5 -65.499
s-10.5 -40.833 -10.5 -55.5c0 -23.333 4.33301 -44.166 13 -62.499s20.667 -33.666 36 -45.999s33.5 -21.666 54.5 -27.999s43.833 -9.5 68.5 -9.5zM564.001 1146c-50.667 -0.666992 -97 4.16602 -139 14.499s-78.167 25.666 -108.5 45.999s-53.833 45.666 -70.5 75.999
s-25 65.5 -25 105.5h154c0 -41.333 16 -74.333 48 -99s79 -37 141 -37c64.667 0 112.834 12.333 144.501 37s47.5 57.667 47.5 99h153c0 -40 -8.33301 -75.167 -25 -105.5s-40.334 -55.666 -71.001 -75.999s-67.167 -35.666 -109.5 -45.999s-88.833 -15.166 -139.5 -14.499z
" />
    <glyph glyph-name="Aogonek" unicode="&#x104;" horiz-adv-x="1335" 
d="M950 346h-562l-120 -346h-196l496 1360h200l499 -1360h-196zM439 492h460l-230 658zM1272 0c-56 -22 -98.666 -49.1689 -127.999 -81.502s-44 -70.5 -44 -114.5c0 -11.333 2.16699 -21.333 6.5 -30s10 -16.167 17 -22.5s14.667 -11.166 23 -14.499s16.833 -5 25.5 -5
c10.667 0 19.334 0.166992 26.001 0.5s12.667 1 18 2s10.5 2.16699 15.5 3.5s11.167 3.33301 18.5 6l22 -112c-4 -2.66699 -10.5 -5.33398 -19.5 -8.00098s-19.333 -5 -31 -7s-24.334 -3.66699 -38.001 -5s-26.834 -2 -39.501 -2c-66 0 -117.333 15.833 -154 47.5
s-55 75.834 -55 132.501c0 32.667 5.5 62.834 16.5 90.501s25.833 52.334 44.5 74.001s40.667 40.167 66 55.5s52 26.666 80 33.999l130 -40v-4z" />
    <glyph glyph-name="aogonek" unicode="&#x105;" horiz-adv-x="1105" 
d="M746 598l-0.000976562 24.001c0 46.667 -4.16699 85.5 -12.5 116.5s-21.333 55.667 -39 74s-40.334 31.166 -68.001 38.499s-61.167 11 -100.5 11c-26 0 -52.833 -1.66699 -80.5 -5s-54.334 -8 -80.001 -14s-50 -12.667 -73 -20s-42.833 -15 -59.5 -23l-43 136
c22 12.667 47.167 24.167 75.5 34.5s58 19.166 89 26.499s62.667 13 95 17s63.833 6 94.5 6c60.667 0 115.5 -6 164.5 -18s90.833 -33 125.5 -63s61.334 -70.667 80.001 -122s28 -116.333 28 -195v-622h-151l-27 108c-13.333 -11.333 -31 -24.166 -53 -38.499
s-47.5 -28 -76.5 -41s-61.5 -24 -97.5 -33s-75 -13.5 -117 -13.5c-52 0 -97.833 8 -137.5 24s-72.667 37.667 -99 65s-46.166 59 -59.499 95s-20 74 -20 114c0 42.667 10.667 83.167 32 121.5s50.833 72 88.5 101s82.334 52.167 134.001 69.5s108.167 26 169.5 26h218z
M471.999 128.001c35.333 0 68.002 3.99512 98.002 11.9951s56.667 17.5 80 28.5s43.166 22.167 59.499 33.5s28.5 20 36.5 26v246h-194c-51.333 -0.666992 -93.333 -8.66699 -126 -24s-58.334 -33.666 -77.001 -54.999s-31.5 -43.166 -38.5 -65.499
s-10.5 -40.833 -10.5 -55.5c0 -23.333 4.33301 -44.166 13 -62.499s20.667 -33.666 36 -45.999s33.5 -21.666 54.5 -27.999s43.833 -9.5 68.5 -9.5zM949.001 -0.00390625c-56 -22 -98.666 -49.1689 -127.999 -81.502s-44 -70.5 -44 -114.5
c0 -11.333 2.16699 -21.333 6.5 -30s10 -16.167 17 -22.5s14.667 -11.166 23 -14.499s16.833 -5 25.5 -5c10.667 0 19.334 0.166992 26.001 0.5s12.667 1 18 2s10.5 2.16699 15.5 3.5s11.167 3.33301 18.5 6l22 -112c-4 -2.66699 -10.5 -5.33398 -19.5 -8.00098
s-19.333 -5 -31 -7s-24.334 -3.66699 -38.001 -5s-26.834 -2 -39.501 -2c-66 0 -117.333 15.833 -154 47.5s-55 75.834 -55 132.501c0 32.667 5.5 62.834 16.5 90.501s25.833 52.334 44.5 74.001s40.667 40.167 66 55.5s52 26.666 80 33.999l130 -40v-4z" />
    <glyph glyph-name="Cacute" unicode="&#x106;" horiz-adv-x="1122" 
d="M121 682c0 105.333 14.5049 201.002 43.5049 287.002s70.5 159.5 124.5 220.5s119.5 108 196.5 141s163.833 49.5 260.5 49.5c34 0 64.833 -1.83301 92.5 -5.5s53 -8.5 76 -14.5s44.167 -13 63.5 -21s37.666 -16.333 54.999 -25l-55 -130
c-32.667 15.333 -67.834 27.5 -105.501 36.5s-79.834 13.5 -126.501 13.5c-64 0 -122.333 -10.667 -175 -32s-97.834 -54.5 -135.501 -99.5s-66.834 -102.167 -87.501 -171.5s-31 -152.333 -31 -249s10.833 -180 32.5 -250s52.167 -127.667 91.5 -173
s86.666 -78.833 141.999 -100.5s117 -32.5 185 -32.5c28.667 0 55.167 1.83301 79.5 5.5s46.833 8.5 67.5 14.5s39.667 12.5 57 19.5s33.333 13.833 48 20.5l42 -128c-35.333 -22 -78.166 -40.5 -128.499 -55.5s-112.833 -22.5 -187.5 -22.5
c-96.667 0 -183.5 16.833 -260.5 50.5s-142.5 81.167 -196.5 142.5s-95.5 135.166 -124.5 221.499s-43.5 182.166 -43.5 287.499zM862.005 1800l213 -60l-285 -248l-141 40z" />
    <glyph glyph-name="cacute" unicode="&#x107;" horiz-adv-x="962" 
d="M115 502c0 78.667 11.334 149.832 34.001 213.499s55.334 118 98.001 163s94.5 79.833 155.5 104.5s129.833 37 206.5 37c63.333 0 118.166 -4.66699 164.499 -14s85.166 -22.666 116.499 -39.999l-55 -136l-37.5 16c-13 5.33301 -27.5 10 -43.5 14
s-34.167 7.33301 -54.5 10s-43.5 4 -69.5 4c-48 0 -91.5 -7.16699 -130.5 -21.5s-72.5 -36.666 -100.5 -66.999s-49.667 -69 -65 -116s-23 -102.833 -23 -167.5c0 -65.333 7.66699 -121.5 23 -168.5s37 -86 65 -117s61.5 -53.833 100.5 -68.5s82.5 -22 130.5 -22
c56 0 103 4.66699 141 14s71.667 20.666 101 33.999l49 -128c-32 -20 -72.167 -36 -120.5 -48s-105.166 -18 -170.499 -18c-80 0 -151.667 12.5 -215 37.5s-117.333 60.333 -162 106s-78.834 100.5 -102.501 164.5s-35.5 135.333 -35.5 214zM711.001 1460l213 -60l-285 -248
l-141 40z" />
    <glyph glyph-name="Ccircumflex" unicode="&#x108;" horiz-adv-x="1122" 
d="M121 682c0 105.333 14.5049 201.002 43.5049 287.002s70.5 159.5 124.5 220.5s119.5 108 196.5 141s163.833 49.5 260.5 49.5c34 0 64.833 -1.83301 92.5 -5.5s53 -8.5 76 -14.5s44.167 -13 63.5 -21s37.666 -16.333 54.999 -25l-55 -130
c-32.667 15.333 -67.834 27.5 -105.501 36.5s-79.834 13.5 -126.501 13.5c-64 0 -122.333 -10.667 -175 -32s-97.834 -54.5 -135.501 -99.5s-66.834 -102.167 -87.501 -171.5s-31 -152.333 -31 -249s10.833 -180 32.5 -250s52.167 -127.667 91.5 -173
s86.666 -78.833 141.999 -100.5s117 -32.5 185 -32.5c28.667 0 55.167 1.83301 79.5 5.5s46.833 8.5 67.5 14.5s39.667 12.5 57 19.5s33.333 13.833 48 20.5l42 -128c-35.333 -22 -78.166 -40.5 -128.499 -55.5s-112.833 -22.5 -187.5 -22.5
c-96.667 0 -183.5 16.833 -260.5 50.5s-142.5 81.167 -196.5 142.5s-95.5 135.166 -124.5 221.499s-43.5 182.166 -43.5 287.499zM608.005 1490h-208l298 232h123l295 -232h-205l-152 117z" />
    <glyph glyph-name="ccircumflex" unicode="&#x109;" horiz-adv-x="962" 
d="M115 502c0 78.667 11.334 149.832 34.001 213.499s55.334 118 98.001 163s94.5 79.833 155.5 104.5s129.833 37 206.5 37c63.333 0 118.166 -4.66699 164.499 -14s85.166 -22.666 116.499 -39.999l-55 -136l-37.5 16c-13 5.33301 -27.5 10 -43.5 14
s-34.167 7.33301 -54.5 10s-43.5 4 -69.5 4c-48 0 -91.5 -7.16699 -130.5 -21.5s-72.5 -36.666 -100.5 -66.999s-49.667 -69 -65 -116s-23 -102.833 -23 -167.5c0 -65.333 7.66699 -121.5 23 -168.5s37 -86 65 -117s61.5 -53.833 100.5 -68.5s82.5 -22 130.5 -22
c56 0 103 4.66699 141 14s71.667 20.666 101 33.999l49 -128c-32 -20 -72.167 -36 -120.5 -48s-105.166 -18 -170.499 -18c-80 0 -151.667 12.5 -215 37.5s-117.333 60.333 -162 106s-78.834 100.5 -102.501 164.5s-35.5 135.333 -35.5 214zM457.001 1150h-208l298 232h123
l295 -232h-205l-152 117z" />
    <glyph glyph-name="Cdotaccent" unicode="&#x10a;" horiz-adv-x="1122" 
d="M121 682c0 105.333 14.5049 201.002 43.5049 287.002s70.5 159.5 124.5 220.5s119.5 108 196.5 141s163.833 49.5 260.5 49.5c34 0 64.833 -1.83301 92.5 -5.5s53 -8.5 76 -14.5s44.167 -13 63.5 -21s37.666 -16.333 54.999 -25l-55 -130
c-32.667 15.333 -67.834 27.5 -105.501 36.5s-79.834 13.5 -126.501 13.5c-64 0 -122.333 -10.667 -175 -32s-97.834 -54.5 -135.501 -99.5s-66.834 -102.167 -87.501 -171.5s-31 -152.333 -31 -249s10.833 -180 32.5 -250s52.167 -127.667 91.5 -173
s86.666 -78.833 141.999 -100.5s117 -32.5 185 -32.5c28.667 0 55.167 1.83301 79.5 5.5s46.833 8.5 67.5 14.5s39.667 12.5 57 19.5s33.333 13.833 48 20.5l42 -128c-35.333 -22 -78.166 -40.5 -128.499 -55.5s-112.833 -22.5 -187.5 -22.5
c-96.667 0 -183.5 16.833 -260.5 50.5s-142.5 81.167 -196.5 142.5s-95.5 135.166 -124.5 221.499s-43.5 182.166 -43.5 287.499zM625.005 1666h218v-176h-218v176z" />
    <glyph glyph-name="cdotaccent" unicode="&#x10b;" horiz-adv-x="962" 
d="M115 502c0 78.667 11.334 149.832 34.001 213.499s55.334 118 98.001 163s94.5 79.833 155.5 104.5s129.833 37 206.5 37c63.333 0 118.166 -4.66699 164.499 -14s85.166 -22.666 116.499 -39.999l-55 -136l-37.5 16c-13 5.33301 -27.5 10 -43.5 14
s-34.167 7.33301 -54.5 10s-43.5 4 -69.5 4c-48 0 -91.5 -7.16699 -130.5 -21.5s-72.5 -36.666 -100.5 -66.999s-49.667 -69 -65 -116s-23 -102.833 -23 -167.5c0 -65.333 7.66699 -121.5 23 -168.5s37 -86 65 -117s61.5 -53.833 100.5 -68.5s82.5 -22 130.5 -22
c56 0 103 4.66699 141 14s71.667 20.666 101 33.999l49 -128c-32 -20 -72.167 -36 -120.5 -48s-105.166 -18 -170.499 -18c-80 0 -151.667 12.5 -215 37.5s-117.333 60.333 -162 106s-78.834 100.5 -102.501 164.5s-35.5 135.333 -35.5 214zM474.001 1327h218v-176h-218v176
z" />
    <glyph glyph-name="Ccaron" unicode="&#x10c;" horiz-adv-x="1122" 
d="M121 682c0 105.333 14.5049 201.002 43.5049 287.002s70.5 159.5 124.5 220.5s119.5 108 196.5 141s163.833 49.5 260.5 49.5c34 0 64.833 -1.83301 92.5 -5.5s53 -8.5 76 -14.5s44.167 -13 63.5 -21s37.666 -16.333 54.999 -25l-55 -130
c-32.667 15.333 -67.834 27.5 -105.501 36.5s-79.834 13.5 -126.501 13.5c-64 0 -122.333 -10.667 -175 -32s-97.834 -54.5 -135.501 -99.5s-66.834 -102.167 -87.501 -171.5s-31 -152.333 -31 -249s10.833 -180 32.5 -250s52.167 -127.667 91.5 -173
s86.666 -78.833 141.999 -100.5s117 -32.5 185 -32.5c28.667 0 55.167 1.83301 79.5 5.5s46.833 8.5 67.5 14.5s39.667 12.5 57 19.5s33.333 13.833 48 20.5l42 -128c-35.333 -22 -78.166 -40.5 -128.499 -55.5s-112.833 -22.5 -187.5 -22.5
c-96.667 0 -183.5 16.833 -260.5 50.5s-142.5 81.167 -196.5 142.5s-95.5 135.166 -124.5 221.499s-43.5 182.166 -43.5 287.499zM899.005 1724h205l-295 -232h-123l-298 232h208l151 -129z" />
    <glyph glyph-name="ccaron" unicode="&#x10d;" horiz-adv-x="962" 
d="M115 502c0 78.667 11.334 149.832 34.001 213.499s55.334 118 98.001 163s94.5 79.833 155.5 104.5s129.833 37 206.5 37c63.333 0 118.166 -4.66699 164.499 -14s85.166 -22.666 116.499 -39.999l-55 -136l-37.5 16c-13 5.33301 -27.5 10 -43.5 14
s-34.167 7.33301 -54.5 10s-43.5 4 -69.5 4c-48 0 -91.5 -7.16699 -130.5 -21.5s-72.5 -36.666 -100.5 -66.999s-49.667 -69 -65 -116s-23 -102.833 -23 -167.5c0 -65.333 7.66699 -121.5 23 -168.5s37 -86 65 -117s61.5 -53.833 100.5 -68.5s82.5 -22 130.5 -22
c56 0 103 4.66699 141 14s71.667 20.666 101 33.999l49 -128c-32 -20 -72.167 -36 -120.5 -48s-105.166 -18 -170.499 -18c-80 0 -151.667 12.5 -215 37.5s-117.333 60.333 -162 106s-78.834 100.5 -102.501 164.5s-35.5 135.333 -35.5 214zM748.001 1384h205l-295 -232
h-123l-298 232h208l151 -129z" />
    <glyph glyph-name="Dcaron" unicode="&#x10e;" horiz-adv-x="1388" 
d="M183 1360l420 0.00292969c99.333 0 189.166 -16.167 269.499 -48.5s148.666 -78 204.999 -137s99.833 -130.167 130.5 -213.5s46 -176.333 46 -279s-15.333 -195.834 -46 -279.501s-74.167 -155.334 -130.5 -215.001s-124.666 -105.834 -204.999 -138.501
s-170.166 -49 -269.499 -49h-420v1360zM379 1214v-1068h202c70.667 0 135.334 10.5 194.001 31.5s109 53.333 151 97s74.5 99.167 97.5 166.5s34.5 147.666 34.5 240.999c0 92.667 -11.5 172.667 -34.5 240s-55.5 122.5 -97.5 165.5s-92.333 74.833 -151 95.5
s-123.334 31 -194.001 31h-202zM726 1704h205l-295 -232h-123l-298 232h208l151 -129z" />
    <glyph glyph-name="dcaron" unicode="&#x10f;" horiz-adv-x="1354" 
d="M840 87c-18 -17.333 -36.501 -32.501 -55.501 -45.501s-39.833 -24.167 -62.5 -33.5s-48 -16.333 -76 -21s-60 -7 -96 -7c-63.333 0 -120.5 12.5 -171.5 37.5s-94.333 60.333 -130 106s-63.167 100.5 -82.5 164.5s-29 135.333 -29 214s9.66699 149.834 29 213.501
s46.833 118 82.5 163s79 79.833 130 104.5s108.167 37 171.5 37c33.333 0 63.333 -2.33301 90 -7s51.334 -11.167 74.001 -19.5s43.5 -18.833 62.5 -31.5s37.5 -27 55.5 -43v481h196v-1400h-173zM332.999 501.999c0 -60.667 5.16699 -114.332 15.5 -160.999
s26.666 -86 48.999 -118s51.333 -56.167 87 -72.5s78.834 -24.5 129.501 -24.5c43.333 0 83 6.66699 119 20s69 30.666 99 51.999v604c-30 21.333 -63 38.666 -99 51.999s-75.667 20 -119 20c-50.667 0 -93.834 -8 -129.501 -24s-64.667 -39.667 -87 -71
s-38.666 -70.166 -48.999 -116.499s-15.5 -99.833 -15.5 -160.5zM1205 1401h223l-177 -468l-140 20z" />
    <glyph glyph-name="Dcroat" unicode="&#x110;" horiz-adv-x="1421" 
d="M242 630l-134 0.00292969v146h134v584h420c99.333 0 189.166 -16.167 269.499 -48.5s148.666 -78 204.999 -137s99.833 -130.167 130.5 -213.5s46 -176.333 46 -279s-15.333 -195.834 -46 -279.501s-74.167 -155.334 -130.5 -215.001
s-124.666 -105.834 -204.999 -138.501s-170.166 -49 -269.499 -49h-420v630zM438 630.003v-483.999h202c70.667 0 135.334 10.5 194.001 31.5s109 53.333 151 97s74.5 99.167 97.5 166.5s34.5 147.666 34.5 240.999c0 92.667 -11.5 172.667 -34.5 240
s-55.5 122.5 -97.5 165.5s-92.333 74.833 -151 95.5s-123.334 31 -194.001 31h-202v-438h281v-146h-281z" />
    <glyph glyph-name="dcroat" unicode="&#x111;" horiz-adv-x="1187" 
d="M827 87c-18 -17.333 -36.501 -32.501 -55.501 -45.501s-39.833 -24.167 -62.5 -33.5s-48 -16.333 -76 -21s-60 -7 -96 -7c-63.333 0 -120.5 12.5 -171.5 37.5s-94.333 60.333 -130 106s-63.167 100.5 -82.5 164.5s-29 135.333 -29 214s9.66699 149.834 29 213.501
s46.833 118 82.5 163s79 79.833 130 104.5s108.167 37 171.5 37c33.333 0 63.333 -2.33301 90 -7s51.334 -11.167 74.001 -19.5s43.5 -18.833 62.5 -31.5s37.5 -27 55.5 -43v481h196v-1400h-173zM319.999 501.999c0 -60.667 5.16699 -114.332 15.5 -160.999
s26.666 -86 48.999 -118s51.333 -56.167 87 -72.5s78.834 -24.5 129.501 -24.5c43.333 0 83 6.66699 119 20s69 30.666 99 51.999v604c-30 21.333 -63 38.666 -99 51.999s-75.667 20 -119 20c-50.667 0 -93.834 -8 -129.501 -24s-64.667 -39.667 -87 -71
s-38.666 -70.166 -48.999 -116.499s-15.5 -99.833 -15.5 -160.5zM425.999 1269h772v-146h-772v146z" />
    <glyph glyph-name="Emacron" unicode="&#x112;" horiz-adv-x="1074" 
d="M183 0v1360h801v-146h-605v-444h540v-146h-540v-478h605v-146h-801zM192 1616h772v-146h-772v146z" />
    <glyph glyph-name="emacron" unicode="&#x113;" horiz-adv-x="1111" 
d="M309 476c2.66699 -111.333 30.833 -197.499 84.5 -258.499s131.167 -91.5 232.5 -91.5c34 0 65.167 1.83301 93.5 5.5s54.166 8.16699 77.499 13.5s44.333 11.333 63 18s35.667 13 51 19l47 -128c-41.333 -23.333 -90.666 -41.5 -147.999 -54.5
s-118.666 -19.5 -183.999 -19.5c-81.333 0 -153.833 11.5 -217.5 34.5s-117.334 56.333 -161.001 100s-77 97.167 -100 160.5s-34.5 135.666 -34.5 216.999c0 83.333 11.167 157.833 33.5 223.5s54 121 95 166s90.5 79.333 148.5 103s123 35.5 195 35.5
c58.667 0 113.667 -9 165 -27s96 -44 134 -78s68 -75.667 90 -125s33 -105.333 33 -168v-146h-698zM584.999 874.001c-36 0 -68.833 -4 -98.5 -12s-56 -21.833 -79 -41.5s-42.167 -45.667 -57.5 -78s-26.333 -72.5 -33 -120.5h494c0 46 -6.33301 85 -19 117
s-29.5 58 -50.5 78s-45 34.5 -72 43.5s-55.167 13.5 -84.5 13.5zM165.999 1297h772v-146h-772v146z" />
    <glyph glyph-name="Edotaccent" unicode="&#x116;" horiz-adv-x="1074" 
d="M183 0v1360h801v-146h-605v-444h540v-146h-540v-478h605v-146h-801zM472 1646h218v-176h-218v176z" />
    <glyph glyph-name="edotaccent" unicode="&#x117;" horiz-adv-x="1111" 
d="M309 476c2.66699 -111.333 30.833 -197.499 84.5 -258.499s131.167 -91.5 232.5 -91.5c34 0 65.167 1.83301 93.5 5.5s54.166 8.16699 77.499 13.5s44.333 11.333 63 18s35.667 13 51 19l47 -128c-41.333 -23.333 -90.666 -41.5 -147.999 -54.5
s-118.666 -19.5 -183.999 -19.5c-81.333 0 -153.833 11.5 -217.5 34.5s-117.334 56.333 -161.001 100s-77 97.167 -100 160.5s-34.5 135.666 -34.5 216.999c0 83.333 11.167 157.833 33.5 223.5s54 121 95 166s90.5 79.333 148.5 103s123 35.5 195 35.5
c58.667 0 113.667 -9 165 -27s96 -44 134 -78s68 -75.667 90 -125s33 -105.333 33 -168v-146h-698zM584.999 874.001c-36 0 -68.833 -4 -98.5 -12s-56 -21.833 -79 -41.5s-42.167 -45.667 -57.5 -78s-26.333 -72.5 -33 -120.5h494c0 46 -6.33301 85 -19 117
s-29.5 58 -50.5 78s-45 34.5 -72 43.5s-55.167 13.5 -84.5 13.5zM445.999 1327h218v-176h-218v176z" />
    <glyph glyph-name="Eogonek" unicode="&#x118;" horiz-adv-x="1074" 
d="M183 0v1360h801v-146h-605v-444h540v-146h-540v-478h605v-146h-801zM985 0c-56 -22 -98.666 -49.1689 -127.999 -81.502s-44 -70.5 -44 -114.5c0 -11.333 2.16699 -21.333 6.5 -30s10 -16.167 17 -22.5s14.667 -11.166 23 -14.499s16.833 -5 25.5 -5
c10.667 0 19.334 0.166992 26.001 0.5s12.667 1 18 2s10.5 2.16699 15.5 3.5s11.167 3.33301 18.5 6l22 -112c-4 -2.66699 -10.5 -5.33398 -19.5 -8.00098s-19.333 -5 -31 -7s-24.334 -3.66699 -38.001 -5s-26.834 -2 -39.501 -2c-66 0 -117.333 15.833 -154 47.5
s-55 75.834 -55 132.501c0 32.667 5.5 62.834 16.5 90.501s25.833 52.334 44.5 74.001s40.667 40.167 66 55.5s52 26.666 80 33.999l130 -40v-4z" />
    <glyph glyph-name="eogonek" unicode="&#x119;" horiz-adv-x="1111" 
d="M309 476c2.66699 -111.333 30.833 -197.499 84.5 -258.499s131.167 -91.5 232.5 -91.5c34 0 65.167 1.83301 93.5 5.5s54.166 8.16699 77.499 13.5s44.333 11.333 63 18s35.667 13 51 19l47 -128c-41.333 -23.333 -90.666 -41.5 -147.999 -54.5
s-118.666 -19.5 -183.999 -19.5c-81.333 0 -153.833 11.5 -217.5 34.5s-117.334 56.333 -161.001 100s-77 97.167 -100 160.5s-34.5 135.666 -34.5 216.999c0 83.333 11.167 157.833 33.5 223.5s54 121 95 166s90.5 79.333 148.5 103s123 35.5 195 35.5
c58.667 0 113.667 -9 165 -27s96 -44 134 -78s68 -75.667 90 -125s33 -105.333 33 -168v-146h-698zM584.999 874.001c-36 0 -68.833 -4 -98.5 -12s-56 -21.833 -79 -41.5s-42.167 -45.667 -57.5 -78s-26.333 -72.5 -33 -120.5h494c0 46 -6.33301 85 -19 117
s-29.5 58 -50.5 78s-45 34.5 -72 43.5s-55.167 13.5 -84.5 13.5zM817.999 0.000976562c-56 -22 -98.666 -49.1689 -127.999 -81.502s-44 -70.5 -44 -114.5c0 -11.333 2.16699 -21.333 6.5 -30s10 -16.167 17 -22.5s14.667 -11.166 23 -14.499s16.833 -5 25.5 -5
c10.667 0 19.334 0.166992 26.001 0.5s12.667 1 18 2s10.5 2.16699 15.5 3.5s11.167 3.33301 18.5 6l22 -112c-4 -2.66699 -10.5 -5.33398 -19.5 -8.00098s-19.333 -5 -31 -7s-24.334 -3.66699 -38.001 -5s-26.834 -2 -39.501 -2c-66 0 -117.333 15.833 -154 47.5
s-55 75.834 -55 132.501c0 32.667 5.5 62.834 16.5 90.501s25.833 52.334 44.5 74.001s40.667 40.167 66 55.5s52 26.666 80 33.999l130 -40v-4z" />
    <glyph glyph-name="Ecaron" unicode="&#x11a;" horiz-adv-x="1074" 
d="M183 0v1360h801v-146h-605v-444h540v-146h-540v-478h605v-146h-801zM746 1704h205l-295 -232h-123l-298 232h208l151 -129z" />
    <glyph glyph-name="ecaron" unicode="&#x11b;" horiz-adv-x="1111" 
d="M309 476c2.66699 -111.333 30.833 -197.499 84.5 -258.499s131.167 -91.5 232.5 -91.5c34 0 65.167 1.83301 93.5 5.5s54.166 8.16699 77.499 13.5s44.333 11.333 63 18s35.667 13 51 19l47 -128c-41.333 -23.333 -90.666 -41.5 -147.999 -54.5
s-118.666 -19.5 -183.999 -19.5c-81.333 0 -153.833 11.5 -217.5 34.5s-117.334 56.333 -161.001 100s-77 97.167 -100 160.5s-34.5 135.666 -34.5 216.999c0 83.333 11.167 157.833 33.5 223.5s54 121 95 166s90.5 79.333 148.5 103s123 35.5 195 35.5
c58.667 0 113.667 -9 165 -27s96 -44 134 -78s68 -75.667 90 -125s33 -105.333 33 -168v-146h-698zM584.999 874.001c-36 0 -68.833 -4 -98.5 -12s-56 -21.833 -79 -41.5s-42.167 -45.667 -57.5 -78s-26.333 -72.5 -33 -120.5h494c0 46 -6.33301 85 -19 117
s-29.5 58 -50.5 78s-45 34.5 -72 43.5s-55.167 13.5 -84.5 13.5zM719.999 1384h205l-295 -232h-123l-298 232h208l151 -129z" />
    <glyph glyph-name="Gcircumflex" unicode="&#x11c;" horiz-adv-x="1369" 
d="M723 690l492.006 -0.000976562v-622c-65.333 -27.333 -132.666 -48.833 -201.999 -64.5s-145 -23.5 -227 -23.5c-103.333 0 -195.5 18.667 -276.5 56s-149.667 88 -206 152s-99.333 138.333 -129 223s-44.5 174.334 -44.5 269.001c0 107.333 16.167 204.166 48.5 290.499
s78.666 159.833 138.999 220.5s134 107.334 221 140.001s185.167 49 294.5 49c34.667 0 66.667 -1.66699 96 -5s56.166 -7.66602 80.499 -12.999s46.166 -11.333 65.499 -18s36.666 -13.334 51.999 -20.001l-41 -138c-30.667 11.333 -67 22.166 -109 32.499
s-90 15.5 -144 15.5c-80 0 -151.333 -11.833 -214 -35.5s-115.834 -58.667 -159.501 -105s-76.834 -104.166 -99.501 -173.499s-34 -149.333 -34 -240c0 -71.333 10.167 -140.333 30.5 -207s50 -125.667 89 -177s87.167 -92.5 144.5 -123.5s122.666 -46.5 195.999 -46.5
c43.333 0 84 2.33301 122 7s75 13.667 111 27v384h-296v146zM655.006 1488h-208l298 232h123l295 -232h-205l-152 117z" />
    <glyph glyph-name="gcircumflex" unicode="&#x11d;" horiz-adv-x="1190" 
d="M141 656c0 59.333 10.835 111.668 32.502 157.001s52 83.333 91 114s85.667 53.834 140 69.501s114.5 23.5 180.5 23.5c60 0 115.667 -6.66699 167 -20h370l-15 -128h-146c22 -28.667 38.833 -60.834 50.5 -96.501s17.5 -75.5 17.5 -119.5
c0 -57.333 -10.833 -108.5 -32.5 -153.5s-52 -83 -91 -114s-85.667 -54.833 -140 -71.5s-114.5 -25 -180.5 -25c-63.333 0 -122 7.66699 -176 23c-11.333 -12 -20 -25.833 -26 -41.5s-9 -34.167 -9 -55.5c0 -6 1 -13.333 3 -22s4.66699 -17.334 8 -26.001
s7.16602 -17 11.499 -25s8.5 -14.333 12.5 -19h296c64 0 120.333 -7.5 169 -22.5s89.167 -35.667 121.5 -62s56.333 -57.333 72 -93s22.834 -73.834 21.501 -114.501c-4 -45.333 -19 -87.333 -45 -126s-61.167 -72 -105.5 -100s-97 -50 -158 -66s-128.833 -24 -203.5 -24
c-38 0 -76.5 1.83301 -115.5 5.5s-76.667 9.83398 -113 18.501s-70.5 20 -102.5 34s-59.833 31.5 -83.5 52.5s-42.334 45.5 -56.001 73.5s-20.5 60.667 -20.5 98c0 50.667 13.667 96.667 41 138s71.666 77.333 132.999 108c-16 17.333 -30 37.333 -42 60s-18 48 -18 76
c0 40 9 74.333 27 103s42.333 54.667 73 78c-50 31.333 -89 71.5 -117 120.5s-42 106.5 -42 172.5zM337.002 656.002c0 -68 20.667 -121.333 62 -160s103.333 -58 186 -58s144.667 19.333 186 58s62 92 62 160c0 36.667 -6.16699 68.667 -18.5 96s-29.5 50 -51.5 68
s-48.167 31.5 -78.5 40.5s-63.5 13.5 -99.5 13.5s-69.167 -4.5 -99.5 -13.5s-56.5 -22.5 -78.5 -40.5s-39.167 -40.667 -51.5 -68s-18.5 -59.333 -18.5 -96zM386.002 -19.998c-17.333 -11.333 -32.3311 -22.4961 -44.998 -33.4961s-23.5 -23.333 -32.5 -37
s-15.667 -29 -20 -46s-6.5 -36.833 -6.5 -59.5c0 -20 5.16699 -37.333 15.5 -52s24 -27.167 41 -37.5s36.167 -18.833 57.5 -25.5s43 -11.834 65 -15.501s43.5 -6.16699 64.5 -7.5s39.5 -2 55.5 -2c47.333 0 90.166 4.16699 128.499 12.5s71.166 20 98.499 35
s48.333 32.667 63 53s22 42.166 22 65.499c0 21.333 -3 41.166 -9 59.499s-17.167 34.166 -33.5 47.499s-39 23.833 -68 31.5s-66.5 11.5 -112.5 11.5h-284zM461.004 1148.01h-208l298 232h123l295 -232h-205l-152 117z" />
    <glyph glyph-name="Gbreve" unicode="&#x11e;" horiz-adv-x="1369" 
d="M723 690l492.006 -0.000976562v-622c-65.333 -27.333 -132.666 -48.833 -201.999 -64.5s-145 -23.5 -227 -23.5c-103.333 0 -195.5 18.667 -276.5 56s-149.667 88 -206 152s-99.333 138.333 -129 223s-44.5 174.334 -44.5 269.001c0 107.333 16.167 204.166 48.5 290.499
s78.666 159.833 138.999 220.5s134 107.334 221 140.001s185.167 49 294.5 49c34.667 0 66.667 -1.66699 96 -5s56.166 -7.66602 80.499 -12.999s46.166 -11.333 65.499 -18s36.666 -13.334 51.999 -20.001l-41 -138c-30.667 11.333 -67 22.166 -109 32.499
s-90 15.5 -144 15.5c-80 0 -151.333 -11.833 -214 -35.5s-115.834 -58.667 -159.501 -105s-76.834 -104.166 -99.501 -173.499s-34 -149.333 -34 -240c0 -71.333 10.167 -140.333 30.5 -207s50 -125.667 89 -177s87.167 -92.5 144.5 -123.5s122.666 -46.5 195.999 -46.5
c43.333 0 84 2.33301 122 7s75 13.667 111 27v384h-296v146zM781.006 1484c-50.667 -0.666992 -97 4.16602 -139 14.499s-78.167 25.666 -108.5 45.999s-53.833 45.666 -70.5 75.999s-25 65.5 -25 105.5h154c0 -41.333 16 -74.333 48 -99s79 -37 141 -37
c64.667 0 112.834 12.333 144.501 37s47.5 57.667 47.5 99h153c0 -40 -8.33301 -75.167 -25 -105.5s-40.334 -55.666 -71.001 -75.999s-67.167 -35.666 -109.5 -45.999s-88.833 -15.166 -139.5 -14.499z" />
    <glyph glyph-name="gbreve" unicode="&#x11f;" horiz-adv-x="1190" 
d="M141 656c0 59.333 10.835 111.668 32.502 157.001s52 83.333 91 114s85.667 53.834 140 69.501s114.5 23.5 180.5 23.5c60 0 115.667 -6.66699 167 -20h370l-15 -128h-146c22 -28.667 38.833 -60.834 50.5 -96.501s17.5 -75.5 17.5 -119.5
c0 -57.333 -10.833 -108.5 -32.5 -153.5s-52 -83 -91 -114s-85.667 -54.833 -140 -71.5s-114.5 -25 -180.5 -25c-63.333 0 -122 7.66699 -176 23c-11.333 -12 -20 -25.833 -26 -41.5s-9 -34.167 -9 -55.5c0 -6 1 -13.333 3 -22s4.66699 -17.334 8 -26.001
s7.16602 -17 11.499 -25s8.5 -14.333 12.5 -19h296c64 0 120.333 -7.5 169 -22.5s89.167 -35.667 121.5 -62s56.333 -57.333 72 -93s22.834 -73.834 21.501 -114.501c-4 -45.333 -19 -87.333 -45 -126s-61.167 -72 -105.5 -100s-97 -50 -158 -66s-128.833 -24 -203.5 -24
c-38 0 -76.5 1.83301 -115.5 5.5s-76.667 9.83398 -113 18.501s-70.5 20 -102.5 34s-59.833 31.5 -83.5 52.5s-42.334 45.5 -56.001 73.5s-20.5 60.667 -20.5 98c0 50.667 13.667 96.667 41 138s71.666 77.333 132.999 108c-16 17.333 -30 37.333 -42 60s-18 48 -18 76
c0 40 9 74.333 27 103s42.333 54.667 73 78c-50 31.333 -89 71.5 -117 120.5s-42 106.5 -42 172.5zM337.002 656.002c0 -68 20.667 -121.333 62 -160s103.333 -58 186 -58s144.667 19.333 186 58s62 92 62 160c0 36.667 -6.16699 68.667 -18.5 96s-29.5 50 -51.5 68
s-48.167 31.5 -78.5 40.5s-63.5 13.5 -99.5 13.5s-69.167 -4.5 -99.5 -13.5s-56.5 -22.5 -78.5 -40.5s-39.167 -40.667 -51.5 -68s-18.5 -59.333 -18.5 -96zM386.002 -19.998c-17.333 -11.333 -32.3311 -22.4961 -44.998 -33.4961s-23.5 -23.333 -32.5 -37
s-15.667 -29 -20 -46s-6.5 -36.833 -6.5 -59.5c0 -20 5.16699 -37.333 15.5 -52s24 -27.167 41 -37.5s36.167 -18.833 57.5 -25.5s43 -11.834 65 -15.501s43.5 -6.16699 64.5 -7.5s39.5 -2 55.5 -2c47.333 0 90.166 4.16699 128.499 12.5s71.166 20 98.499 35
s48.333 32.667 63 53s22 42.166 22 65.499c0 21.333 -3 41.166 -9 59.499s-17.167 34.166 -33.5 47.499s-39 23.833 -68 31.5s-66.5 11.5 -112.5 11.5h-284zM587.004 1144.01c-50.667 -0.666992 -97 4.16602 -139 14.499s-78.167 25.666 -108.5 45.999
s-53.833 45.666 -70.5 75.999s-25 65.5 -25 105.5h154c0 -41.333 16 -74.333 48 -99s79 -37 141 -37c64.667 0 112.834 12.333 144.501 37s47.5 57.667 47.5 99h153c0 -40 -8.33301 -75.167 -25 -105.5s-40.334 -55.666 -71.001 -75.999s-67.167 -35.666 -109.5 -45.999
s-88.833 -15.166 -139.5 -14.499z" />
    <glyph glyph-name="Gdotaccent" unicode="&#x120;" horiz-adv-x="1369" 
d="M723 690l492.006 -0.000976562v-622c-65.333 -27.333 -132.666 -48.833 -201.999 -64.5s-145 -23.5 -227 -23.5c-103.333 0 -195.5 18.667 -276.5 56s-149.667 88 -206 152s-99.333 138.333 -129 223s-44.5 174.334 -44.5 269.001c0 107.333 16.167 204.166 48.5 290.499
s78.666 159.833 138.999 220.5s134 107.334 221 140.001s185.167 49 294.5 49c34.667 0 66.667 -1.66699 96 -5s56.166 -7.66602 80.499 -12.999s46.166 -11.333 65.499 -18s36.666 -13.334 51.999 -20.001l-41 -138c-30.667 11.333 -67 22.166 -109 32.499
s-90 15.5 -144 15.5c-80 0 -151.333 -11.833 -214 -35.5s-115.834 -58.667 -159.501 -105s-76.834 -104.166 -99.501 -173.499s-34 -149.333 -34 -240c0 -71.333 10.167 -140.333 30.5 -207s50 -125.667 89 -177s87.167 -92.5 144.5 -123.5s122.666 -46.5 195.999 -46.5
c43.333 0 84 2.33301 122 7s75 13.667 111 27v384h-296v146zM672.006 1664h218v-176h-218v176z" />
    <glyph glyph-name="gdotaccent" unicode="&#x121;" horiz-adv-x="1190" 
d="M141 656c0 59.333 10.835 111.668 32.502 157.001s52 83.333 91 114s85.667 53.834 140 69.501s114.5 23.5 180.5 23.5c60 0 115.667 -6.66699 167 -20h370l-15 -128h-146c22 -28.667 38.833 -60.834 50.5 -96.501s17.5 -75.5 17.5 -119.5
c0 -57.333 -10.833 -108.5 -32.5 -153.5s-52 -83 -91 -114s-85.667 -54.833 -140 -71.5s-114.5 -25 -180.5 -25c-63.333 0 -122 7.66699 -176 23c-11.333 -12 -20 -25.833 -26 -41.5s-9 -34.167 -9 -55.5c0 -6 1 -13.333 3 -22s4.66699 -17.334 8 -26.001
s7.16602 -17 11.499 -25s8.5 -14.333 12.5 -19h296c64 0 120.333 -7.5 169 -22.5s89.167 -35.667 121.5 -62s56.333 -57.333 72 -93s22.834 -73.834 21.501 -114.501c-4 -45.333 -19 -87.333 -45 -126s-61.167 -72 -105.5 -100s-97 -50 -158 -66s-128.833 -24 -203.5 -24
c-38 0 -76.5 1.83301 -115.5 5.5s-76.667 9.83398 -113 18.501s-70.5 20 -102.5 34s-59.833 31.5 -83.5 52.5s-42.334 45.5 -56.001 73.5s-20.5 60.667 -20.5 98c0 50.667 13.667 96.667 41 138s71.666 77.333 132.999 108c-16 17.333 -30 37.333 -42 60s-18 48 -18 76
c0 40 9 74.333 27 103s42.333 54.667 73 78c-50 31.333 -89 71.5 -117 120.5s-42 106.5 -42 172.5zM337.002 656.002c0 -68 20.667 -121.333 62 -160s103.333 -58 186 -58s144.667 19.333 186 58s62 92 62 160c0 36.667 -6.16699 68.667 -18.5 96s-29.5 50 -51.5 68
s-48.167 31.5 -78.5 40.5s-63.5 13.5 -99.5 13.5s-69.167 -4.5 -99.5 -13.5s-56.5 -22.5 -78.5 -40.5s-39.167 -40.667 -51.5 -68s-18.5 -59.333 -18.5 -96zM386.002 -19.998c-17.333 -11.333 -32.3311 -22.4961 -44.998 -33.4961s-23.5 -23.333 -32.5 -37
s-15.667 -29 -20 -46s-6.5 -36.833 -6.5 -59.5c0 -20 5.16699 -37.333 15.5 -52s24 -27.167 41 -37.5s36.167 -18.833 57.5 -25.5s43 -11.834 65 -15.501s43.5 -6.16699 64.5 -7.5s39.5 -2 55.5 -2c47.333 0 90.166 4.16699 128.499 12.5s71.166 20 98.499 35
s48.333 32.667 63 53s22 42.166 22 65.499c0 21.333 -3 41.166 -9 59.499s-17.167 34.166 -33.5 47.499s-39 23.833 -68 31.5s-66.5 11.5 -112.5 11.5h-284zM478.004 1325.01h218v-176h-218v176z" />
    <glyph glyph-name="Gcommaaccent" unicode="&#x122;" horiz-adv-x="1369" 
d="M723 690l492.006 -0.000976562v-622c-65.333 -27.333 -132.666 -48.833 -201.999 -64.5s-145 -23.5 -227 -23.5c-103.333 0 -195.5 18.667 -276.5 56s-149.667 88 -206 152s-99.333 138.333 -129 223s-44.5 174.334 -44.5 269.001c0 107.333 16.167 204.166 48.5 290.499
s78.666 159.833 138.999 220.5s134 107.334 221 140.001s185.167 49 294.5 49c34.667 0 66.667 -1.66699 96 -5s56.166 -7.66602 80.499 -12.999s46.166 -11.333 65.499 -18s36.666 -13.334 51.999 -20.001l-41 -138c-30.667 11.333 -67 22.166 -109 32.499
s-90 15.5 -144 15.5c-80 0 -151.333 -11.833 -214 -35.5s-115.834 -58.667 -159.501 -105s-76.834 -104.166 -99.501 -173.499s-34 -149.333 -34 -240c0 -71.333 10.167 -140.333 30.5 -207s50 -125.667 89 -177s87.167 -92.5 144.5 -123.5s122.666 -46.5 195.999 -46.5
c43.333 0 84 2.33301 122 7s75 13.667 111 27v384h-296v146zM682.006 -102.001h223l-149 -398l-141 20z" />
    <glyph glyph-name="gcommaaccent" unicode="&#x123;" horiz-adv-x="1190" 
d="M141 656c0 59.333 10.835 111.668 32.502 157.001s52 83.333 91 114s85.667 53.834 140 69.501s114.5 23.5 180.5 23.5c60 0 115.667 -6.66699 167 -20h370l-15 -128h-146c22 -28.667 38.833 -60.834 50.5 -96.501s17.5 -75.5 17.5 -119.5
c0 -57.333 -10.833 -108.5 -32.5 -153.5s-52 -83 -91 -114s-85.667 -54.833 -140 -71.5s-114.5 -25 -180.5 -25c-63.333 0 -122 7.66699 -176 23c-11.333 -12 -20 -25.833 -26 -41.5s-9 -34.167 -9 -55.5c0 -6 1 -13.333 3 -22s4.66699 -17.334 8 -26.001
s7.16602 -17 11.499 -25s8.5 -14.333 12.5 -19h296c64 0 120.333 -7.5 169 -22.5s89.167 -35.667 121.5 -62s56.333 -57.333 72 -93s22.834 -73.834 21.501 -114.501c-4 -45.333 -19 -87.333 -45 -126s-61.167 -72 -105.5 -100s-97 -50 -158 -66s-128.833 -24 -203.5 -24
c-38 0 -76.5 1.83301 -115.5 5.5s-76.667 9.83398 -113 18.501s-70.5 20 -102.5 34s-59.833 31.5 -83.5 52.5s-42.334 45.5 -56.001 73.5s-20.5 60.667 -20.5 98c0 50.667 13.667 96.667 41 138s71.666 77.333 132.999 108c-16 17.333 -30 37.333 -42 60s-18 48 -18 76
c0 40 9 74.333 27 103s42.333 54.667 73 78c-50 31.333 -89 71.5 -117 120.5s-42 106.5 -42 172.5zM337.002 656.002c0 -68 20.667 -121.333 62 -160s103.333 -58 186 -58s144.667 19.333 186 58s62 92 62 160c0 36.667 -6.16699 68.667 -18.5 96s-29.5 50 -51.5 68
s-48.167 31.5 -78.5 40.5s-63.5 13.5 -99.5 13.5s-69.167 -4.5 -99.5 -13.5s-56.5 -22.5 -78.5 -40.5s-39.167 -40.667 -51.5 -68s-18.5 -59.333 -18.5 -96zM386.002 -19.998c-17.333 -11.333 -32.3311 -22.4961 -44.998 -33.4961s-23.5 -23.333 -32.5 -37
s-15.667 -29 -20 -46s-6.5 -36.833 -6.5 -59.5c0 -20 5.16699 -37.333 15.5 -52s24 -27.167 41 -37.5s36.167 -18.833 57.5 -25.5s43 -11.834 65 -15.501s43.5 -6.16699 64.5 -7.5s39.5 -2 55.5 -2c47.333 0 90.166 4.16699 128.499 12.5s71.166 20 98.499 35
s48.333 32.667 63 53s22 42.166 22 65.499c0 21.333 -3 41.166 -9 59.499s-17.167 34.166 -33.5 47.499s-39 23.833 -68 31.5s-66.5 11.5 -112.5 11.5h-284zM693.004 1148.01h-223l176 468l141 -20z" />
    <glyph glyph-name="Hcircumflex" unicode="&#x124;" horiz-adv-x="1410" 
d="M182 1360h196v-608h659v608h196v-1360h-196v606h-659v-606h-196v1360zM582 1468h-208l298 232h123l295 -232h-205l-152 117z" />
    <glyph glyph-name="hcircumflex" unicode="&#x125;" horiz-adv-x="1205" 
d="M175 1400l195.998 0.00195312v-491c48 35.333 99.167 62.666 153.5 81.999s113.833 29 178.5 29c50 0 95.333 -6 136 -18s75.334 -32.167 104.001 -60.5s50.834 -66 66.501 -113s23.5 -105.833 23.5 -176.5v-652h-196v652c0 79.333 -14 136.166 -42 170.499
s-73.667 51.5 -137 51.5c-56.667 0 -108.5 -10.333 -155.5 -31s-90.833 -47.667 -131.5 -81v-762h-196v1400zM153.998 1500h-208l298 232h123l295 -232h-205l-152 117z" />
    <glyph glyph-name="Hbar" unicode="&#x126;" horiz-adv-x="1418" 
d="M13 1126h169v234h196v-234h659v234h196v-234h170v-146h-170v-980h-196v606h-659v-606h-196v980h-169v146zM378 752h659v228h-659v-228z" />
    <glyph glyph-name="hbar" unicode="&#x127;" horiz-adv-x="1211" 
d="M-30 1256l204.998 0.00195312v144h196v-144h371v-146h-371v-201c48 35.333 99.167 62.666 153.5 81.999s113.833 29 178.5 29c50 0 95.333 -6 136 -18s75.334 -32.167 104.001 -60.5s50.834 -66 66.501 -113s23.5 -105.833 23.5 -176.5v-652h-196v652
c0 79.333 -14 136.166 -42 170.499s-73.667 51.5 -137 51.5c-56.667 0 -108.5 -10.333 -155.5 -31s-90.833 -47.667 -131.5 -81v-762h-196v1110h-205v146z" />
    <glyph glyph-name="Itilde" unicode="&#x128;" horiz-adv-x="840" 
d="M137 0v146h185v1068h-185v146h568v-146h-187v-1068h187v-146h-568zM571 1616c9.33301 0 19.665 1.83301 30.998 5.5s22.5 9.5 33.5 17.5s21.5 18 31.5 30s18.667 26.333 26 43l104 -80c-10.667 -24 -23.667 -45.333 -39 -64s-31.666 -34.667 -48.999 -48
s-35.5 -24 -54.5 -32s-37.5 -13.333 -55.5 -16c-7.33301 -1.33301 -14.5 -2.33301 -21.5 -3s-13.833 -1 -20.5 -1c-36 0 -68.5 7.66699 -97.5 23s-56.167 32.333 -81.5 51c-21.333 15.333 -41.166 26.833 -59.499 34.5s-33.166 10.834 -44.499 9.50098
c-10 -0.666992 -19.667 -2.16699 -29 -4.5s-18.833 -6.83301 -28.5 -13.5s-19.834 -16 -30.501 -28s-22 -27.333 -34 -46l-105 74c10 23.333 22.833 44.333 38.5 63s32.5 34.667 50.5 48s36.5 24.333 55.5 33s37.167 14.667 54.5 18c12 2 23.333 3 34 3
c37.333 0 71.166 -7.83301 101.499 -23.5s58.833 -32.834 85.5 -51.501c19.333 -16 38.333 -27 57 -33s34.334 -9 47.001 -9z" />
    <glyph glyph-name="itilde" unicode="&#x129;" horiz-adv-x="411" 
d="M108 1000h196v-1000h-196v1000zM359 1291c9.33301 0 19.665 1.83301 30.998 5.5s22.5 9.5 33.5 17.5s21.5 18 31.5 30s18.667 26.333 26 43l104 -80c-10.667 -24 -23.667 -45.333 -39 -64s-31.666 -34.667 -48.999 -48s-35.5 -24 -54.5 -32s-37.5 -13.333 -55.5 -16
c-7.33301 -1.33301 -14.5 -2.33301 -21.5 -3s-13.833 -1 -20.5 -1c-36 0 -68.5 7.66699 -97.5 23s-56.167 32.333 -81.5 51c-21.333 15.333 -41.166 26.833 -59.499 34.5s-33.166 10.834 -44.499 9.50098c-10 -0.666992 -19.667 -2.16699 -29 -4.5
s-18.833 -6.83301 -28.5 -13.5s-19.834 -16 -30.501 -28s-22 -27.333 -34 -46l-105 74c10 23.333 22.833 44.333 38.5 63s32.5 34.667 50.5 48s36.5 24.333 55.5 33s37.167 14.667 54.5 18c12 2 23.333 3 34 3c37.333 0 71.166 -7.83301 101.499 -23.5
s58.833 -32.834 85.5 -51.501c19.333 -16 38.333 -27 57 -33s34.334 -9 47.001 -9z" />
    <glyph glyph-name="Imacron" unicode="&#x12a;" horiz-adv-x="840" 
d="M137 0v146h185v1068h-185v146h568v-146h-187v-1068h187v-146h-568zM33 1616h772v-146h-772v146z" />
    <glyph glyph-name="imacron" unicode="&#x12b;" horiz-adv-x="411" 
d="M108 1000h196v-1000h-196v1000zM-179 1292h772v-146h-772v146z" />
    <glyph glyph-name="Iogonek" unicode="&#x12e;" horiz-adv-x="840" 
d="M137 0v146h185v1068h-185v146h568v-146h-187v-1068h187v-146h-568zM709 0c-56 -22 -98.666 -49.1689 -127.999 -81.502s-44 -70.5 -44 -114.5c0 -11.333 2.16699 -21.333 6.5 -30s10 -16.167 17 -22.5s14.667 -11.166 23 -14.499s16.833 -5 25.5 -5
c10.667 0 19.334 0.166992 26.001 0.5s12.667 1 18 2s10.5 2.16699 15.5 3.5s11.167 3.33301 18.5 6l22 -112c-4 -2.66699 -10.5 -5.33398 -19.5 -8.00098s-19.333 -5 -31 -7s-24.334 -3.66699 -38.001 -5s-26.834 -2 -39.501 -2c-66 0 -117.333 15.833 -154 47.5
s-55 75.834 -55 132.501c0 32.667 5.5 62.834 16.5 90.501s25.833 52.334 44.5 74.001s40.667 40.167 66 55.5s52 26.666 80 33.999l130 -40v-4z" />
    <glyph glyph-name="iogonek" unicode="&#x12f;" horiz-adv-x="585" 
d="M196 1000h196v-1000h-196v1000zM186 1402h215v-176h-215v176zM395 0c-56 -22 -98.666 -49.1689 -127.999 -81.502s-44 -70.5 -44 -114.5c0 -11.333 2.16699 -21.333 6.5 -30s10 -16.167 17 -22.5s14.667 -11.166 23 -14.499s16.833 -5 25.5 -5
c10.667 0 19.334 0.166992 26.001 0.5s12.667 1 18 2s10.5 2.16699 15.5 3.5s11.167 3.33301 18.5 6l22 -112c-4 -2.66699 -10.5 -5.33398 -19.5 -8.00098s-19.333 -5 -31 -7s-24.334 -3.66699 -38.001 -5s-26.834 -2 -39.501 -2c-66 0 -117.333 15.833 -154 47.5
s-55 75.834 -55 132.501c0 32.667 5.5 62.834 16.5 90.501s25.833 52.334 44.5 74.001s40.667 40.167 66 55.5s52 26.666 80 33.999l130 -40v-4z" />
    <glyph glyph-name="Idotaccent" unicode="&#x130;" horiz-adv-x="840" 
d="M137 0v146h185v1068h-185v146h568v-146h-187v-1068h187v-146h-568zM312 1646h218v-176h-218v176z" />
    <glyph glyph-name="dotlessi" unicode="&#x131;" horiz-adv-x="411" 
d="M108 1000h196v-1000h-196v1000z" />
    <glyph glyph-name="Jcircumflex" unicode="&#x134;" horiz-adv-x="954" 
d="M130 178c13.333 -6.66699 29.8359 -13 49.5029 -19s40 -11.5 61 -16.5s41.833 -9 62.5 -12s39 -4.5 55 -4.5c39.333 0 73.166 4.66699 101.499 14s51.5 24.5 69.5 45.5s31.167 47.833 39.5 80.5s12.5 72.667 12.5 120v974h196v-974c0 -78.667 -9.5 -144 -28.5 -196
s-45.833 -93.5 -80.5 -124.5s-76.334 -53 -125.001 -66s-102.667 -19.5 -162 -19.5c-64.667 0 -121.834 6.16699 -171.501 18.5s-91.167 26.833 -124.5 43.5zM559.003 1468h-208l298 232h123l295 -232h-205l-152 117z" />
    <glyph glyph-name="jcircumflex" unicode="&#x135;" horiz-adv-x="561" 
d="M-122 -280c9.33301 -2 20.499 -4.00098 33.499 -6.00098s26.667 -4 41 -6s28.833 -3.5 43.5 -4.5s28.667 -1.5 42 -1.5c27.333 0 50.833 3.83301 70.5 11.5s35.667 20.334 48 38.001s21.5 41 27.5 70s9 65.167 9 108.5v1070h196v-1070c0 -74.667 -8 -136.167 -24 -184.5
s-38.5 -86.5 -67.5 -114.5s-64 -47.5 -105 -58.5s-86.5 -16.5 -136.5 -16.5c-16.667 0 -34.167 0.5 -52.5 1.5s-36.166 2.5 -53.499 4.5s-34 4.66699 -50 8s-30 7.33301 -42 12zM176.999 1182h-208l298 232h123l295 -232h-205l-152 117z" />
    <glyph glyph-name="Kcommaaccent" unicode="&#x136;" horiz-adv-x="1275" 
d="M581 602h-207v-602h-196v1360h196v-612h201l374 612h215l-418 -674h-2l492 -686h-225zM529 -102h223l-149 -398l-141 20z" />
    <glyph glyph-name="kcommaaccent" unicode="&#x137;" horiz-adv-x="1074" 
d="M509 442h-138v-442h-196v1400h196v-812h135l280 412h219l-335 -474h-2l369 -526h-226zM449 -102h223l-149 -398l-141 20z" />
    <glyph glyph-name="kgreenlandic" unicode="&#x138;" horiz-adv-x="1101" 
d="M597 442h-226v-442h-196v1000h196v-404h228l273 404h218l-333 -474h-1l369 -526h-226z" />
    <glyph glyph-name="Lacute" unicode="&#x139;" horiz-adv-x="1036" 
d="M182 1360h196v-1214h614v-146h-810v1360zM415 1780l213 -60l-285 -248l-141 40z" />
    <glyph glyph-name="lacute" unicode="&#x13a;" horiz-adv-x="586" 
d="M196 1400h196v-1400h-196v1400zM419 1840l213 -60l-285 -248l-141 40z" />
    <glyph glyph-name="Lcommaaccent" unicode="&#x13b;" horiz-adv-x="1036" 
d="M182 1360h196v-1214h614v-146h-810v1360zM484 -102h223l-149 -398l-141 20z" />
    <glyph glyph-name="lcommaaccent" unicode="&#x13c;" horiz-adv-x="586" 
d="M196 1400h196v-1400h-196v1400zM192 -102h223l-149 -398l-141 20z" />
    <glyph glyph-name="Lcaron" unicode="&#x13d;" horiz-adv-x="1036" 
d="M182 1360h196v-1214h614v-146h-810v1360zM633 1349h223l-177 -468l-140 20z" />
    <glyph glyph-name="lcaron" unicode="&#x13e;" horiz-adv-x="586" 
d="M196 1400h196v-1400h-196v1400zM637 1408h223l-177 -468l-140 20z" />
    <glyph glyph-name="Lslash" unicode="&#x141;" horiz-adv-x="1165" 
d="M248 540l-140 -54v170l140 54v650h196v-574l230 90v-170l-230 -90v-470h614v-146h-810v540z" />
    <glyph glyph-name="lslash" unicode="&#x142;" horiz-adv-x="780" 
d="M289 556l-181 -70v170l181 70v674h196v-598l189 74v-170l-189 -74v-632h-196v556z" />
    <glyph glyph-name="Nacute" unicode="&#x143;" horiz-adv-x="1455" 
d="M182 1360h196v-1l1 1l701 -1056v1056h196v-1360h-196l-702 1058v-1058h-196v1360zM844 1780l213 -60l-285 -248l-141 40z" />
    <glyph glyph-name="nacute" unicode="&#x144;" horiz-adv-x="1205" 
d="M175 1000h172.997l16 -95c48.667 36 100.834 64.167 156.501 84.5s116.5 30.5 182.5 30.5c50 0 95.333 -5.5 136 -16.5s75.334 -30 104.001 -57s50.834 -63.5 66.501 -109.5s23.5 -104.333 23.5 -175v-662h-196v662c0 39.333 -3.5 72.5 -10.5 99.5
s-17.667 48.833 -32 65.5s-32.833 28.667 -55.5 36s-49.667 11 -81 11c-56.667 0 -108.5 -10.667 -155.5 -32s-90.833 -48 -131.5 -80v-762h-196v1000zM729.997 1460l213 -60l-285 -248l-141 40z" />
    <glyph glyph-name="Ncommaaccent" unicode="&#x145;" horiz-adv-x="1455" 
d="M182 1360h196v-1l1 1l701 -1056v1056h196v-1360h-196l-702 1058v-1058h-196v1360zM605 -102h223l-149 -398l-141 20z" />
    <glyph glyph-name="ncommaaccent" unicode="&#x146;" horiz-adv-x="1205" 
d="M175 1000h172.997l16 -95c48.667 36 100.834 64.167 156.501 84.5s116.5 30.5 182.5 30.5c50 0 95.333 -5.5 136 -16.5s75.334 -30 104.001 -57s50.834 -63.5 66.501 -109.5s23.5 -104.333 23.5 -175v-662h-196v662c0 39.333 -3.5 72.5 -10.5 99.5
s-17.667 48.833 -32 65.5s-32.833 28.667 -55.5 36s-49.667 11 -81 11c-56.667 0 -108.5 -10.667 -155.5 -32s-90.833 -48 -131.5 -80v-762h-196v1000zM502.997 -102h223l-149 -398l-141 20z" />
    <glyph glyph-name="Ncaron" unicode="&#x147;" horiz-adv-x="1455" 
d="M182 1360h196v-1l1 1l701 -1056v1056h196v-1360h-196l-702 1058v-1058h-196v1360zM881 1704h205l-295 -232h-123l-298 232h208l151 -129z" />
    <glyph glyph-name="ncaron" unicode="&#x148;" horiz-adv-x="1205" 
d="M175 1000h172.997l16 -95c48.667 36 100.834 64.167 156.501 84.5s116.5 30.5 182.5 30.5c50 0 95.333 -5.5 136 -16.5s75.334 -30 104.001 -57s50.834 -63.5 66.501 -109.5s23.5 -104.333 23.5 -175v-662h-196v662c0 39.333 -3.5 72.5 -10.5 99.5
s-17.667 48.833 -32 65.5s-32.833 28.667 -55.5 36s-49.667 11 -81 11c-56.667 0 -108.5 -10.667 -155.5 -32s-90.833 -48 -131.5 -80v-762h-196v1000zM766.997 1384h205l-295 -232h-123l-298 232h208l151 -129z" />
    <glyph glyph-name="Eng" unicode="&#x14a;" horiz-adv-x="1445" 
d="M182 1360h196.003v-1l1 1l701 -1056v1056h196v-1374c0 -78.667 -9.5 -144 -28.5 -196s-45.833 -93.5 -80.5 -124.5s-76.334 -53 -125.001 -66s-102.667 -19.5 -162 -19.5c-64.667 0 -121.834 6.16699 -171.501 18.5s-91.167 26.833 -124.5 43.5l45 136
c13.333 -6.66699 29.833 -13 49.5 -19s40 -11.5 61 -16.5s41.833 -9 62.5 -12s39 -4.5 55 -4.5c39.333 0 73.166 4.66699 101.499 14s51.5 24.5 69.5 45.5s31.167 47.833 39.5 80.5s12.5 72.667 12.5 120v14l-702 1058v-1058h-196v1360z" />
    <glyph glyph-name="eng" unicode="&#x14b;" horiz-adv-x="1190" 
d="M175 1000l172.997 0.00390625l16 -95c48.667 36 100.834 64.167 156.501 84.5s116.5 30.5 182.5 30.5c50 0 95.333 -5.5 136 -16.5s75.334 -30 104.001 -57s50.834 -63.5 66.501 -109.5s23.5 -104.333 23.5 -175v-676c0 -78.667 -9.5 -143.834 -28.5 -195.501
s-45.667 -92.834 -80 -123.501s-75.833 -52.167 -124.5 -64.5s-102.667 -18.5 -162 -18.5c-66.667 0 -125.667 5.5 -177 16.5s-95 26.167 -131 45.5l58 136c13.333 -6.66699 29.666 -13 48.999 -19s39.5 -11.5 60.5 -16.5s42 -9 63 -12s39.833 -4.5 56.5 -4.5
c38.667 0 71.834 4.5 99.501 13.5s50.5 23.667 68.5 44s31.167 46.666 39.5 78.999s12.5 72.166 12.5 119.499v676c0 39.333 -3.5 72.5 -10.5 99.5s-17.667 48.833 -32 65.5s-32.833 28.667 -55.5 36s-49.667 11 -81 11c-56.667 0 -108.5 -10.667 -155.5 -32
s-90.833 -48 -131.5 -80v-762h-196v1000z" />
    <glyph glyph-name="Omacron" unicode="&#x14c;" horiz-adv-x="1408" 
d="M111 680c0 107.333 14.5 204.166 43.5 290.499s69.5 159.833 121.5 220.5s114.333 107.334 187 140.001s152.667 49 240 49c86.667 0 166.5 -16.333 239.5 -49s135.667 -79.334 188 -140.001s93.166 -134.167 122.499 -220.5s44 -183.166 44 -290.499
c0 -108 -14.667 -205.167 -44 -291.5s-70.166 -159.833 -122.499 -220.5s-115 -107.167 -188 -139.5s-152.833 -48.5 -239.5 -48.5c-87.333 0 -167.333 16.167 -240 48.5s-135 78.833 -187 139.5s-92.5 134.167 -121.5 220.5s-43.5 183.5 -43.5 291.5zM307 680
c0 -92.667 9.66699 -173.667 29 -243s46.5 -127 81.5 -173s76.833 -80.5 125.5 -103.5s102 -34.5 160 -34.5c58.667 0 112.5 11.5 161.5 34.5s91 57.5 126 103.5s62.167 103.667 81.5 173s29 150.333 29 243s-9.66699 173.667 -29 243s-46.5 127 -81.5 173
s-77 80.5 -126 103.5s-102.833 34.5 -161.5 34.5c-58 0 -111.333 -11.5 -160 -34.5s-90.5 -57.5 -125.5 -103.5s-62.167 -103.667 -81.5 -173s-29 -150.333 -29 -243zM310 1634h772v-146h-772v146z" />
    <glyph glyph-name="omacron" unicode="&#x14d;" horiz-adv-x="1190" 
d="M113 500c0 80.667 11.667 153 35 217s56.166 118.5 98.499 163.5s93.166 79.5 152.499 103.5s125.333 36 198 36c72 0 138 -12 198 -36s111.333 -58.5 154 -103.5s75.834 -99.5 99.501 -163.5s35.5 -136.333 35.5 -217c0 -81.333 -11.833 -154 -35.5 -218
s-56.834 -118.5 -99.501 -163.5s-94 -79.333 -154 -103s-126 -35.5 -198 -35.5c-72.667 0 -138.667 11.833 -198 35.5s-110.166 58 -152.499 103s-75.166 99.5 -98.499 163.5s-35 136.667 -35 218zM309 500c0 -65.333 7 -121.666 21 -168.999s33.667 -86.166 59 -116.499
s55.666 -52.666 90.999 -66.999s74.333 -21.5 117 -21.5s81.834 7.16699 117.501 21.5s66.334 36.666 92.001 66.999s45.667 69.166 60 116.499s21.5 103.666 21.5 168.999s-7.16699 121.666 -21.5 168.999s-34.333 86.166 -60 116.499s-56.334 52.666 -92.001 66.999
s-74.834 21.5 -117.501 21.5s-81.667 -7.16699 -117 -21.5s-65.666 -36.666 -90.999 -66.999s-45 -69.166 -59 -116.499s-21 -103.666 -21 -168.999zM204 1295h772v-146h-772v146z" />
    <glyph glyph-name="Ohungarumlaut" unicode="&#x150;" horiz-adv-x="1408" 
d="M111 680c0 107.333 14.5 204.166 43.5 290.499s69.5 159.833 121.5 220.5s114.333 107.334 187 140.001s152.667 49 240 49c86.667 0 166.5 -16.333 239.5 -49s135.667 -79.334 188 -140.001s93.166 -134.167 122.499 -220.5s44 -183.166 44 -290.499
c0 -108 -14.667 -205.167 -44 -291.5s-70.166 -159.833 -122.499 -220.5s-115 -107.167 -188 -139.5s-152.833 -48.5 -239.5 -48.5c-87.333 0 -167.333 16.167 -240 48.5s-135 78.833 -187 139.5s-92.5 134.167 -121.5 220.5s-43.5 183.5 -43.5 291.5zM307 680
c0 -92.667 9.66699 -173.667 29 -243s46.5 -127 81.5 -173s76.833 -80.5 125.5 -103.5s102 -34.5 160 -34.5c58.667 0 112.5 11.5 161.5 34.5s91 57.5 126 103.5s62.167 103.667 81.5 173s29 150.333 29 243s-9.66699 173.667 -29 243s-46.5 127 -81.5 173
s-77 80.5 -126 103.5s-102.833 34.5 -161.5 34.5c-58 0 -111.333 -11.5 -160 -34.5s-90.5 -57.5 -125.5 -103.5s-62.167 -103.667 -81.5 -173s-29 -150.333 -29 -243zM666 1818l195 -60l-308 -268l-126 40zM1083 1818l214 -60l-373 -268l-143 40z" />
    <glyph glyph-name="ohungarumlaut" unicode="&#x151;" horiz-adv-x="1190" 
d="M113 500c0 80.667 11.667 153 35 217s56.166 118.5 98.499 163.5s93.166 79.5 152.499 103.5s125.333 36 198 36c72 0 138 -12 198 -36s111.333 -58.5 154 -103.5s75.834 -99.5 99.501 -163.5s35.5 -136.333 35.5 -217c0 -81.333 -11.833 -154 -35.5 -218
s-56.834 -118.5 -99.501 -163.5s-94 -79.333 -154 -103s-126 -35.5 -198 -35.5c-72.667 0 -138.667 11.833 -198 35.5s-110.166 58 -152.499 103s-75.166 99.5 -98.499 163.5s-35 136.667 -35 218zM309 500c0 -65.333 7 -121.666 21 -168.999s33.667 -86.166 59 -116.499
s55.666 -52.666 90.999 -66.999s74.333 -21.5 117 -21.5s81.834 7.16699 117.501 21.5s66.334 36.666 92.001 66.999s45.667 69.166 60 116.499s21.5 103.666 21.5 168.999s-7.16699 121.666 -21.5 168.999s-34.333 86.166 -60 116.499s-56.334 52.666 -92.001 66.999
s-74.834 21.5 -117.501 21.5s-81.667 -7.16699 -117 -21.5s-65.666 -36.666 -90.999 -66.999s-45 -69.166 -59 -116.499s-21 -103.666 -21 -168.999zM560 1478l195 -60l-308 -268l-126 40zM977 1478l214 -60l-373 -268l-143 40z" />
    <glyph glyph-name="OE" unicode="&#x152;" horiz-adv-x="1769" 
d="M872 0c-9.33301 -1.33301 -20.499 -2.33203 -33.499 -2.99902s-28.167 -1 -45.5 -1c-106.667 0 -202.334 16 -287.001 48s-156.5 77.5 -215.5 136.5s-104.167 130.667 -135.5 215s-47 179.166 -47 284.499c0 104.667 15.667 199 47 283s76.5 155.5 135.5 214.5
s130.833 104.5 215.5 136.5s180.334 48 287.001 48h32.5c10.333 0 21.166 -0.666992 32.499 -2h801v-146h-605v-444h540v-146h-540v-478h605v-146h-787zM793.001 142.001c22.667 0 44.333 2.33301 65 7v1060c-10.667 2 -21.167 3.66699 -31.5 5s-21.5 2 -33.5 2
c-76.667 0 -145.334 -12.5 -206.001 -37.5s-112 -60.833 -154 -107.5s-74 -103 -96 -169s-33 -140 -33 -222s11 -156.167 33 -222.5s54 -122.833 96 -169.5s93.333 -82.667 154 -108s129.334 -38 206.001 -38z" />
    <glyph glyph-name="oe" unicode="&#x153;" horiz-adv-x="1895" 
d="M121 500c0 80.667 11.6631 153 34.9961 217s56.166 118.5 98.499 163.5s93.166 79.5 152.499 103.5s125.333 36 198 36c83.333 0 158 -15.667 224 -47s120.333 -76.333 163 -135c41.333 59.333 93.833 104.5 157.5 135.5s137.167 46.5 220.5 46.5
c58.667 0 113.667 -9 165 -27s96 -44 134 -78s68 -75.667 90 -125s33 -105.333 33 -168v-146h-698c2.66699 -111.333 30.834 -197.5 84.501 -258.5s131.167 -91.5 232.5 -91.5c34 0 65.167 1.83301 93.5 5.5s54.166 8.16699 77.499 13.5s44.333 11.333 63 18
s35.667 13 51 19l47 -128c-41.333 -23.333 -90.666 -41.5 -147.999 -54.5s-118.666 -19.5 -183.999 -19.5c-95.333 0 -178.166 15.5 -248.499 46.5s-127.166 75.833 -170.499 134.5c-42.667 -58.667 -97 -103.5 -163 -134.5s-140.667 -46.5 -224 -46.5
c-72.667 0 -138.667 11.833 -198 35.5s-110.166 58 -152.499 103s-75.166 99.5 -98.499 163.5s-35 136.667 -35 218zM316.996 500c0 -65.333 7 -121.666 21 -168.999s33.667 -86.166 59 -116.499s55.666 -52.666 90.999 -66.999s74.333 -21.5 117 -21.5
s81.834 7.16699 117.501 21.5s66.334 36.666 92.001 66.999s45.667 69.166 60 116.499s21.5 103.666 21.5 168.999s-7.16699 121.666 -21.5 168.999s-34.333 86.166 -60 116.499s-56.334 52.666 -92.001 66.999s-74.834 21.5 -117.501 21.5s-81.667 -7.16699 -117 -21.5
s-65.666 -36.666 -90.999 -66.999s-45 -69.166 -59 -116.499s-21 -103.666 -21 -168.999zM1370 874c-36 0 -68.833 -4 -98.5 -12s-56 -21.833 -79 -41.5s-42.167 -45.667 -57.5 -78s-26.333 -72.5 -33 -120.5h494c0 46 -6.33301 85 -19 117s-29.5 58 -50.5 78
s-45 34.5 -72 43.5s-55.167 13.5 -84.5 13.5z" />
    <glyph glyph-name="Racute" unicode="&#x154;" horiz-adv-x="1258" 
d="M183 1360l440 0.000976562c76.667 0 144.667 -8.83301 204 -26.5s109.5 -43 150.5 -76s72.167 -73.333 93.5 -121s32 -101.834 32 -162.501c0 -37.333 -6 -73 -18 -107s-28 -66 -48 -96s-43.333 -57.5 -70 -82.5s-54.667 -46.5 -84 -64.5l288 -624h-205l-266 584h-321
v-584h-196v1360zM379 1214l0.00195312 -484h407c14.667 12 29.167 25 43.5 39s27.166 30.5 38.499 49.5s20.666 41.167 27.999 66.5s11 55 11 89c0 44 -6.83301 81.167 -20.5 111.5s-33.5 55 -59.5 74s-57.833 32.833 -95.5 41.5s-80.5 13 -128.5 13h-224zM746.002 1780
l213 -60l-285 -248l-141 40z" />
    <glyph glyph-name="racute" unicode="&#x155;" horiz-adv-x="762" 
d="M175 1000h172.999l16 -140c40 58.667 82.667 100 128 124s94 36 146 36c13.333 0 27.5 -0.333008 42.5 -1s29.167 -1.66699 42.5 -3l-18 -170c-17.333 3.33301 -34.666 5.5 -51.999 6.5s-36.666 1.5 -57.999 1.5c-44.667 0 -85.334 -13.333 -122.001 -40
s-70.667 -61 -102 -103v-711h-196v1000zM504.999 1460l213 -60l-285 -248l-141 40z" />
    <glyph glyph-name="Rcommaaccent" unicode="&#x156;" horiz-adv-x="1258" 
d="M183 1360l440 0.000976562c76.667 0 144.667 -8.83301 204 -26.5s109.5 -43 150.5 -76s72.167 -73.333 93.5 -121s32 -101.834 32 -162.501c0 -37.333 -6 -73 -18 -107s-28 -66 -48 -96s-43.333 -57.5 -70 -82.5s-54.667 -46.5 -84 -64.5l288 -624h-205l-266 584h-321
v-584h-196v1360zM379 1214l0.00195312 -484h407c14.667 12 29.167 25 43.5 39s27.166 30.5 38.499 49.5s20.666 41.167 27.999 66.5s11 55 11 89c0 44 -6.83301 81.167 -20.5 111.5s-33.5 55 -59.5 74s-57.833 32.833 -95.5 41.5s-80.5 13 -128.5 13h-224zM543.002 -101.999
h223l-149 -398l-141 20z" />
    <glyph glyph-name="rcommaaccent" unicode="&#x157;" horiz-adv-x="762" 
d="M175 1000h172.999l16 -140c40 58.667 82.667 100 128 124s94 36 146 36c13.333 0 27.5 -0.333008 42.5 -1s29.167 -1.66699 42.5 -3l-18 -170c-17.333 3.33301 -34.666 5.5 -51.999 6.5s-36.666 1.5 -57.999 1.5c-44.667 0 -85.334 -13.333 -122.001 -40
s-70.667 -61 -102 -103v-711h-196v1000zM164.999 -98h223l-149 -398l-141 20z" />
    <glyph glyph-name="Rcaron" unicode="&#x158;" horiz-adv-x="1258" 
d="M183 1360l440 0.000976562c76.667 0 144.667 -8.83301 204 -26.5s109.5 -43 150.5 -76s72.167 -73.333 93.5 -121s32 -101.834 32 -162.501c0 -37.333 -6 -73 -18 -107s-28 -66 -48 -96s-43.333 -57.5 -70 -82.5s-54.667 -46.5 -84 -64.5l288 -624h-205l-266 584h-321
v-584h-196v1360zM379 1214l0.00195312 -484h407c14.667 12 29.167 25 43.5 39s27.166 30.5 38.499 49.5s20.666 41.167 27.999 66.5s11 55 11 89c0 44 -6.83301 81.167 -20.5 111.5s-33.5 55 -59.5 74s-57.833 32.833 -95.5 41.5s-80.5 13 -128.5 13h-224zM783.002 1704h205
l-295 -232h-123l-298 232h208l151 -129z" />
    <glyph glyph-name="rcaron" unicode="&#x159;" horiz-adv-x="762" 
d="M175 1000h172.999l16 -140c40 58.667 82.667 100 128 124s94 36 146 36c13.333 0 27.5 -0.333008 42.5 -1s29.167 -1.66699 42.5 -3l-18 -170c-17.333 3.33301 -34.666 5.5 -51.999 6.5s-36.666 1.5 -57.999 1.5c-44.667 0 -85.334 -13.333 -122.001 -40
s-70.667 -61 -102 -103v-711h-196v1000zM542.999 1384h205l-295 -232h-123l-298 232h208l151 -129z" />
    <glyph glyph-name="Sacute" unicode="&#x15a;" horiz-adv-x="1105" 
d="M1002 358c0 -57.333 -10.8301 -109.167 -32.4971 -155.5s-52.5 -86 -92.5 -119s-88.333 -58.5 -145 -76.5s-120 -27 -190 -27c-39.333 0 -79.166 1.83301 -119.499 5.5s-79.333 8.83398 -117 15.501s-73 14.834 -106 24.501s-61.167 20.5 -84.5 32.5l49 144l85 -29
c28.667 -9.33301 58.167 -17.5 88.5 -24.5s62.166 -12.5 95.499 -16.5s69 -6 107 -6c41.333 0 78.333 5.16699 111 15.5s60.5 25.333 83.5 45s40.667 43.334 53 71.001s18.5 59.167 18.5 94.5c0 32.667 -7.33301 61.667 -22 87s-35.667 48.166 -63 68.499
s-60.333 38.666 -99 54.999s-81.667 31.5 -129 45.5c-53.333 16 -103.333 36 -150 60s-87.167 52.333 -121.5 85s-61.333 69.5 -81 110.5s-29.5 86.5 -29.5 136.5c0 57.333 10.833 109.5 32.5 156.5s52.167 87 91.5 120s87 58.5 143 76.5s118.667 27 188 27
c42 0 82.333 -2.66699 121 -8s74.667 -12 108 -20s63.666 -16.667 90.999 -26s50.666 -18 69.999 -26l-43 -150l-79 30c-25.333 10 -51.5 19 -78.5 27s-55.5 14.5 -85.5 19.5s-63.333 7.5 -100 7.5c-43.333 0 -81.5 -5.5 -114.5 -16.5s-60.5 -26.5 -82.5 -46.5
s-38.5 -43.667 -49.5 -71s-16.5 -57.333 -16.5 -90c0 -55.333 22 -103.5 66 -144.5s115.667 -76.833 215 -107.5c68.667 -22 129 -46 181 -72s95.167 -55.167 129.5 -87.5s60.166 -68.333 77.499 -108s26 -83.834 26 -132.501zM692.003 1796l213 -60l-285 -248l-141 40z" />
    <glyph glyph-name="sacute" unicode="&#x15b;" horiz-adv-x="972" 
d="M864 278c0 -45.333 -8.83887 -86.333 -26.5059 -123s-43 -68 -76 -94s-73.167 -46 -120.5 -60s-100.666 -21 -159.999 -21c-35.333 0 -70.666 1.83301 -105.999 5.5s-69.166 8.83398 -101.499 15.501s-62.666 14.834 -90.999 24.501s-53.166 20.5 -74.499 32.5l37 140
l76.5 -28c24.333 -8.66699 49.5 -16.334 75.5 -23.001s53.667 -11.834 83 -15.501s62.333 -5.5 99 -5.5c66.667 0 114.834 12.833 144.501 38.5s44.5 61.5 44.5 107.5c0 20.667 -5.33301 39.167 -16 55.5s-25.834 31.166 -45.501 44.499s-43.5 25.333 -71.5 36
s-59.333 20.667 -94 30c-46 12 -88.667 27 -128 45s-73.333 39 -102 63s-51.167 51.333 -67.5 82s-24.5 64.667 -24.5 102c0 45.333 8.83301 86 26.5 122s43.334 66.5 77.001 91.5s74.5 44 122.5 57s102 19.5 162 19.5c72.667 0 137 -6.66699 193 -20s100.333 -28 133 -44
l-36 -137l-67 21c-20.667 6.66699 -41.834 12.5 -63.501 17.5s-45 9 -70 12s-53.5 4.5 -85.5 4.5c-66.667 0 -116 -12 -148 -36s-48 -56.667 -48 -98c0 -20 3.5 -38 10.5 -54s18.333 -30.667 34 -44s36.334 -25.5 62.001 -36.5s57.5 -21.5 95.5 -31.5
c59.333 -15.333 110.833 -32.666 154.5 -51.999s79.667 -41 108 -65s49.5 -50.667 63.5 -80s21 -62.333 21 -99zM612.994 1460l213 -60l-285 -248l-141 40z" />
    <glyph glyph-name="Scircumflex" unicode="&#x15c;" horiz-adv-x="1105" 
d="M1002 358c0 -57.333 -10.8301 -109.167 -32.4971 -155.5s-52.5 -86 -92.5 -119s-88.333 -58.5 -145 -76.5s-120 -27 -190 -27c-39.333 0 -79.166 1.83301 -119.499 5.5s-79.333 8.83398 -117 15.501s-73 14.834 -106 24.501s-61.167 20.5 -84.5 32.5l49 144l85 -29
c28.667 -9.33301 58.167 -17.5 88.5 -24.5s62.166 -12.5 95.499 -16.5s69 -6 107 -6c41.333 0 78.333 5.16699 111 15.5s60.5 25.333 83.5 45s40.667 43.334 53 71.001s18.5 59.167 18.5 94.5c0 32.667 -7.33301 61.667 -22 87s-35.667 48.166 -63 68.499
s-60.333 38.666 -99 54.999s-81.667 31.5 -129 45.5c-53.333 16 -103.333 36 -150 60s-87.167 52.333 -121.5 85s-61.333 69.5 -81 110.5s-29.5 86.5 -29.5 136.5c0 57.333 10.833 109.5 32.5 156.5s52.167 87 91.5 120s87 58.5 143 76.5s118.667 27 188 27
c42 0 82.333 -2.66699 121 -8s74.667 -12 108 -20s63.666 -16.667 90.999 -26s50.666 -18 69.999 -26l-43 -150l-79 30c-25.333 10 -51.5 19 -78.5 27s-55.5 14.5 -85.5 19.5s-63.333 7.5 -100 7.5c-43.333 0 -81.5 -5.5 -114.5 -16.5s-60.5 -26.5 -82.5 -46.5
s-38.5 -43.667 -49.5 -71s-16.5 -57.333 -16.5 -90c0 -55.333 22 -103.5 66 -144.5s115.667 -76.833 215 -107.5c68.667 -22 129 -46 181 -72s95.167 -55.167 129.5 -87.5s60.166 -68.333 77.499 -108s26 -83.834 26 -132.501zM438.003 1486h-208l298 232h123l295 -232h-205
l-152 117z" />
    <glyph glyph-name="scircumflex" unicode="&#x15d;" horiz-adv-x="972" 
d="M864 278c0 -45.333 -8.83887 -86.333 -26.5059 -123s-43 -68 -76 -94s-73.167 -46 -120.5 -60s-100.666 -21 -159.999 -21c-35.333 0 -70.666 1.83301 -105.999 5.5s-69.166 8.83398 -101.499 15.501s-62.666 14.834 -90.999 24.501s-53.166 20.5 -74.499 32.5l37 140
l76.5 -28c24.333 -8.66699 49.5 -16.334 75.5 -23.001s53.667 -11.834 83 -15.501s62.333 -5.5 99 -5.5c66.667 0 114.834 12.833 144.501 38.5s44.5 61.5 44.5 107.5c0 20.667 -5.33301 39.167 -16 55.5s-25.834 31.166 -45.501 44.499s-43.5 25.333 -71.5 36
s-59.333 20.667 -94 30c-46 12 -88.667 27 -128 45s-73.333 39 -102 63s-51.167 51.333 -67.5 82s-24.5 64.667 -24.5 102c0 45.333 8.83301 86 26.5 122s43.334 66.5 77.001 91.5s74.5 44 122.5 57s102 19.5 162 19.5c72.667 0 137 -6.66699 193 -20s100.333 -28 133 -44
l-36 -137l-67 21c-20.667 6.66699 -41.834 12.5 -63.501 17.5s-45 9 -70 12s-53.5 4.5 -85.5 4.5c-66.667 0 -116 -12 -148 -36s-48 -56.667 -48 -98c0 -20 3.5 -38 10.5 -54s18.333 -30.667 34 -44s36.334 -25.5 62.001 -36.5s57.5 -21.5 95.5 -31.5
c59.333 -15.333 110.833 -32.666 154.5 -51.999s79.667 -41 108 -65s49.5 -50.667 63.5 -80s21 -62.333 21 -99zM358.994 1150h-208l298 232h123l295 -232h-205l-152 117z" />
    <glyph glyph-name="Scedilla" unicode="&#x15e;" horiz-adv-x="1105" 
d="M1002 358c0 -57.333 -10.8301 -109.167 -32.4971 -155.5s-52.5 -86 -92.5 -119s-88.333 -58.5 -145 -76.5s-120 -27 -190 -27c-39.333 0 -79.166 1.83301 -119.499 5.5s-79.333 8.83398 -117 15.501s-73 14.834 -106 24.501s-61.167 20.5 -84.5 32.5l49 144l85 -29
c28.667 -9.33301 58.167 -17.5 88.5 -24.5s62.166 -12.5 95.499 -16.5s69 -6 107 -6c41.333 0 78.333 5.16699 111 15.5s60.5 25.333 83.5 45s40.667 43.334 53 71.001s18.5 59.167 18.5 94.5c0 32.667 -7.33301 61.667 -22 87s-35.667 48.166 -63 68.499
s-60.333 38.666 -99 54.999s-81.667 31.5 -129 45.5c-53.333 16 -103.333 36 -150 60s-87.167 52.333 -121.5 85s-61.333 69.5 -81 110.5s-29.5 86.5 -29.5 136.5c0 57.333 10.833 109.5 32.5 156.5s52.167 87 91.5 120s87 58.5 143 76.5s118.667 27 188 27
c42 0 82.333 -2.66699 121 -8s74.667 -12 108 -20s63.666 -16.667 90.999 -26s50.666 -18 69.999 -26l-43 -150l-79 30c-25.333 10 -51.5 19 -78.5 27s-55.5 14.5 -85.5 19.5s-63.333 7.5 -100 7.5c-43.333 0 -81.5 -5.5 -114.5 -16.5s-60.5 -26.5 -82.5 -46.5
s-38.5 -43.667 -49.5 -71s-16.5 -57.333 -16.5 -90c0 -55.333 22 -103.5 66 -144.5s115.667 -76.833 215 -107.5c68.667 -22 129 -46 181 -72s95.167 -55.167 129.5 -87.5s60.166 -68.333 77.499 -108s26 -83.834 26 -132.501zM674.003 0.999023
c23.333 -44 35.001 -89.333 35.001 -136c0 -35.333 -7.33301 -69 -22 -101s-36.5 -60 -65.5 -84s-65.167 -43.167 -108.5 -57.5s-94 -21.5 -152 -21.5l-35 110c71.333 7.33301 124.166 25 158.499 53s51.5 63 51.5 105c0 39.333 -14.667 83.333 -44 132h182z" />
    <glyph glyph-name="scedilla" unicode="&#x15f;" horiz-adv-x="972" 
d="M864 278c0 -45.333 -8.83887 -86.333 -26.5059 -123s-43 -68 -76 -94s-73.167 -46 -120.5 -60s-100.666 -21 -159.999 -21c-35.333 0 -70.666 1.83301 -105.999 5.5s-69.166 8.83398 -101.499 15.501s-62.666 14.834 -90.999 24.501s-53.166 20.5 -74.499 32.5l37 140
l76.5 -28c24.333 -8.66699 49.5 -16.334 75.5 -23.001s53.667 -11.834 83 -15.501s62.333 -5.5 99 -5.5c66.667 0 114.834 12.833 144.501 38.5s44.5 61.5 44.5 107.5c0 20.667 -5.33301 39.167 -16 55.5s-25.834 31.166 -45.501 44.499s-43.5 25.333 -71.5 36
s-59.333 20.667 -94 30c-46 12 -88.667 27 -128 45s-73.333 39 -102 63s-51.167 51.333 -67.5 82s-24.5 64.667 -24.5 102c0 45.333 8.83301 86 26.5 122s43.334 66.5 77.001 91.5s74.5 44 122.5 57s102 19.5 162 19.5c72.667 0 137 -6.66699 193 -20s100.333 -28 133 -44
l-36 -137l-67 21c-20.667 6.66699 -41.834 12.5 -63.501 17.5s-45 9 -70 12s-53.5 4.5 -85.5 4.5c-66.667 0 -116 -12 -148 -36s-48 -56.667 -48 -98c0 -20 3.5 -38 10.5 -54s18.333 -30.667 34 -44s36.334 -25.5 62.001 -36.5s57.5 -21.5 95.5 -31.5
c59.333 -15.333 110.833 -32.666 154.5 -51.999s79.667 -41 108 -65s49.5 -50.667 63.5 -80s21 -62.333 21 -99zM594.994 20c23.333 -44 35.001 -89.333 35.001 -136c0 -35.333 -7.33301 -69 -22 -101s-36.5 -60 -65.5 -84s-65.167 -43.167 -108.5 -57.5
s-94 -21.5 -152 -21.5l-35 110c71.333 7.33301 124.166 25 158.499 53s51.5 63 51.5 105c0 39.333 -14.667 83.333 -44 132h182z" />
    <glyph glyph-name="Scaron" unicode="&#x160;" horiz-adv-x="1105" 
d="M1002 358c0 -57.333 -10.8301 -109.167 -32.4971 -155.5s-52.5 -86 -92.5 -119s-88.333 -58.5 -145 -76.5s-120 -27 -190 -27c-39.333 0 -79.166 1.83301 -119.499 5.5s-79.333 8.83398 -117 15.501s-73 14.834 -106 24.501s-61.167 20.5 -84.5 32.5l49 144l85 -29
c28.667 -9.33301 58.167 -17.5 88.5 -24.5s62.166 -12.5 95.499 -16.5s69 -6 107 -6c41.333 0 78.333 5.16699 111 15.5s60.5 25.333 83.5 45s40.667 43.334 53 71.001s18.5 59.167 18.5 94.5c0 32.667 -7.33301 61.667 -22 87s-35.667 48.166 -63 68.499
s-60.333 38.666 -99 54.999s-81.667 31.5 -129 45.5c-53.333 16 -103.333 36 -150 60s-87.167 52.333 -121.5 85s-61.333 69.5 -81 110.5s-29.5 86.5 -29.5 136.5c0 57.333 10.833 109.5 32.5 156.5s52.167 87 91.5 120s87 58.5 143 76.5s118.667 27 188 27
c42 0 82.333 -2.66699 121 -8s74.667 -12 108 -20s63.666 -16.667 90.999 -26s50.666 -18 69.999 -26l-43 -150l-79 30c-25.333 10 -51.5 19 -78.5 27s-55.5 14.5 -85.5 19.5s-63.333 7.5 -100 7.5c-43.333 0 -81.5 -5.5 -114.5 -16.5s-60.5 -26.5 -82.5 -46.5
s-38.5 -43.667 -49.5 -71s-16.5 -57.333 -16.5 -90c0 -55.333 22 -103.5 66 -144.5s115.667 -76.833 215 -107.5c68.667 -22 129 -46 181 -72s95.167 -55.167 129.5 -87.5s60.166 -68.333 77.499 -108s26 -83.834 26 -132.501zM729.003 1720h205l-295 -232h-123l-298 232
h208l151 -129z" />
    <glyph glyph-name="scaron" unicode="&#x161;" horiz-adv-x="972" 
d="M864 278c0 -45.333 -8.83887 -86.333 -26.5059 -123s-43 -68 -76 -94s-73.167 -46 -120.5 -60s-100.666 -21 -159.999 -21c-35.333 0 -70.666 1.83301 -105.999 5.5s-69.166 8.83398 -101.499 15.501s-62.666 14.834 -90.999 24.501s-53.166 20.5 -74.499 32.5l37 140
l76.5 -28c24.333 -8.66699 49.5 -16.334 75.5 -23.001s53.667 -11.834 83 -15.501s62.333 -5.5 99 -5.5c66.667 0 114.834 12.833 144.501 38.5s44.5 61.5 44.5 107.5c0 20.667 -5.33301 39.167 -16 55.5s-25.834 31.166 -45.501 44.499s-43.5 25.333 -71.5 36
s-59.333 20.667 -94 30c-46 12 -88.667 27 -128 45s-73.333 39 -102 63s-51.167 51.333 -67.5 82s-24.5 64.667 -24.5 102c0 45.333 8.83301 86 26.5 122s43.334 66.5 77.001 91.5s74.5 44 122.5 57s102 19.5 162 19.5c72.667 0 137 -6.66699 193 -20s100.333 -28 133 -44
l-36 -137l-67 21c-20.667 6.66699 -41.834 12.5 -63.501 17.5s-45 9 -70 12s-53.5 4.5 -85.5 4.5c-66.667 0 -116 -12 -148 -36s-48 -56.667 -48 -98c0 -20 3.5 -38 10.5 -54s18.333 -30.667 34 -44s36.334 -25.5 62.001 -36.5s57.5 -21.5 95.5 -31.5
c59.333 -15.333 110.833 -32.666 154.5 -51.999s79.667 -41 108 -65s49.5 -50.667 63.5 -80s21 -62.333 21 -99zM649.994 1384h205l-295 -232h-123l-298 232h208l151 -129z" />
    <glyph glyph-name="Tcommaaccent" unicode="&#x162;" horiz-adv-x="1188" 
d="M693 1214v-1214h-196v1214h-425v146h1048v-146h-427zM494 -102h223l-149 -398l-141 20z" />
    <glyph glyph-name="tcommaaccent" unicode="&#x163;" horiz-adv-x="813" 
d="M81 1000l143.001 0.000976562v260l196 20v-280h295v-146h-295v-534c0 -33.333 2.66699 -61.666 8 -84.999s13.833 -42.166 25.5 -56.499s26.667 -24.666 45 -30.999s40.166 -9.5 65.499 -9.5c16 0 32.5 0.666992 49.5 2s33.667 3 50 5s31.666 4.16699 45.999 6.5
s26.5 4.5 36.5 6.5l6 -136c-12.667 -4 -27.167 -7.83301 -43.5 -11.5s-33.666 -6.83398 -51.999 -9.50098s-37.166 -4.83398 -56.499 -6.50098s-38 -2.5 -56 -2.5c-50 0 -94.667 4.66699 -134 14s-72.833 26.166 -100.5 50.499s-48.834 57.666 -63.501 99.999
s-22 96.833 -22 163.5v534h-167zM433.001 -101.999h223l-149 -398l-141 20z" />
    <glyph glyph-name="Tcaron" unicode="&#x164;" horiz-adv-x="1188" 
d="M693 1214v-1214h-196v1214h-425v146h1048v-146h-427zM758 1704h205l-295 -232h-123l-298 232h208l151 -129z" />
    <glyph glyph-name="tcaron" unicode="&#x165;" horiz-adv-x="813" 
d="M81 1000l143.001 0.000976562v260l196 20v-280h295v-146h-295v-534c0 -33.333 2.66699 -61.666 8 -84.999s13.833 -42.166 25.5 -56.499s26.667 -24.666 45 -30.999s40.166 -9.5 65.499 -9.5c16 0 32.5 0.666992 49.5 2s33.667 3 50 5s31.666 4.16699 45.999 6.5
s26.5 4.5 36.5 6.5l6 -136c-12.667 -4 -27.167 -7.83301 -43.5 -11.5s-33.666 -6.83398 -51.999 -9.50098s-37.166 -4.83398 -56.499 -6.50098s-38 -2.5 -56 -2.5c-50 0 -94.667 4.66699 -134 14s-72.833 26.166 -100.5 50.499s-48.834 57.666 -63.501 99.999
s-22 96.833 -22 163.5v534h-167zM901.001 1307h223l-177 -468l-140 20z" />
    <glyph glyph-name="Tbar" unicode="&#x166;" horiz-adv-x="1190" 
d="M693 1214v-213h438v-146h-438v-855h-196v855h-447v146h447v213h-425v146h1048v-146h-427z" />
    <glyph glyph-name="tbar" unicode="&#x167;" horiz-adv-x="848" 
d="M81 1000l143.001 0.000976562v260l196 20v-280h295v-146h-295v-148h292v-146h-292v-240c0 -33.333 2.66699 -61.666 8 -84.999s13.833 -42.166 25.5 -56.499s26.667 -24.666 45 -30.999s40.166 -9.5 65.499 -9.5c16 0 32.5 0.666992 49.5 2s33.667 3 50 5
s31.666 4.16699 45.999 6.5s26.5 4.5 36.5 6.5l6 -136c-12.667 -4 -27.167 -7.83301 -43.5 -11.5s-33.666 -6.83398 -51.999 -9.50098s-37.166 -4.83398 -56.499 -6.50098s-38 -2.5 -56 -2.5c-50 0 -94.667 4.66699 -134 14s-72.833 26.166 -100.5 50.499
s-48.834 57.666 -63.501 99.999s-22 96.833 -22 163.5v240h-168v146h168v148h-167z" />
    <glyph glyph-name="Utilde" unicode="&#x168;" horiz-adv-x="1421" 
d="M1047 1360h196.003v-948c0 -69.333 -12.833 -130.666 -38.5 -183.999s-61.834 -98.5 -108.501 -135.5s-102.667 -65 -168 -84s-137.666 -28.5 -216.999 -28.5c-78.667 0 -150.334 9.5 -215.001 28.5s-120.167 47 -166.5 84s-82.333 82.167 -108 135.5
s-38.5 114.666 -38.5 183.999v948h196v-948c0 -46 8.16699 -86.833 24.5 -122.5s39.166 -65.5 68.499 -89.5s64.333 -42.333 105 -55s85.334 -19 134.001 -19c50 0 95.667 6.33301 137 19s76.666 31 105.999 55s52.166 53.833 68.499 89.5s24.5 76.5 24.5 122.5v948z
M859.003 1616c9.33301 0 19.665 1.83301 30.998 5.5s22.5 9.5 33.5 17.5s21.5 18 31.5 30s18.667 26.333 26 43l104 -80c-10.667 -24 -23.667 -45.333 -39 -64s-31.666 -34.667 -48.999 -48s-35.5 -24 -54.5 -32s-37.5 -13.333 -55.5 -16
c-7.33301 -1.33301 -14.5 -2.33301 -21.5 -3s-13.833 -1 -20.5 -1c-36 0 -68.5 7.66699 -97.5 23s-56.167 32.333 -81.5 51c-21.333 15.333 -41.166 26.833 -59.499 34.5s-33.166 10.834 -44.499 9.50098c-10 -0.666992 -19.667 -2.16699 -29 -4.5
s-18.833 -6.83301 -28.5 -13.5s-19.834 -16 -30.501 -28s-22 -27.333 -34 -46l-105 74c10 23.333 22.833 44.333 38.5 63s32.5 34.667 50.5 48s36.5 24.333 55.5 33s37.167 14.667 54.5 18c12 2 23.333 3 34 3c37.333 0 71.166 -7.83301 101.499 -23.5
s58.833 -32.834 85.5 -51.501c19.333 -16 38.333 -27 57 -33s34.334 -9 47.001 -9z" />
    <glyph glyph-name="utilde" unicode="&#x169;" horiz-adv-x="1205" 
d="M1033 0l-172.997 0.000976562l-17 127c-48 -46 -99.833 -82 -155.5 -108s-115.834 -39 -180.501 -39c-50.667 0 -96.334 6 -137.001 18s-75.5 33 -104.5 63s-51.333 70.667 -67 122s-23.5 116.333 -23.5 195v622h196v-622c0 -47.333 3.5 -87 10.5 -119
s17.833 -57.833 32.5 -77.5s33.167 -33.834 55.5 -42.501s49.166 -13 80.499 -13c56.667 0 108.667 10.5 156 31.5s91 48.167 131 81.5v761h196v-1000zM751.003 1276c9.33301 0 19.665 1.83301 30.998 5.5s22.5 9.5 33.5 17.5s21.5 18 31.5 30s18.667 26.333 26 43l104 -80
c-10.667 -24 -23.667 -45.333 -39 -64s-31.666 -34.667 -48.999 -48s-35.5 -24 -54.5 -32s-37.5 -13.333 -55.5 -16c-7.33301 -1.33301 -14.5 -2.33301 -21.5 -3s-13.833 -1 -20.5 -1c-36 0 -68.5 7.66699 -97.5 23s-56.167 32.333 -81.5 51
c-21.333 15.333 -41.166 26.833 -59.499 34.5s-33.166 10.834 -44.499 9.50098c-10 -0.666992 -19.667 -2.16699 -29 -4.5s-18.833 -6.83301 -28.5 -13.5s-19.834 -16 -30.501 -28s-22 -27.333 -34 -46l-105 74c10 23.333 22.833 44.333 38.5 63s32.5 34.667 50.5 48
s36.5 24.333 55.5 33s37.167 14.667 54.5 18c12 2 23.333 3 34 3c37.333 0 71.166 -7.83301 101.499 -23.5s58.833 -32.834 85.5 -51.501c19.333 -16 38.333 -27 57 -33s34.334 -9 47.001 -9z" />
    <glyph glyph-name="Umacron" unicode="&#x16a;" horiz-adv-x="1421" 
d="M1047 1360h196.003v-948c0 -69.333 -12.833 -130.666 -38.5 -183.999s-61.834 -98.5 -108.501 -135.5s-102.667 -65 -168 -84s-137.666 -28.5 -216.999 -28.5c-78.667 0 -150.334 9.5 -215.001 28.5s-120.167 47 -166.5 84s-82.333 82.167 -108 135.5
s-38.5 114.666 -38.5 183.999v948h196v-948c0 -46 8.16699 -86.833 24.5 -122.5s39.166 -65.5 68.499 -89.5s64.333 -42.333 105 -55s85.334 -19 134.001 -19c50 0 95.667 6.33301 137 19s76.666 31 105.999 55s52.166 53.833 68.499 89.5s24.5 76.5 24.5 122.5v948z
M321.003 1616h772v-146h-772v146z" />
    <glyph glyph-name="umacron" unicode="&#x16b;" horiz-adv-x="1205" 
d="M1033 0l-172.997 0.000976562l-17 127c-48 -46 -99.833 -82 -155.5 -108s-115.834 -39 -180.501 -39c-50.667 0 -96.334 6 -137.001 18s-75.5 33 -104.5 63s-51.333 70.667 -67 122s-23.5 116.333 -23.5 195v622h196v-622c0 -47.333 3.5 -87 10.5 -119
s17.833 -57.833 32.5 -77.5s33.167 -33.834 55.5 -42.501s49.166 -13 80.499 -13c56.667 0 108.667 10.5 156 31.5s91 48.167 131 81.5v761h196v-1000zM213.003 1277h772v-146h-772v146z" />
    <glyph glyph-name="Ubreve" unicode="&#x16c;" horiz-adv-x="1421" 
d="M1047 1360h196.003v-948c0 -69.333 -12.833 -130.666 -38.5 -183.999s-61.834 -98.5 -108.501 -135.5s-102.667 -65 -168 -84s-137.666 -28.5 -216.999 -28.5c-78.667 0 -150.334 9.5 -215.001 28.5s-120.167 47 -166.5 84s-82.333 82.167 -108 135.5
s-38.5 114.666 -38.5 183.999v948h196v-948c0 -46 8.16699 -86.833 24.5 -122.5s39.166 -65.5 68.499 -89.5s64.333 -42.333 105 -55s85.334 -19 134.001 -19c50 0 95.667 6.33301 137 19s76.666 31 105.999 55s52.166 53.833 68.499 89.5s24.5 76.5 24.5 122.5v948z
M710.003 1466c-50.667 -0.666992 -97 4.16602 -139 14.499s-78.167 25.666 -108.5 45.999s-53.833 45.666 -70.5 75.999s-25 65.5 -25 105.5h154c0 -41.333 16 -74.333 48 -99s79 -37 141 -37c64.667 0 112.834 12.333 144.501 37s47.5 57.667 47.5 99h153
c0 -40 -8.33301 -75.167 -25 -105.5s-40.334 -55.666 -71.001 -75.999s-67.167 -35.666 -109.5 -45.999s-88.833 -15.166 -139.5 -14.499z" />
    <glyph glyph-name="ubreve" unicode="&#x16d;" horiz-adv-x="1205" 
d="M1033 0l-172.997 0.000976562l-17 127c-48 -46 -99.833 -82 -155.5 -108s-115.834 -39 -180.501 -39c-50.667 0 -96.334 6 -137.001 18s-75.5 33 -104.5 63s-51.333 70.667 -67 122s-23.5 116.333 -23.5 195v622h196v-622c0 -47.333 3.5 -87 10.5 -119
s17.833 -57.833 32.5 -77.5s33.167 -33.834 55.5 -42.501s49.166 -13 80.499 -13c56.667 0 108.667 10.5 156 31.5s91 48.167 131 81.5v761h196v-1000zM602.003 1127c-50.667 -0.666992 -97 4.16602 -139 14.499s-78.167 25.666 -108.5 45.999s-53.833 45.666 -70.5 75.999
s-25 65.5 -25 105.5h154c0 -41.333 16 -74.333 48 -99s79 -37 141 -37c64.667 0 112.834 12.333 144.501 37s47.5 57.667 47.5 99h153c0 -40 -8.33301 -75.167 -25 -105.5s-40.334 -55.666 -71.001 -75.999s-67.167 -35.666 -109.5 -45.999s-88.833 -15.166 -139.5 -14.499z
" />
    <glyph glyph-name="Uring" unicode="&#x16e;" horiz-adv-x="1421" 
d="M1047 1360h196.003v-948c0 -69.333 -12.833 -130.666 -38.5 -183.999s-61.834 -98.5 -108.501 -135.5s-102.667 -65 -168 -84s-137.666 -28.5 -216.999 -28.5c-78.667 0 -150.334 9.5 -215.001 28.5s-120.167 47 -166.5 84s-82.333 82.167 -108 135.5
s-38.5 114.666 -38.5 183.999v948h196v-948c0 -46 8.16699 -86.833 24.5 -122.5s39.166 -65.5 68.499 -89.5s64.333 -42.333 105 -55s85.334 -19 134.001 -19c50 0 95.667 6.33301 137 19s76.666 31 105.999 55s52.166 53.833 68.499 89.5s24.5 76.5 24.5 122.5v948z
M709.003 1858c29.333 0 56.833 -5.16699 82.5 -15.5s48.167 -24.333 67.5 -42s34.5 -38.167 45.5 -61.5s16.5 -48.333 16.5 -75c0 -27.333 -5.5 -52.666 -16.5 -75.999s-26.167 -43.833 -45.5 -61.5s-41.833 -31.5 -67.5 -41.5s-53.167 -15 -82.5 -15s-56.833 5 -82.5 15
s-48 23.833 -67 41.5s-34.167 38.167 -45.5 61.5s-17 48.666 -17 75.999c0 26.667 5.66699 51.667 17 75s26.5 43.833 45.5 61.5s41.333 31.667 67 42s53.167 15.5 82.5 15.5zM709.003 1586c24.667 0 45 7.66699 61 23s24 33.666 24 54.999c0 22 -8 40.5 -24 55.5
s-36.333 22.5 -61 22.5c-22.667 0 -42.5 -7.5 -59.5 -22.5s-25.5 -33.5 -25.5 -55.5c0 -21.333 8.5 -39.666 25.5 -54.999s36.833 -23 59.5 -23z" />
    <glyph glyph-name="uring" unicode="&#x16f;" horiz-adv-x="1205" 
d="M1033 0l-172.997 0.000976562l-17 127c-48 -46 -99.833 -82 -155.5 -108s-115.834 -39 -180.501 -39c-50.667 0 -96.334 6 -137.001 18s-75.5 33 -104.5 63s-51.333 70.667 -67 122s-23.5 116.333 -23.5 195v622h196v-622c0 -47.333 3.5 -87 10.5 -119
s17.833 -57.833 32.5 -77.5s33.167 -33.834 55.5 -42.501s49.166 -13 80.499 -13c56.667 0 108.667 10.5 156 31.5s91 48.167 131 81.5v761h196v-1000zM601.003 1519c29.333 0 56.833 -5.16699 82.5 -15.5s48.167 -24.333 67.5 -42s34.5 -38.167 45.5 -61.5
s16.5 -48.333 16.5 -75c0 -27.333 -5.5 -52.666 -16.5 -75.999s-26.167 -43.833 -45.5 -61.5s-41.833 -31.5 -67.5 -41.5s-53.167 -15 -82.5 -15s-56.833 5 -82.5 15s-48 23.833 -67 41.5s-34.167 38.167 -45.5 61.5s-17 48.666 -17 75.999c0 26.667 5.66699 51.667 17 75
s26.5 43.833 45.5 61.5s41.333 31.667 67 42s53.167 15.5 82.5 15.5zM601.003 1247c24.667 0 45 7.66699 61 23s24 33.666 24 54.999c0 22 -8 40.5 -24 55.5s-36.333 22.5 -61 22.5c-22.667 0 -42.5 -7.5 -59.5 -22.5s-25.5 -33.5 -25.5 -55.5
c0 -21.333 8.5 -39.666 25.5 -54.999s36.833 -23 59.5 -23z" />
    <glyph glyph-name="Uhungarumlaut" unicode="&#x170;" horiz-adv-x="1421" 
d="M1047 1360h196.003v-948c0 -69.333 -12.833 -130.666 -38.5 -183.999s-61.834 -98.5 -108.501 -135.5s-102.667 -65 -168 -84s-137.666 -28.5 -216.999 -28.5c-78.667 0 -150.334 9.5 -215.001 28.5s-120.167 47 -166.5 84s-82.333 82.167 -108 135.5
s-38.5 114.666 -38.5 183.999v948h196v-948c0 -46 8.16699 -86.833 24.5 -122.5s39.166 -65.5 68.499 -89.5s64.333 -42.333 105 -55s85.334 -19 134.001 -19c50 0 95.667 6.33301 137 19s76.666 31 105.999 55s52.166 53.833 68.499 89.5s24.5 76.5 24.5 122.5v948z
M677.003 1800l195 -60l-308 -268l-126 40zM1094 1800l214 -60l-373 -268l-143 40z" />
    <glyph glyph-name="uhungarumlaut" unicode="&#x171;" horiz-adv-x="1205" 
d="M1033 0l-172.997 0.000976562l-17 127c-48 -46 -99.833 -82 -155.5 -108s-115.834 -39 -180.501 -39c-50.667 0 -96.334 6 -137.001 18s-75.5 33 -104.5 63s-51.333 70.667 -67 122s-23.5 116.333 -23.5 195v622h196v-622c0 -47.333 3.5 -87 10.5 -119
s17.833 -57.833 32.5 -77.5s33.167 -33.834 55.5 -42.501s49.166 -13 80.499 -13c56.667 0 108.667 10.5 156 31.5s91 48.167 131 81.5v761h196v-1000zM569.003 1460l195 -60l-308 -268l-126 40zM986.003 1460l214 -60l-373 -268l-143 40z" />
    <glyph glyph-name="Uogonek" unicode="&#x172;" horiz-adv-x="1421" 
d="M1047 1360h196.003v-948c0 -69.333 -12.833 -130.666 -38.5 -183.999s-61.834 -98.5 -108.501 -135.5s-102.667 -65 -168 -84s-137.666 -28.5 -216.999 -28.5c-78.667 0 -150.334 9.5 -215.001 28.5s-120.167 47 -166.5 84s-82.333 82.167 -108 135.5
s-38.5 114.666 -38.5 183.999v948h196v-948c0 -46 8.16699 -86.833 24.5 -122.5s39.166 -65.5 68.499 -89.5s64.333 -42.333 105 -55s85.334 -19 134.001 -19c50 0 95.667 6.33301 137 19s76.666 31 105.999 55s52.166 53.833 68.499 89.5s24.5 76.5 24.5 122.5v948z
M902.003 0c-56 -22 -98.666 -49.1689 -127.999 -81.502s-44 -70.5 -44 -114.5c0 -11.333 2.16699 -21.333 6.5 -30s10 -16.167 17 -22.5s14.667 -11.166 23 -14.499s16.833 -5 25.5 -5c10.667 0 19.334 0.166992 26.001 0.5s12.667 1 18 2s10.5 2.16699 15.5 3.5
s11.167 3.33301 18.5 6l22 -112c-4 -2.66699 -10.5 -5.33398 -19.5 -8.00098s-19.333 -5 -31 -7s-24.334 -3.66699 -38.001 -5s-26.834 -2 -39.501 -2c-66 0 -117.333 15.833 -154 47.5s-55 75.834 -55 132.501c0 32.667 5.5 62.834 16.5 90.501s25.833 52.334 44.5 74.001
s40.667 40.167 66 55.5s52 26.666 80 33.999l130 -40v-4z" />
    <glyph glyph-name="uogonek" unicode="&#x173;" horiz-adv-x="1205" 
d="M1033 0l-172.997 0.000976562l-17 127c-48 -46 -99.833 -82 -155.5 -108s-115.834 -39 -180.501 -39c-50.667 0 -96.334 6 -137.001 18s-75.5 33 -104.5 63s-51.333 70.667 -67 122s-23.5 116.333 -23.5 195v622h196v-622c0 -47.333 3.5 -87 10.5 -119
s17.833 -57.833 32.5 -77.5s33.167 -33.834 55.5 -42.501s49.166 -13 80.499 -13c56.667 0 108.667 10.5 156 31.5s91 48.167 131 81.5v761h196v-1000zM1037 0.000976562c-56 -22 -98.666 -49.1689 -127.999 -81.502s-44 -70.5 -44 -114.5
c0 -11.333 2.16699 -21.333 6.5 -30s10 -16.167 17 -22.5s14.667 -11.166 23 -14.499s16.833 -5 25.5 -5c10.667 0 19.334 0.166992 26.001 0.5s12.667 1 18 2s10.5 2.16699 15.5 3.5s11.167 3.33301 18.5 6l22 -112c-4 -2.66699 -10.5 -5.33398 -19.5 -8.00098
s-19.333 -5 -31 -7s-24.334 -3.66699 -38.001 -5s-26.834 -2 -39.501 -2c-66 0 -117.333 15.833 -154 47.5s-55 75.834 -55 132.501c0 32.667 5.5 62.834 16.5 90.501s25.833 52.334 44.5 74.001s40.667 40.167 66 55.5s52 26.666 80 33.999l130 -40v-4z" />
    <glyph glyph-name="Ydieresis" unicode="&#x178;" 
d="M593 674l322 686h201l-427 -875v-485h-196v491l-421 869h201zM266 1646h216v-176h-216v176zM753 1646h218v-176h-218v176z" />
    <glyph glyph-name="Zacute" unicode="&#x179;" horiz-adv-x="1243" 
d="M143 1360h943v-110l-726 -1104h794l-43 -146h-974v126l703 1088h-697v146zM719 1780l213 -60l-285 -248l-141 40z" />
    <glyph glyph-name="zacute" unicode="&#x17a;" horiz-adv-x="1036" 
d="M117 1000h782v-120l-565 -734h619l-42 -146h-803v136l542 718h-533v146zM658 1440l213 -60l-285 -248l-141 40z" />
    <glyph glyph-name="Zdotaccent" unicode="&#x17b;" horiz-adv-x="1243" 
d="M143 1360h943v-110l-726 -1104h794l-43 -146h-974v126l703 1088h-697v146zM482 1646h218v-176h-218v176z" />
    <glyph glyph-name="zdotaccent" unicode="&#x17c;" horiz-adv-x="1036" 
d="M117 1000h782v-120l-565 -734h619l-42 -146h-803v136l542 718h-533v146zM421 1307h218v-176h-218v176z" />
    <glyph glyph-name="Zcaron" unicode="&#x17d;" horiz-adv-x="1243" 
d="M143 1360h943v-110l-726 -1104h794l-43 -146h-974v126l703 1088h-697v146zM756 1704h205l-295 -232h-123l-298 232h208l151 -129z" />
    <glyph glyph-name="zcaron" unicode="&#x17e;" horiz-adv-x="1036" 
d="M117 1000h782v-120l-565 -734h619l-42 -146h-803v136l542 718h-533v146zM695 1365h205l-295 -232h-123l-298 232h208l151 -129z" />
    <glyph glyph-name="florin" unicode="&#x192;" horiz-adv-x="773" 
d="M94 1000l133.999 0.00292969v62c0 70.667 8 129 24 175s39.167 82.5 69.5 109.5s67.333 46 111 57s93.167 16.5 148.5 16.5c16.667 0 34 -0.833008 52 -2.5s35.667 -3.83398 53 -6.50098s34 -5.83398 50 -9.50098s30.333 -7.5 43 -11.5l-7 -136
c-10 2.66699 -21.833 5.16699 -35.5 7.5s-28 4.5 -43 6.5s-30.5 3.5 -46.5 4.5s-31.333 1.5 -46 1.5c-31.333 0 -58 -3.66699 -80 -11s-40.333 -19.5 -55 -36.5s-25.334 -39 -32.001 -66s-10 -59.833 -10 -98.5v-62h291v-134h-291v-988
c0 -54.667 -7.33301 -100.834 -22 -138.501s-35.667 -68.167 -63 -91.5s-60.333 -40.166 -99 -50.499s-81.667 -15.5 -129 -15.5c-33.333 0 -65.166 2.66699 -95.499 8s-58.166 12.666 -83.499 21.999l21 136c18.667 -5.33301 40.5 -10 65.5 -14s51.5 -6 79.5 -6
c47.333 0 80.833 10.5 100.5 31.5s29.5 57.167 29.5 108.5v998h-153z" />
    <glyph glyph-name="dotlessj" unicode="&#x237;" horiz-adv-x="561" 
d="M-122 -280c9.33301 -2 20.499 -4.00098 33.499 -6.00098s26.667 -4 41 -6s28.833 -3.5 43.5 -4.5s28.667 -1.5 42 -1.5c27.333 0 50.833 3.83301 70.5 11.5s35.667 20.334 48 38.001s21.5 41 27.5 70s9 65.167 9 108.5v1070h196v-1070c0 -74.667 -8 -136.167 -24 -184.5
s-38.5 -86.5 -67.5 -114.5s-64 -47.5 -105 -58.5s-86.5 -16.5 -136.5 -16.5c-16.667 0 -34.167 0.5 -52.5 1.5s-36.166 2.5 -53.499 4.5s-34 4.66699 -50 8s-30 7.33301 -42 12z" />
    <glyph glyph-name="circumflex" unicode="&#x2c6;" horiz-adv-x="846" 
d="M296 1148h-208l298 232h123l295 -232h-205l-152 117z" />
    <glyph glyph-name="caron" unicode="&#x2c7;" horiz-adv-x="846" 
d="M599 1380h205l-295 -232h-123l-298 232h208l151 -129z" />
    <glyph glyph-name="breve" unicode="&#x2d8;" horiz-adv-x="800" 
d="M411 1138c-50.667 -0.666992 -97 4.16602 -139 14.499s-78.167 25.666 -108.5 45.999s-53.833 45.666 -70.5 75.999s-25 65.5 -25 105.5h154c0 -41.333 16 -74.333 48 -99s79 -37 141 -37c64.667 0 112.834 12.333 144.501 37s47.5 57.667 47.5 99h153
c0 -40 -8.33301 -75.167 -25 -105.5s-40.334 -55.666 -71.001 -75.999s-67.167 -35.666 -109.5 -45.999s-88.833 -15.166 -139.5 -14.499z" />
    <glyph glyph-name="dotaccent" unicode="&#x2d9;" horiz-adv-x="432" 
d="M108 1402h218v-176h-218v176z" />
    <glyph glyph-name="ring" unicode="&#x2da;" horiz-adv-x="638" 
d="M320 1616c29.333 0 56.833 -5.16699 82.5 -15.5s48.167 -24.333 67.5 -42s34.5 -38.167 45.5 -61.5s16.5 -48.333 16.5 -75c0 -27.333 -5.5 -52.666 -16.5 -75.999s-26.167 -43.833 -45.5 -61.5s-41.833 -31.5 -67.5 -41.5s-53.167 -15 -82.5 -15s-56.833 5 -82.5 15
s-48 23.833 -67 41.5s-34.167 38.167 -45.5 61.5s-17 48.666 -17 75.999c0 26.667 5.66699 51.667 17 75s26.5 43.833 45.5 61.5s41.333 31.667 67 42s53.167 15.5 82.5 15.5zM320 1344c24.667 0 45 7.66699 61 23s24 33.666 24 54.999c0 22 -8 40.5 -24 55.5
s-36.333 22.5 -61 22.5c-22.667 0 -42.5 -7.5 -59.5 -22.5s-25.5 -33.5 -25.5 -55.5c0 -21.333 8.5 -39.666 25.5 -54.999s36.833 -23 59.5 -23z" />
    <glyph glyph-name="ogonek" unicode="&#x2db;" horiz-adv-x="536" 
d="M437 0c-56 -22 -98.666 -49.1689 -127.999 -81.502s-44 -70.5 -44 -114.5c0 -11.333 2.16699 -21.333 6.5 -30s10 -16.167 17 -22.5s14.667 -11.166 23 -14.499s16.833 -5 25.5 -5c10.667 0 19.334 0.166992 26.001 0.5s12.667 1 18 2s10.5 2.16699 15.5 3.5
s11.167 3.33301 18.5 6l22 -112c-4 -2.66699 -10.5 -5.33398 -19.5 -8.00098s-19.333 -5 -31 -7s-24.334 -3.66699 -38.001 -5s-26.834 -2 -39.501 -2c-66 0 -117.333 15.833 -154 47.5s-55 75.834 -55 132.501c0 32.667 5.5 62.834 16.5 90.501s25.833 52.334 44.5 74.001
s40.667 40.167 66 55.5s52 26.666 80 33.999l130 -40v-4z" />
    <glyph glyph-name="tilde" unicode="&#x2dc;" horiz-adv-x="964" 
d="M632 1272c9.33301 0 19.665 1.83301 30.998 5.5s22.5 9.5 33.5 17.5s21.5 18 31.5 30s18.667 26.333 26 43l104 -80c-10.667 -24 -23.667 -45.333 -39 -64s-31.666 -34.667 -48.999 -48s-35.5 -24 -54.5 -32s-37.5 -13.333 -55.5 -16
c-7.33301 -1.33301 -14.5 -2.33301 -21.5 -3s-13.833 -1 -20.5 -1c-36 0 -68.5 7.66699 -97.5 23s-56.167 32.333 -81.5 51c-21.333 15.333 -41.166 26.833 -59.499 34.5s-33.166 10.834 -44.499 9.50098c-10 -0.666992 -19.667 -2.16699 -29 -4.5
s-18.833 -6.83301 -28.5 -13.5s-19.834 -16 -30.501 -28s-22 -27.333 -34 -46l-105 74c10 23.333 22.833 44.333 38.5 63s32.5 34.667 50.5 48s36.5 24.333 55.5 33s37.167 14.667 54.5 18c12 2 23.333 3 34 3c37.333 0 71.166 -7.83301 101.499 -23.5
s58.833 -32.834 85.5 -51.501c19.333 -16 38.333 -27 57 -33s34.334 -9 47.001 -9z" />
    <glyph glyph-name="hungarumlaut" unicode="&#x2dd;" horiz-adv-x="1121" 
d="M386 1440l195 -60l-308 -268l-126 40zM803 1440l214 -60l-373 -268l-143 40z" />
    <glyph glyph-name="pi" unicode="&#x3c0;" horiz-adv-x="1318" 
d="M1031 856l0.000976562 -540c0 -28 3.66699 -53.667 11 -77s18.666 -43.333 33.999 -60s34.833 -29.5 58.5 -38.5s52.167 -13.167 85.5 -12.5l-8 -146c-5.33301 -0.666992 -10.833 -1 -16.5 -1h-16.5c-112.667 0 -198.167 28.333 -256.5 85s-87.5 138.667 -87.5 246v544
h-326v-856h-196v856h-239v146h1182v-146h-225z" />
    <glyph glyph-name="endash" unicode="&#x2013;" horiz-adv-x="1042" 
d="M34 586v146h981v-146h-981z" />
    </font>
</defs>
</svg>
